<?xml version="1.0" encoding="UTF-8" standalone="no"?>
<!-- Created with Inkscape (http://www.inkscape.org/) -->

<svg
   version="1.1"
   id="svg2"
   width="6165.3335"
   height="4624"
   viewBox="0 0 6165.3335 4624"
   sodipodi:docname="putti_logo.svg"
   inkscape:version="1.2.1 (9c6d41e410, 2022-07-14)"
   xmlns:inkscape="http://www.inkscape.org/namespaces/inkscape"
   xmlns:sodipodi="http://sodipodi.sourceforge.net/DTD/sodipodi-0.dtd"
   xmlns="http://www.w3.org/2000/svg"
   xmlns:svg="http://www.w3.org/2000/svg">
  <defs
     id="defs6" />
  <sodipodi:namedview
     id="namedview4"
     pagecolor="#505050"
     bordercolor="#ffffff"
     borderopacity="1"
     inkscape:showpageshadow="0"
     inkscape:pageopacity="0"
     inkscape:pagecheckerboard="1"
     inkscape:deskcolor="#505050"
     showgrid="false"
     inkscape:zoom="0.12447771"
     inkscape:cx="3185.3093"
     inkscape:cy="2381.9526"
     inkscape:window-width="1920"
     inkscape:window-height="1001"
     inkscape:window-x="-9"
     inkscape:window-y="-9"
     inkscape:window-maximized="1"
     inkscape:current-layer="g8" />
  <g
     inkscape:groupmode="layer"
     inkscape:label="Image"
     id="g8">
    <g
       id="g188"
       transform="translate(-425.77905,-40.167834)">
      <path
         style="fill:#fdbe99;stroke-width:1.33333"
         d="m 3275.3334,3673.8513 c -119.4412,-3.0821 -273.7095,-23.0686 -472.6667,-61.2376 -185.819,-35.6482 -234.7972,-53.1653 -518,-185.2617 -27.8666,-12.9981 -51.4841,-23.7648 -52.4832,-23.926 -3.6565,-0.5899 -4.0234,-2.3425 -10.208,-48.7593 -1.1237,-8.4334 -2.5897,-18.3334 -3.2578,-22 -3.9326,-21.5807 -8.864,-90.5875 -7.5752,-106 0.903,-10.7996 143.9342,-891.8251 146.8782,-904.7223 1.1788,-5.1639 3.4924,-11.7639 5.1414,-14.6667 3.4729,-6.1138 1.8381,-5.959 29.1076,-2.7565 62.4696,7.3363 105.4726,-3.1887 174.3408,-42.6692 117.9818,-67.6364 238.228,-186.4051 310.3313,-306.5187 62.2148,-103.6406 94.3139,-215.7838 122.3171,-427.3333 2.6694,-20.1667 5.8037,-40.7233 6.965,-45.6816 7.4731,-31.9077 -2.1634,-96.0247 -24.1484,-160.6726 -28.1018,-82.6354 -56.779,-133.7089 -107.1928,-190.9077 l -14.6266,-16.5952 -5.46,-22.0714 c -19.9171,-80.5124 -14.5159,-138.36507 17.516,-187.61537 29.5097,-45.37238 68.303,-53.91485 132.3546,-29.14506 19.7959,7.65541 61.5986,27.19096 65.8782,30.78673 1.9004,1.59671 14.2552,10.07287 27.4552,18.83589 68.366,45.38592 144.3197,110.86851 191.4613,165.06631 85.1242,97.8657 119.5291,178.4557 161.9071,379.2505 3.7163,17.6088 5.9171,55.9472 5.9472,103.6016 0.1013,160.6274 -44.0084,331.1035 -135.7928,524.8146 l -8.0549,17 h 6.3661 c 3.5013,0 24.9211,-4.4666 47.5995,-9.9258 212.3728,-51.1225 344.955,-63.8626 499.8998,-48.0364 148.4874,15.1667 252.7095,50.2446 415.2348,139.7547 20.8458,11.4808 38.6363,20.8741 39.5346,20.8741 4.982,0 31.0965,23.5108 39.2053,35.2964 26.695,38.7999 25.9631,102.0722 -1.5421,133.3198 -16.204,18.4088 -50.4756,32.5125 -87.7659,36.1181 -135.8373,13.134 -204.8205,16.4071 -395,18.7419 l -74.3333,0.9125 v 3.1772 3.1772 l 53,-0.7609 c 170.4417,-2.4474 224.5388,-4.0495 293.6666,-8.6978 49.2304,-3.3102 141.9986,-11.6308 147.3334,-13.2144 8.6188,-2.5585 51.4933,-6.3784 82.6667,-7.365 86.4346,-2.7356 135.4988,20.3364 165.0913,77.6329 22.0741,42.7397 25.3831,93.3296 8.3497,127.6621 -17.6742,35.6246 -49.9716,56.846 -128.7744,84.6128 -9.9,3.4883 -21.7218,8.2219 -26.2708,10.5191 -9.8734,4.986 -18.9628,6.5652 -69.7292,12.1149 -159.7153,17.4599 -256.4209,20.3471 -449.3333,13.4154 -93.5944,-3.363 -144.2288,-5.3455 -154.3334,-6.0424 -10.9469,-0.7552 -11,-0.7434 -11,2.4569 0,3.9147 -9.0089,3.3928 178,10.3115 107.8755,3.9909 237.5555,3.0998 312,-2.1442 44.074,-3.1046 155.4634,-14.1822 179.6915,-17.8702 15.1804,-2.3108 18.6551,-1.4891 52.7456,12.4734 91.3964,37.4335 116.8847,91.6779 88.0956,187.4862 -29.0586,96.7056 -87.3205,143.3984 -222.1639,178.0485 -13.0361,3.3499 -25.2021,6.6588 -27.0354,7.3532 -4.4748,1.6947 -73.3798,9.8167 -118,13.9089 -87.0979,7.9879 -133.6952,7.7823 -299.3334,-1.3206 -81.1337,-4.4588 -107.7112,-5.9936 -115.6666,-6.6794 -8.2139,-0.708 -8.3334,-0.67 -8.3334,2.6523 0,2.9093 0.5927,3.3732 4.3334,3.3911 2.3833,0.013 13.0333,0.6001 23.6666,1.3085 29.8923,1.9913 160.9966,9.1059 195.9812,10.6352 66.8931,2.9243 140.5172,1.6605 196.6855,-3.3759 41.5833,-3.7285 114.1276,-12.1121 121.4029,-14.0298 11.4135,-3.0086 68.1259,5.6209 88.3965,13.4505 51.1218,19.7463 80.6658,74.6936 77.0622,143.3241 -4.4425,84.6058 -53.8705,134.9056 -197.5283,201.0127 -39.3769,18.12 -258.5777,88.8416 -364.6666,117.6537 -208.1031,56.5175 -403.0055,81.0208 -603.3334,75.8516 z"
         id="path202" />
      <path
         style="fill:#a4a2a1;stroke-width:1.33333"
         d="m 3264.3517,3679.0432 c 2.0268,-0.3064 5.0268,-0.2983 6.6667,0.019 1.64,0.3164 -0.019,0.5672 -3.685,0.5572 -3.6666,-0.013 -5.0084,-0.269 -2.9817,-0.5755 z m 122.6667,0 c 2.0268,-0.3064 5.0268,-0.2983 6.6666,0.019 1.64,0.3164 -0.019,0.5672 -3.6849,0.5572 -3.6667,-0.013 -5.0084,-0.269 -2.9817,-0.5755 z m -155.993,-1.3005 c 1.2974,-0.338 3.0974,-0.3159 4,0.049 0.9028,0.3652 -0.1586,0.6417 -2.3586,0.6147 -2.2,-0.027 -2.9386,-0.326 -1.6414,-0.6642 z m 193.3334,0 c 1.2973,-0.338 3.0973,-0.3159 4,0.049 0.9028,0.3652 -0.1587,0.6417 -2.3587,0.6147 -2.2,-0.027 -2.9385,-0.326 -1.6413,-0.6642 z m -215.3587,-1.2924 c 0.9167,-0.3699 2.4167,-0.3699 3.3333,0 0.9167,0.3698 0.1667,0.6725 -1.6666,0.6725 -1.8334,0 -2.5834,-0.3027 -1.6667,-0.6725 z m 237.3333,0 c 0.9167,-0.3699 2.4167,-0.3699 3.3334,0 0.9166,0.3698 0.1666,0.6725 -1.6667,0.6725 -1.8333,0 -2.5833,-0.3027 -1.6667,-0.6725 z m -258.5833,-1.3611 c 0.9625,-0.3852 2.1125,-0.3379 2.5556,0.1053 0.4431,0.4431 -0.3445,0.7583 -1.75,0.7004 -1.5533,-0.064 -1.8692,-0.38 -0.8056,-0.8056 z m 281.25,0.028 c 0.9167,-0.3699 2.4167,-0.3699 3.3333,0 0.9167,0.3699 0.1667,0.6725 -1.6666,0.6725 -1.8334,0 -2.5834,-0.3026 -1.6667,-0.6725 z m -297.25,-1.3611 c 0.9625,-0.3852 2.1125,-0.3378 2.5556,0.1054 0.4431,0.443 -0.3445,0.7582 -1.75,0.7004 -1.5533,-0.064 -1.8692,-0.38 -0.8056,-0.8056 z m 314.6667,0 c 0.9625,-0.3852 2.1125,-0.3378 2.5556,0.1054 0.443,0.443 -0.3446,0.7582 -1.75,0.7004 -1.5534,-0.064 -1.8692,-0.38 -0.8056,-0.8056 z m -329.3334,-1.3333 c 0.9626,-0.3852 2.1126,-0.3379 2.5556,0.1053 0.4431,0.4431 -0.3445,0.7583 -1.75,0.7004 -1.5533,-0.064 -1.8692,-0.38 -0.8056,-0.8056 z m 343.9167,0.028 c 0.9167,-0.3699 2.4167,-0.3699 3.3333,0 0.9167,0.3699 0.1667,0.6725 -1.6666,0.6725 -1.8334,0 -2.5834,-0.3026 -1.6667,-0.6725 z m 16.0833,-1.3611 c 0.9626,-0.3852 2.1126,-0.3378 2.5556,0.1054 0.4431,0.443 -0.3445,0.7582 -1.75,0.7004 -1.5533,-0.064 -1.8692,-0.38 -0.8056,-0.8056 z m 14.6667,-1.3333 c 0.9625,-0.3852 2.1125,-0.3379 2.5556,0.1053 0.4431,0.4431 -0.3445,0.7583 -1.75,0.7004 -1.5533,-0.064 -1.8692,-0.38 -0.8056,-0.8056 z m 34.6667,-4 c 0.9625,-0.3852 2.1125,-0.3379 2.5556,0.1053 0.443,0.4431 -0.3446,0.7583 -1.75,0.7004 -1.5534,-0.064 -1.8692,-0.38 -0.8056,-0.8056 z m 818.9167,-262.2599 c 0,-0.2768 1.05,-1.3268 2.3333,-2.3333 2.1148,-1.6584 2.1619,-1.6113 0.5035,0.5035 -1.7419,2.2209 -2.8368,2.9273 -2.8368,1.8298 z m 18.6666,-18.6666 c 0,-0.2768 1.05,-1.3268 2.3334,-2.3334 2.1148,-1.6584 2.1618,-1.6113 0.5034,0.5035 -1.7418,2.2209 -2.8368,2.9273 -2.8368,1.8299 z m 41.4386,-93.6076 c 0.064,-1.5534 0.38,-1.8692 0.8056,-0.8056 0.3852,0.9625 0.3378,2.1125 -0.1054,2.5556 -0.443,0.443 -0.7582,-0.3446 -0.7004,-1.75 z m 1.5913,-21.889 c 0,-3.3 0.26,-4.65 0.5777,-3 0.3179,1.65 0.3179,4.35 0,6 -0.3177,1.65 -0.5777,0.3 -0.5777,-3 z m -1.5913,-22.111 c 0.064,-1.5534 0.38,-1.8692 0.8056,-0.8056 0.3852,0.9625 0.3378,2.1125 -0.1054,2.5556 -0.443,0.443 -0.7582,-0.3446 -0.7004,-1.75 z m -38.8436,-90.889 -4.595,-5 5,4.595 c 4.6539,4.2768 5.6131,5.405 4.595,5.405 -0.2228,0 -2.4728,-2.25 -5,-5 z m -98.845,-38.5774 c 0.9625,-0.3852 2.1125,-0.3379 2.5556,0.1053 0.4431,0.4431 -0.3445,0.7583 -1.75,0.7004 -1.5533,-0.064 -1.8692,-0.38 -0.8056,-0.8056 z m 153.5834,-74.2594 c 0,-0.2768 1.05,-1.3268 2.3333,-2.3333 2.1148,-1.6584 2.1619,-1.6113 0.5035,0.5035 -1.7419,2.2209 -2.8368,2.9273 -2.8368,1.8298 z m 14.6666,-14.6666 c 0,-0.2768 1.05,-1.3268 2.3334,-2.3334 2.1148,-1.6584 2.1618,-1.6113 0.5034,0.5035 -1.7418,2.2209 -2.8368,2.9273 -2.8368,1.8299 z m 62.7719,-181.6076 c 0.064,-1.5534 0.38,-1.8692 0.8056,-0.8056 0.3852,0.9625 0.3379,2.1125 -0.1053,2.5556 -0.4431,0.443 -0.7583,-0.3446 -0.7004,-1.75 z m -38.942,-74.889 c -1.6584,-2.1148 -1.6113,-2.1618 0.5035,-0.5034 2.2209,1.7418 2.9273,2.8368 1.8298,2.8368 -0.2768,0 -1.3268,-1.05 -2.3333,-2.3334 z m 69.714,-197.6666 c 0,-1.8334 0.3027,-2.5834 0.6725,-1.6667 0.3699,0.9167 0.3699,2.4167 0,3.3333 -0.3698,0.9167 -0.6725,0.1667 -0.6725,-1.6666 z m -1.4387,-20.7778 c 0.064,-1.5533 0.38,-1.8692 0.8056,-0.8056 0.3852,0.9626 0.3379,2.1126 -0.1053,2.5556 -0.4431,0.4431 -0.7583,-0.3445 -0.7004,-1.75 z m -36.2753,-88.2222 c -1.6584,-2.1148 -1.6113,-2.1619 0.5035,-0.5035 1.2833,1.0065 2.3333,2.0565 2.3333,2.3333 0,1.0975 -1.0949,0.3911 -2.8368,-1.8298 z M 4520.604,2453 l -5.2705,-5.6667 5.6666,5.2706 c 5.27,4.9016 6.2794,6.0628 5.2706,6.0628 -0.2178,0 -2.7678,-2.55 -5.6667,-5.6667 z m -195.2705,-37.524 c 0,-1.2648 3.9912,-1.9023 4.7026,-0.7511 0.4335,0.7014 -0.4473,1.2751 -1.9573,1.2751 -1.5099,0 -2.7453,-0.2359 -2.7453,-0.524 z m 17.0833,-1.7201 c 0.9625,-0.3852 2.1125,-0.3379 2.5556,0.1053 0.4431,0.4431 -0.3445,0.7583 -1.75,0.7004 -1.5533,-0.064 -1.8692,-0.38 -0.8056,-0.8056 z m 19.2753,-1.3466 c 1.2974,-0.338 3.0974,-0.3158 4,0.049 0.9028,0.3652 -0.1586,0.6417 -2.3586,0.6146 -2.2,-0.027 -2.9386,-0.326 -1.6414,-0.6641 z m 55.308,0.041 c 0.9167,-0.3699 2.4167,-0.3699 3.3334,0 0.9166,0.3698 0.1666,0.6725 -1.6667,0.6725 -1.8333,0 -2.5833,-0.3027 -1.6667,-0.6725 z m -2001.3334,-112 c 0.9167,-0.3699 2.4167,-0.3699 3.3334,0 0.9166,0.3698 0.1666,0.6725 -1.6667,0.6725 -1.8333,0 -2.5833,-0.3027 -1.6667,-0.6725 z m 18.6667,-0.057 c 1.65,-0.3178 4.35,-0.3178 6,0 1.65,0.3178 0.3,0.5778 -3,0.5778 -3.3,0 -4.65,-0.26 -3,-0.5778 z m 267,-144.8968 c 0,-0.2768 1.05,-1.3268 2.3333,-2.3333 2.1148,-1.6584 2.1619,-1.6113 0.5035,0.5035 -1.7419,2.2209 -2.8368,2.9273 -2.8368,1.8298 z M 2726.0001,2132 c 2.8642,-2.9333 5.5078,-5.3333 5.8745,-5.3333 0.3667,0 -1.6769,2.4 -4.5412,5.3333 -2.8643,2.9333 -5.5079,5.3333 -5.8745,5.3333 -0.3667,0 1.6769,-2.4 4.5412,-5.3333 z m 24,-24 c 3.6114,-3.6667 6.8664,-6.6667 7.233,-6.6667 0.3667,0 -2.2882,3 -5.8997,6.6667 -3.6115,3.6667 -6.8664,6.6667 -7.2331,6.6667 -0.3666,0 2.2883,-3 5.8998,-6.6667 z m 31.3333,-33.8368 c 0,-0.2768 1.05,-1.3268 2.3333,-2.3333 2.1148,-1.6584 2.1619,-1.6114 0.5035,0.5034 -1.7419,2.221 -2.8368,2.9274 -2.8368,1.8299 z m 837.0834,-23.074 c 0.9625,-0.3852 2.1125,-0.3379 2.5556,0.1053 0.443,0.4431 -0.3446,0.7583 -1.75,0.7004 -1.5534,-0.064 -1.8692,-0.38 -0.8056,-0.8056 z m 254.6666,0 c 0.9626,-0.3852 2.1126,-0.3379 2.5556,0.1053 0.4431,0.4431 -0.3445,0.7583 -1.75,0.7004 -1.5533,-0.064 -1.8692,-0.38 -0.8056,-0.8056 z m -240,-1.3333 c 0.9626,-0.3852 2.1126,-0.3379 2.5556,0.1053 0.4431,0.4431 -0.3445,0.7583 -1.75,0.7004 -1.5533,-0.064 -1.8692,-0.38 -0.8056,-0.8056 z m 226.6667,0 c 0.9625,-0.3852 2.1125,-0.3379 2.5556,0.1053 0.4431,0.4431 -0.3445,0.7583 -1.75,0.7004 -1.5533,-0.064 -1.8692,-0.38 -0.8056,-0.8056 z m -212,-1.3334 c 0.9625,-0.3852 2.1125,-0.3378 2.5556,0.1054 0.4431,0.443 -0.3445,0.7582 -1.75,0.7004 -1.5533,-0.064 -1.8692,-0.38 -0.8056,-0.8056 z m 198.6667,0 c 0.9625,-0.3852 2.1125,-0.3378 2.5556,0.1054 0.443,0.443 -0.3446,0.7582 -1.75,0.7004 -1.5534,-0.064 -1.8692,-0.38 -0.8056,-0.8056 z m -184.0834,-1.3056 c 0.9167,-0.3698 2.4167,-0.3698 3.3334,0 0.9166,0.3699 0.1666,0.6726 -1.6667,0.6726 -1.8333,0 -2.5833,-0.3027 -1.6667,-0.6726 z m 26.0254,-1.3742 c 1.2973,-0.338 3.0973,-0.3159 4,0.049 0.9028,0.3652 -0.1587,0.6417 -2.3587,0.6147 -2.2,-0.027 -2.9385,-0.326 -1.6413,-0.6642 z m 116.6413,0.041 c 0.9167,-0.3699 2.4167,-0.3699 3.3333,0 0.9167,0.3699 0.1667,0.6725 -1.6666,0.6725 -1.8334,0 -2.5834,-0.3026 -1.6667,-0.6725 z m -67.3333,-1.4413 c 5.6833,-0.25 14.9833,-0.25 20.6666,0 5.6834,0.2498 1.0334,0.4544 -10.3333,0.4544 -11.3667,0 -16.0167,-0.2046 -10.3333,-0.4544 z M 3460.1053,1645.889 c 0.064,-1.5533 0.38,-1.8692 0.8056,-0.8056 0.3852,0.9626 0.3379,2.1126 -0.1053,2.5556 -0.4431,0.4431 -0.7583,-0.3445 -0.7004,-1.75 z m 1.5375,-20.556 c 0,-2.5666 0.2744,-3.6166 0.6097,-2.3333 0.3355,1.2833 0.3355,3.3833 0,4.6667 -0.3353,1.2833 -0.6097,0.2333 -0.6097,-2.3334 z m 1.5501,-52.6666 c 0,-10.2667 0.2113,-14.2904 0.4651,-8.9416 0.2537,5.3486 0.252,13.7486 0,18.6666 -0.2559,4.9179 -0.4635,0.5416 -0.4614,-9.725 z M 3461.6428,1516 c 0,-2.5667 0.2744,-3.6167 0.6097,-2.3333 0.3355,1.2833 0.3355,3.3833 0,4.6666 -0.3353,1.2834 -0.6097,0.2334 -0.6097,-2.3333 z m -460.0495,-47.3333 c 0.027,-2.2 0.326,-2.9386 0.6641,-1.6414 0.338,1.2974 0.3159,3.0974 -0.049,4 -0.3652,0.9028 -0.6418,-0.1586 -0.6147,-2.3586 z m -0.049,-30 c 0,-1.8334 0.3027,-2.5834 0.6726,-1.6667 0.3698,0.9167 0.3698,2.4167 0,3.3333 -0.3699,0.9167 -0.6726,0.1667 -0.6726,-1.6666 z M 2877.1633,1143 c -1.6584,-2.1147 -1.6114,-2.1619 0.5034,-0.5034 2.221,1.7418 2.9274,2.8367 1.8299,2.8367 -0.2768,0 -1.3268,-1.05 -2.3333,-2.3333 z m -9.3334,-10.6667 c -1.6584,-2.1147 -1.6113,-2.1619 0.5035,-0.5034 1.2833,1.0065 2.3333,2.0565 2.3333,2.3334 0,1.0973 -1.0949,0.391 -2.8368,-1.83 z M 3301.1633,1095 c -1.6584,-2.1147 -1.6113,-2.1619 0.5035,-0.5034 2.2209,1.7418 2.9273,2.8367 1.8298,2.8367 -0.2768,0 -1.3268,-1.05 -2.3333,-2.3333 z m -9.3333,-10.6667 c -1.6584,-2.1147 -1.6114,-2.1619 0.5034,-0.5034 2.221,1.7418 2.9274,2.8368 1.8299,2.8368 -0.2768,0 -1.3268,-1.05 -2.3333,-2.3334 z m -10.5975,-12 -3.2324,-3.6666 3.6667,3.2324 c 2.0166,1.7778 3.6666,3.4278 3.6666,3.6666 0,1.0458 -1.0797,0.1947 -4.1009,-3.2324 z m -46.6667,-46.6666 -3.2324,-3.6667 3.6667,3.2324 c 3.4271,3.0212 4.2781,4.1009 3.2324,4.1009 -0.2388,0 -1.8888,-1.65 -3.6667,-3.6666 z m -398.3552,-7 c 0,-1.8334 0.3027,-2.5834 0.6725,-1.6667 0.3699,0.9167 0.3699,2.4167 0,3.3333 -0.3698,0.9167 -0.6725,0.1667 -0.6725,-1.6666 z M 2836.4133,1002 c 0.013,-4.4 0.2564,-6.03925 0.553,-3.64279 0.2968,2.39649 0.2907,5.99649 -0.013,7.99999 -0.3041,2.0035 -0.5469,0.043 -0.5395,-4.3572 z m 101.9201,-146.96453 c 2.3833,-0.29576 6.2833,-0.29576 8.6667,0 2.3833,0.29577 0.4333,0.53777 -4.3334,0.53777 -4.7666,0 -6.7166,-0.242 -4.3333,-0.53777 z"
         id="path200" />
      <path
         style="fill:#be8f73;stroke-width:1.33333"
         d="m 3287.0254,3673.7427 c 1.2974,-0.338 3.0974,-0.3159 4,0.049 0.9028,0.3652 -0.1586,0.6417 -2.3586,0.6147 -2.2,-0.027 -2.9386,-0.326 -1.6414,-0.6642 z m 80,0 c 1.2974,-0.338 3.0974,-0.3159 4,0.049 0.9028,0.3652 -0.1586,0.6417 -2.3586,0.6147 -2.2,-0.027 -2.9386,-0.326 -1.6414,-0.6642 z m 45.9747,-1.2924 c 0.9167,-0.3699 2.4167,-0.3699 3.3333,0 0.9167,0.3698 0.1667,0.6725 -1.6666,0.6725 -1.8334,0 -2.5834,-0.3027 -1.6667,-0.6725 z m -193.25,-1.3611 c 0.9625,-0.3852 2.1125,-0.3379 2.5556,0.1053 0.4431,0.4431 -0.3445,0.7583 -1.75,0.7004 -1.5533,-0.064 -1.8692,-0.38 -0.8056,-0.8056 z m 217.3333,0 c 0.9626,-0.3852 2.1126,-0.3379 2.5556,0.1053 0.4431,0.4431 -0.3445,0.7583 -1.75,0.7004 -1.5533,-0.064 -1.8692,-0.38 -0.8056,-0.8056 z m -240,-1.3333 c 0.9626,-0.3852 2.1126,-0.3379 2.5556,0.1053 0.4431,0.4431 -0.3445,0.7583 -1.75,0.7004 -1.5533,-0.064 -1.8692,-0.38 -0.8056,-0.8056 z m 262.6667,0 c 0.9625,-0.3852 2.1125,-0.3379 2.5556,0.1053 0.4431,0.4431 -0.3445,0.7583 -1.75,0.7004 -1.5533,-0.064 -1.8692,-0.38 -0.8056,-0.8056 z m 924.25,-272.926 c 0,-0.2768 1.05,-1.3268 2.3334,-2.3334 2.1148,-1.6584 2.1618,-1.6113 0.5034,0.5035 -1.7418,2.2209 -2.8368,2.9273 -2.8368,1.8299 z m 13.3334,-13.3334 c 0,-0.2768 1.05,-1.3268 2.3333,-2.3333 2.1148,-1.6584 2.1619,-1.6113 0.5035,0.5035 -1.7419,2.2209 -2.8368,2.9273 -2.8368,1.8298 z m -420.3334,-243.0462 c 0.9167,-0.3699 2.4167,-0.3699 3.3333,0 0.9167,0.3698 0.1667,0.6725 -1.6666,0.6725 -1.8334,0 -2.5834,-0.3027 -1.6667,-0.6725 z m -33.25,-1.3611 c 0.9625,-0.3852 2.1125,-0.3379 2.5556,0.1053 0.4431,0.4431 -0.3445,0.7583 -1.75,0.7004 -1.5533,-0.064 -1.8692,-0.38 -0.8056,-0.8056 z m -28,-1.3333 c 0.9625,-0.3852 2.1125,-0.3379 2.5556,0.1053 0.4431,0.4431 -0.3445,0.7583 -1.75,0.7004 -1.5533,-0.064 -1.8692,-0.38 -0.8056,-0.8056 z m -49.3333,-2.6667 c 0.9625,-0.3852 2.1125,-0.3379 2.5556,0.1053 0.443,0.4431 -0.3446,0.7583 -1.75,0.7004 -1.5534,-0.064 -1.8692,-0.38 -0.8056,-0.8056 z m 129.25,0.028 c 0.9166,-0.3699 2.4166,-0.3699 3.3333,0 0.9167,0.3699 0.1667,0.6725 -1.6667,0.6725 -1.8333,0 -2.5833,-0.3026 -1.6666,-0.6725 z m 79.3586,-0.041 c 1.2974,-0.338 3.0974,-0.3159 4,0.049 0.9028,0.3652 -0.1586,0.6417 -2.3586,0.6147 -2.2,-0.027 -2.9386,-0.326 -1.6414,-0.6642 z m -232.6086,-1.3202 c 0.9625,-0.3852 2.1125,-0.3378 2.5556,0.1054 0.443,0.443 -0.3446,0.7582 -1.75,0.7004 -1.5534,-0.064 -1.8692,-0.38 -0.8056,-0.8056 z m 115.9166,0.028 c 0.9167,-0.3698 2.4167,-0.3698 3.3334,0 0.9166,0.3699 0.1666,0.6726 -1.6667,0.6726 -1.8333,0 -2.5833,-0.3027 -1.6667,-0.6726 z m 148.0834,-0.028 c 0.9625,-0.3852 2.1125,-0.3378 2.5556,0.1054 0.443,0.443 -0.3446,0.7582 -1.75,0.7004 -1.5534,-0.064 -1.8692,-0.38 -0.8056,-0.8056 z m -288,-1.3333 c 0.9625,-0.3852 2.1125,-0.3379 2.5556,0.1053 0.443,0.4431 -0.3446,0.7583 -1.75,0.7004 -1.5534,-0.064 -1.8692,-0.38 -0.8056,-0.8056 z m 112,0 c 0.9625,-0.3852 2.1125,-0.3379 2.5556,0.1053 0.443,0.4431 -0.3446,0.7583 -1.75,0.7004 -1.5534,-0.064 -1.8692,-0.38 -0.8056,-0.8056 z m -134.6667,-1.3333 c 0.9625,-0.3852 2.1125,-0.3379 2.5556,0.1053 0.4431,0.4431 -0.3445,0.7583 -1.75,0.7004 -1.5533,-0.064 -1.8692,-0.38 -0.8056,-0.8056 z m 108,0 c 0.9625,-0.3852 2.1125,-0.3379 2.5556,0.1053 0.4431,0.4431 -0.3445,0.7583 -1.75,0.7004 -1.5533,-0.064 -1.8692,-0.38 -0.8056,-0.8056 z m -24,-1.3334 c 0.9625,-0.3852 2.1125,-0.3378 2.5556,0.1054 0.4431,0.443 -0.3445,0.7582 -1.75,0.7004 -1.5533,-0.064 -1.8692,-0.38 -0.8056,-0.8056 z m -24,-1.3333 c 0.9625,-0.3852 2.1125,-0.3379 2.5556,0.1053 0.4431,0.4431 -0.3445,0.7583 -1.75,0.7004 -1.5533,-0.064 -1.8692,-0.38 -0.8056,-0.8056 z m -25.3333,-1.3333 c 0.9625,-0.3852 2.1125,-0.3379 2.5556,0.1053 0.443,0.4431 -0.3446,0.7583 -1.75,0.7004 -1.5534,-0.064 -1.8692,-0.38 -0.8056,-0.8056 z m -46.6667,-2.6667 c 0.9625,-0.3852 2.1125,-0.3379 2.5556,0.1053 0.4431,0.4431 -0.3445,0.7583 -1.75,0.7004 -1.5533,-0.064 -1.8692,-0.38 -0.8056,-0.8056 z m -22.6667,-1.3333 c 0.9626,-0.3852 2.1126,-0.3379 2.5556,0.1053 0.4431,0.4431 -0.3445,0.7583 -1.75,0.7004 -1.5533,-0.064 -1.8692,-0.38 -0.8056,-0.8056 z M 4466.6668,3030 c 3.9832,-4.0333 7.5423,-7.3333 7.9089,-7.3333 0.3667,0 -2.5924,3.3 -6.5756,7.3333 -3.9832,4.0333 -7.5422,7.3333 -7.9089,7.3333 -0.3667,0 2.5924,-3.3 6.5756,-7.3333 z m 66.7719,-154.7777 c 0.064,-1.5534 0.38,-1.8692 0.8056,-0.8056 0.3852,0.9625 0.3378,2.1125 -0.1054,2.5556 -0.443,0.443 -0.7582,-0.3446 -0.7004,-1.75 z m -563.7719,-122.808 c 1.2833,-0.3355 3.3833,-0.3355 4.6666,0 1.2834,0.3353 0.2334,0.6097 -2.3333,0.6097 -2.5667,0 -3.6167,-0.2744 -2.3333,-0.6097 z m 151.3333,0.036 c 0.9167,-0.3699 2.4167,-0.3699 3.3333,0 0.9167,0.3698 0.1667,0.6725 -1.6666,0.6725 -1.8334,0 -2.5834,-0.3027 -1.6667,-0.6725 z m -204,-1.3334 c 0.9167,-0.3698 2.4167,-0.3698 3.3333,0 0.9167,0.3699 0.1667,0.6726 -1.6666,0.6726 -1.8334,0 -2.5834,-0.3027 -1.6667,-0.6726 z m 237.4167,-0.028 c 0.9625,-0.3852 2.1125,-0.3378 2.5556,0.1054 0.443,0.443 -0.3446,0.7582 -1.75,0.7004 -1.5534,-0.064 -1.8692,-0.38 -0.8056,-0.8056 z m -280.0834,-1.3056 c 0.9167,-0.3698 2.4167,-0.3698 3.3334,0 0.9166,0.3699 0.1666,0.6726 -1.6667,0.6726 -1.8333,0 -2.5833,-0.3027 -1.6667,-0.6726 z m -37.3333,-1.3333 c 0.9167,-0.3699 2.4167,-0.3699 3.3333,0 0.9167,0.3699 0.1667,0.6725 -1.6666,0.6725 -1.8334,0 -2.5834,-0.3026 -1.6667,-0.6725 z m 362.75,-0.028 c 0.9625,-0.3852 2.1125,-0.3379 2.5556,0.1053 0.4431,0.4431 -0.3445,0.7583 -1.75,0.7004 -1.5533,-0.064 -1.8692,-0.38 -0.8056,-0.8056 z m -397.3333,-1.3333 c 0.9625,-0.3852 2.1125,-0.3379 2.5556,0.1053 0.443,0.4431 -0.3446,0.7583 -1.75,0.7004 -1.5534,-0.064 -1.8692,-0.38 -0.8056,-0.8056 z m 201.9166,-0.06 c 2.75,-0.2876 7.25,-0.2876 10,0 2.75,0.2877 0.5,0.523 -5,0.523 -5.5,0 -7.75,-0.2353 -5,-0.523 z m 77.3334,0.016 c 2.0166,-0.3055 5.3166,-0.3055 7.3333,0 2.0167,0.3056 0.3667,0.5554 -3.6667,0.5554 -4.0333,0 -5.6833,-0.2498 -3.6666,-0.5554 z m 136.75,0.044 c 0.9625,-0.3852 2.1125,-0.3379 2.5556,0.1053 0.443,0.4431 -0.3446,0.7583 -1.75,0.7004 -1.5534,-0.064 -1.8692,-0.38 -0.8056,-0.8056 z m -450.6667,-1.3334 c 0.9625,-0.3852 2.1125,-0.3378 2.5556,0.1054 0.4431,0.443 -0.3445,0.7582 -1.75,0.7004 -1.5533,-0.064 -1.8692,-0.38 -0.8056,-0.8056 z m 172.6087,-0.013 c 1.2973,-0.338 3.0973,-0.3159 4,0.049 0.9028,0.3652 -0.1587,0.6418 -2.3587,0.6147 -2.2,-0.027 -2.9385,-0.326 -1.6413,-0.6641 z m 196.6413,0.041 c 0.9167,-0.3698 2.4167,-0.3698 3.3333,0 0.9167,0.3699 0.1667,0.6726 -1.6666,0.6726 -1.8334,0 -2.5834,-0.3027 -1.6667,-0.6726 z m -401.3333,-1.3333 c 0.9166,-0.3699 2.4166,-0.3699 3.3333,0 0.9167,0.3699 0.1667,0.6725 -1.6667,0.6725 -1.8333,0 -2.5833,-0.3026 -1.6666,-0.6725 z m 159.3586,-0.041 c 1.2974,-0.338 3.0974,-0.3159 4,0.049 0.9028,0.3652 -0.1586,0.6417 -2.3586,0.6147 -2.2,-0.027 -2.9386,-0.326 -1.6414,-0.6642 z m 275.3914,0.013 c 0.9625,-0.3852 2.1125,-0.3379 2.5556,0.1053 0.443,0.4431 -0.3446,0.7583 -1.75,0.7004 -1.5534,-0.064 -1.8692,-0.38 -0.8056,-0.8056 z m -314.75,-1.3056 c 0.9166,-0.3699 2.4166,-0.3699 3.3333,0 0.9167,0.3699 0.1667,0.6725 -1.6667,0.6725 -1.8333,0 -2.5833,-0.3026 -1.6666,-0.6725 z m -36,-1.3333 c 0.9166,-0.3699 2.4166,-0.3699 3.3333,0 0.9167,0.3698 0.1667,0.6725 -1.6667,0.6725 -1.8333,0 -2.5833,-0.3027 -1.6666,-0.6725 z m 389.4166,-0.028 c 0.9626,-0.3852 2.1126,-0.3379 2.5556,0.1053 0.4431,0.4431 -0.3445,0.7583 -1.75,0.7004 -1.5533,-0.064 -1.8692,-0.38 -0.8056,-0.8056 z m -424.0833,-1.3056 c 0.9167,-0.3699 2.4167,-0.3699 3.3333,0 0.9167,0.3698 0.1667,0.6725 -1.6666,0.6725 -1.8334,0 -2.5834,-0.3027 -1.6667,-0.6725 z m -33.3333,-1.3334 c 0.9166,-0.3698 2.4166,-0.3698 3.3333,0 0.9167,0.3699 0.1667,0.6726 -1.6667,0.6726 -1.8333,0 -2.5833,-0.3027 -1.6666,-0.6726 z m -31.9167,-1.361 c 0.9625,-0.3852 2.1125,-0.3379 2.5556,0.1053 0.4431,0.4431 -0.3445,0.7583 -1.75,0.7004 -1.5533,-0.064 -1.8692,-0.38 -0.8056,-0.8056 z m 109.25,-290.7204 c 2.3833,-0.2958 6.2833,-0.2958 8.6667,0 2.3833,0.2957 0.4333,0.5377 -4.3334,0.5377 -4.7666,0 -6.7166,-0.242 -4.3333,-0.5377 z m 109.3333,-1.3098 c 1.65,-0.3178 4.35,-0.3178 6,0 1.65,0.3178 0.3,0.5778 -3,0.5778 -3.3,0 -4.65,-0.26 -3,-0.5778 z m 72.692,-1.3164 c 1.2974,-0.338 3.0974,-0.3158 4,0.049 0.9028,0.3652 -0.1586,0.6417 -2.3586,0.6146 -2.2,-0.027 -2.9386,-0.326 -1.6414,-0.6641 z m 44.6414,-1.2924 c 0.9166,-0.3698 2.4166,-0.3698 3.3333,0 0.9167,0.3699 0.1667,0.6726 -1.6667,0.6726 -1.8333,0 -2.5833,-0.3027 -1.6666,-0.6726 z m 34.75,-1.361 c 0.9625,-0.3852 2.1125,-0.3379 2.5556,0.1053 0.443,0.4431 -0.3446,0.7583 -1.75,0.7004 -1.5534,-0.064 -1.8692,-0.38 -0.8056,-0.8056 z m -202.0834,-1.3776 c 2.0167,-0.3055 5.3167,-0.3055 7.3334,0 2.0166,0.3056 0.3666,0.5554 -3.6667,0.5554 -4.0333,0 -5.6833,-0.2498 -3.6667,-0.5554 z m 227.4167,0.044 c 0.9625,-0.3852 2.1125,-0.3379 2.5556,0.1053 0.4431,0.4431 -0.3445,0.7583 -1.75,0.7004 -1.5533,-0.064 -1.8692,-0.38 -0.8056,-0.8056 z m -138.7344,-1.3656 c 1.6585,-0.319 4.0585,-0.3068 5.3333,0.027 1.2747,0.3338 -0.083,0.5947 -3.0156,0.5799 -2.9333,-0.015 -3.9764,-0.2879 -2.3177,-0.6068 z m 58.0097,-1.3143 c 1.2974,-0.338 3.0974,-0.3159 4,0.049 0.9028,0.3652 -0.1586,0.6418 -2.3586,0.6147 -2.2,-0.027 -2.9386,-0.326 -1.6414,-0.6641 z m 37.9747,-1.2924 c 0.9167,-0.3699 2.4167,-0.3699 3.3333,0 0.9167,0.3699 0.1667,0.6725 -1.6666,0.6725 -1.8334,0 -2.5834,-0.3026 -1.6667,-0.6725 z m 29.4167,-1.3611 c 0.9625,-0.3852 2.1125,-0.3378 2.5556,0.1054 0.443,0.443 -0.3446,0.7582 -1.75,0.7004 -1.5534,-0.064 -1.8692,-0.38 -0.8056,-0.8056 z m 272,-17.3333 c 0.9625,-0.3852 2.1125,-0.3379 2.5556,0.1053 0.4431,0.4431 -0.3445,0.7583 -1.75,0.7004 -1.5533,-0.064 -1.8692,-0.38 -0.8056,-0.8056 z M 4380.2107,2332 c 0,-1.8333 0.3026,-2.5833 0.6725,-1.6667 0.3699,0.9167 0.3699,2.4167 0,3.3334 -0.3699,0.9166 -0.6725,0.1666 -0.6725,-1.6667 z m -1973.794,-26.2441 c 0.9626,-0.3852 2.1126,-0.3379 2.5556,0.1053 0.4431,0.4431 -0.3445,0.7583 -1.75,0.7004 -1.5533,-0.064 -1.8692,-0.38 -0.8056,-0.8056 z M 4341.1633,2231 c -1.6584,-2.1148 -1.6113,-2.1619 0.5035,-0.5035 2.2209,1.7419 2.9273,2.8368 1.8299,2.8368 -0.2768,0 -1.3268,-1.05 -2.3334,-2.3333 z m -1638.4966,-68.8368 c 0,-0.2768 1.05,-1.3268 2.3334,-2.3333 2.1148,-1.6584 2.1618,-1.6114 0.5034,0.5034 -1.7418,2.221 -2.8368,2.9274 -2.8368,1.8299 z m 18.6667,-17.4965 c 1.7223,-1.8334 3.4315,-3.3334 3.7981,-3.3334 0.3667,0 -0.7425,1.5 -2.4648,3.3334 -1.7222,1.8333 -3.4314,3.3333 -3.7981,3.3333 -0.3667,0 0.7425,-1.5 2.4648,-3.3333 z m 41.3333,-41.3334 c 1.7223,-1.8333 3.4315,-3.3333 3.7982,-3.3333 0.3666,0 -0.7426,1.5 -2.4648,3.3333 -1.7223,1.8334 -3.4315,3.3334 -3.7982,3.3334 -0.3666,0 0.7426,-1.5 2.4648,-3.3334 z m 14.6667,-15.8368 c 0,-0.2768 1.05,-1.3268 2.3333,-2.3333 2.1148,-1.6584 2.1619,-1.6113 0.5035,0.5035 -1.7419,2.2209 -2.8368,2.9273 -2.8368,1.8298 z m 1061.0834,-33.7406 c 0.9625,-0.3852 2.1125,-0.3379 2.5556,0.1053 0.443,0.4431 -0.3446,0.7583 -1.75,0.7004 -1.5534,-0.064 -1.8692,-0.38 -0.8056,-0.8056 z m -164,-1.3334 c 0.9625,-0.3852 2.1125,-0.3378 2.5556,0.1054 0.443,0.443 -0.3446,0.7582 -1.75,0.7004 -1.5534,-0.064 -1.8692,-0.38 -0.8056,-0.8056 z m 142.6666,0 c 0.9626,-0.3852 2.1126,-0.3378 2.5556,0.1054 0.4431,0.443 -0.3445,0.7582 -1.75,0.7004 -1.5533,-0.064 -1.8692,-0.38 -0.8056,-0.8056 z m -116,-1.3333 c 0.9626,-0.3852 2.1126,-0.3379 2.5556,0.1053 0.4431,0.4431 -0.3445,0.7583 -1.75,0.7004 -1.5533,-0.064 -1.8692,-0.38 -0.8056,-0.8056 z m 87.25,-0.013 c 1.2834,-0.3355 3.3834,-0.3355 4.6667,0 1.2833,0.3353 0.2333,0.6097 -2.3333,0.6097 -2.5667,0 -3.6167,-0.2744 -2.3334,-0.6097 z m -332.2281,-438.5254 c 0.064,-1.5533 0.38,-1.8692 0.8056,-0.8056 0.3852,0.9626 0.3379,2.1126 -0.1053,2.5556 -0.4431,0.4431 -0.7583,-0.3445 -0.7004,-1.75 z m 0.1053,-81.8889 c 0,-1.8333 0.3027,-2.5833 0.6726,-1.6667 0.3698,0.9167 0.3698,2.4167 0,3.3334 -0.3699,0.9166 -0.6726,0.1666 -0.6726,-1.6667 z m -1.3333,-34.6667 c 0,-1.8333 0.3027,-2.5833 0.6725,-1.6666 0.3699,0.9166 0.3699,2.4166 0,3.3333 -0.3698,0.9167 -0.6725,0.1667 -0.6725,-1.6667 z M 2862.4966,1117.667 c -1.6584,-2.1148 -1.6113,-2.1619 0.5035,-0.5034 2.2209,1.7418 2.9273,2.8367 1.8298,2.8367 -0.2768,0 -1.3268,-1.05 -2.3333,-2.3333 z m 411.3768,-44.667 -2.54,-3 3,2.54 c 1.65,1.397 3,2.747 3,3 0,1.067 -1.073,0.2793 -3.46,-2.54 z m -38.6238,-38.6667 -3.9162,-4.3333 4.3334,3.9161 c 2.3833,2.1539 4.3333,4.1039 4.3333,4.3334 0,1.03 -1.1001,0.1232 -4.7505,-3.9162 z"
         id="path198" />
      <path
         style="fill:#96715b;stroke-width:1.33333"
         d="m 3274.3334,3679.1169 c 0.9167,-0.3698 2.4167,-0.3698 3.3334,0 0.9166,0.3699 0.1666,0.6726 -1.6667,0.6726 -1.8333,0 -2.5833,-0.3027 -1.6667,-0.6726 z m 105.3334,0 c 0.9166,-0.3698 2.4166,-0.3698 3.3333,0 0.9167,0.3699 0.1667,0.6726 -1.6667,0.6726 -1.8333,0 -2.5833,-0.3027 -1.6666,-0.6726 z m -99.308,-5.3742 c 1.2973,-0.338 3.0973,-0.3159 4,0.049 0.9028,0.3652 -0.1587,0.6417 -2.3587,0.6147 -2.2,-0.027 -2.9385,-0.326 -1.6413,-0.6642 z m 93.3333,0 c 1.2973,-0.338 3.0973,-0.3159 4,0.049 0.9028,0.3652 -0.1587,0.6417 -2.3587,0.6147 -2.2,-0.027 -2.9385,-0.326 -1.6413,-0.6642 z m -135.2753,-1.3202 c 0.9625,-0.3852 2.1125,-0.3378 2.5556,0.1054 0.443,0.443 -0.3446,0.7582 -1.75,0.7004 -1.5534,-0.064 -1.8692,-0.38 -0.8056,-0.8056 z m 180,0 c 0.9625,-0.3852 2.1125,-0.3378 2.5556,0.1054 0.443,0.443 -0.3446,0.7582 -1.75,0.7004 -1.5534,-0.064 -1.8692,-0.38 -0.8056,-0.8056 z m 984.1783,-512.0892 -4.595,-5 5,4.595 c 4.6539,4.2768 5.6131,5.405 4.595,5.405 -0.2228,0 -2.4728,-2.25 -5,-5 z m -420.2617,-19.883 c 0.9167,-0.3699 2.4167,-0.3699 3.3334,0 0.9166,0.3698 0.1666,0.6725 -1.6667,0.6725 -1.8333,0 -2.5833,-0.3027 -1.6667,-0.6725 z m 109.4167,-0.028 c 0.9625,-0.3852 2.1125,-0.3379 2.5556,0.1053 0.4431,0.4431 -0.3445,0.7583 -1.75,0.7004 -1.5533,-0.064 -1.8692,-0.38 -0.8056,-0.8056 z m -144,-1.3334 c 0.9625,-0.3852 2.1125,-0.3378 2.5556,0.1054 0.4431,0.443 -0.3445,0.7582 -1.75,0.7004 -1.5533,-0.064 -1.8692,-0.38 -0.8056,-0.8056 z m -28,-1.3333 c 0.9625,-0.3852 2.1125,-0.3379 2.5556,0.1053 0.4431,0.4431 -0.3445,0.7583 -1.75,0.7004 -1.5533,-0.064 -1.8692,-0.38 -0.8056,-0.8056 z m -25.3333,-1.3333 c 0.9625,-0.3852 2.1125,-0.3379 2.5556,0.1053 0.443,0.4431 -0.3446,0.7583 -1.75,0.7004 -1.5534,-0.064 -1.8692,-0.38 -0.8056,-0.8056 z m -24,-1.3334 c 0.9625,-0.3852 2.1125,-0.3378 2.5556,0.1054 0.443,0.443 -0.3446,0.7582 -1.75,0.7004 -1.5534,-0.064 -1.8692,-0.38 -0.8056,-0.8056 z m 121.3333,0 c 0.9625,-0.3852 2.1125,-0.3378 2.5556,0.1054 0.4431,0.443 -0.3445,0.7582 -1.75,0.7004 -1.5533,-0.064 -1.8692,-0.38 -0.8056,-0.8056 z m 89.25,0.028 c 0.9167,-0.3698 2.4167,-0.3698 3.3333,0 0.9167,0.3699 0.1667,0.6726 -1.6666,0.6726 -1.8334,0 -2.5834,-0.3027 -1.6667,-0.6726 z m -126.5833,-1.361 c 0.9625,-0.3852 2.1125,-0.3379 2.5556,0.1053 0.443,0.4431 -0.3446,0.7583 -1.75,0.7004 -1.5534,-0.064 -1.8692,-0.38 -0.8056,-0.8056 z m 156,0 c 0.9625,-0.3852 2.1125,-0.3379 2.5556,0.1053 0.443,0.4431 -0.3446,0.7583 -1.75,0.7004 -1.5534,-0.064 -1.8692,-0.38 -0.8056,-0.8056 z m -184,-1.3334 c 0.9625,-0.3852 2.1125,-0.3378 2.5556,0.1054 0.443,0.443 -0.3446,0.7582 -1.75,0.7004 -1.5534,-0.064 -1.8692,-0.38 -0.8056,-0.8056 z m -150.6667,-2.6666 c 0.9625,-0.3852 2.1125,-0.3379 2.5556,0.1053 0.4431,0.4431 -0.3445,0.7583 -1.75,0.7004 -1.5533,-0.064 -1.8692,-0.38 -0.8056,-0.8056 z m -22.6667,-1.3334 c 0.9626,-0.3852 2.1126,-0.3378 2.5556,0.1054 0.4431,0.443 -0.3445,0.7582 -1.75,0.7004 -1.5533,-0.064 -1.8692,-0.38 -0.8056,-0.8056 z m 98.6667,0 c 0.9625,-0.3852 2.1125,-0.3378 2.5556,0.1054 0.4431,0.443 -0.3445,0.7582 -1.75,0.7004 -1.5533,-0.064 -1.8692,-0.38 -0.8056,-0.8056 z m -48,-2.6666 c 0.9625,-0.3852 2.1125,-0.3379 2.5556,0.1053 0.4431,0.4431 -0.3445,0.7583 -1.75,0.7004 -1.5533,-0.064 -1.8692,-0.38 -0.8056,-0.8056 z m -69.3333,-4 c 0.9625,-0.3852 2.1125,-0.3379 2.5556,0.1053 0.443,0.4431 -0.3446,0.7583 -1.75,0.7004 -1.5534,-0.064 -1.8692,-0.38 -0.8056,-0.8056 z m 243.25,-369.3416 c 1.2833,-0.3355 3.3833,-0.3355 4.6666,0 1.2834,0.3353 0.2334,0.6097 -2.3333,0.6097 -2.5667,0 -3.6167,-0.2744 -2.3333,-0.6097 z m 139.4166,0.013 c 0.9626,-0.3852 2.1126,-0.3379 2.5556,0.1053 0.4431,0.4431 -0.3445,0.7583 -1.75,0.7004 -1.5533,-0.064 -1.8692,-0.38 -0.8056,-0.8056 z m -194.058,-1.3465 c 1.2974,-0.338 3.0974,-0.3159 4,0.049 0.9028,0.3652 -0.1586,0.6417 -2.3586,0.6147 -2.2,-0.027 -2.9386,-0.326 -1.6414,-0.6642 z m 227.3914,0.013 c 0.9625,-0.3852 2.1125,-0.3379 2.5556,0.1053 0.443,0.4431 -0.3446,0.7583 -1.75,0.7004 -1.5534,-0.064 -1.8692,-0.38 -0.8056,-0.8056 z m -270.75,-1.3056 c 0.9166,-0.3699 2.4166,-0.3699 3.3333,0 0.9167,0.3699 0.1667,0.6725 -1.6667,0.6725 -1.8333,0 -2.5833,-0.3026 -1.6666,-0.6725 z m -37.3334,-1.3333 c 0.9167,-0.3699 2.4167,-0.3699 3.3334,0 0.9166,0.3698 0.1666,0.6725 -1.6667,0.6725 -1.8333,0 -2.5833,-0.3027 -1.6667,-0.6725 z m -36,-1.3334 c 0.9167,-0.3698 2.4167,-0.3698 3.3334,0 0.9166,0.3699 0.1666,0.6726 -1.6667,0.6726 -1.8333,0 -2.5833,-0.3027 -1.6667,-0.6726 z m 187.3334,-0.036 c 1.2833,-0.3354 3.3833,-0.3354 4.6666,0 1.2834,0.3354 0.2334,0.6098 -2.3333,0.6098 -2.5667,0 -3.6167,-0.2744 -2.3333,-0.6098 z m 101.3516,-0.037 c 2.0268,-0.3064 5.0268,-0.2983 6.6666,0.019 1.64,0.3164 -0.019,0.5672 -3.6849,0.5572 -3.6667,-0.013 -5.0084,-0.269 -2.9817,-0.5755 z m -323.3516,-1.2596 c 0.9166,-0.3699 2.4166,-0.3699 3.3333,0 0.9167,0.3699 0.1667,0.6725 -1.6667,0.6725 -1.8333,0 -2.5833,-0.3026 -1.6666,-0.6725 z m 162.6666,0 c 0.9167,-0.3699 2.4167,-0.3699 3.3334,0 0.9166,0.3699 0.1666,0.6725 -1.6667,0.6725 -1.8333,0 -2.5833,-0.3026 -1.6667,-0.6725 z m 208.0834,-0.028 c 0.9625,-0.3852 2.1125,-0.3379 2.5556,0.1053 0.443,0.4431 -0.3446,0.7583 -1.75,0.7004 -1.5534,-0.064 -1.8692,-0.38 -0.8056,-0.8056 z m -401.3334,-1.3333 c 0.9626,-0.3852 2.1126,-0.3379 2.5556,0.1053 0.4431,0.4431 -0.3445,0.7583 -1.75,0.7004 -1.5533,-0.064 -1.8692,-0.38 -0.8056,-0.8056 z m 147.9167,0.028 c 0.9167,-0.3699 2.4167,-0.3699 3.3333,0 0.9167,0.3698 0.1667,0.6725 -1.6666,0.6725 -1.8334,0 -2.5834,-0.3027 -1.6667,-0.6725 z m -37.25,-1.3611 c 0.9625,-0.3852 2.1125,-0.3379 2.5556,0.1053 0.4431,0.4431 -0.3445,0.7583 -1.75,0.7004 -1.5533,-0.064 -1.8692,-0.38 -0.8056,-0.8056 z m -36,-1.3333 c 0.9625,-0.3852 2.1125,-0.3379 2.5556,0.1053 0.4431,0.4431 -0.3445,0.7583 -1.75,0.7004 -1.5533,-0.064 -1.8692,-0.38 -0.8056,-0.8056 z m -34.6667,-1.3334 c 0.9626,-0.3852 2.1126,-0.3378 2.5556,0.1054 0.4431,0.443 -0.3445,0.7582 -1.75,0.7004 -1.5533,-0.064 -1.8692,-0.38 -0.8056,-0.8056 z m -33.3333,-1.3333 c 0.9625,-0.3852 2.1125,-0.3379 2.5556,0.1053 0.4431,0.4431 -0.3445,0.7583 -1.75,0.7004 -1.5533,-0.064 -1.8692,-0.38 -0.8056,-0.8056 z m -33.4167,-1.3056 c 0.9167,-0.3699 2.4167,-0.3699 3.3334,0 0.9166,0.3699 0.1666,0.6725 -1.6667,0.6725 -1.8333,0 -2.5833,-0.3026 -1.6667,-0.6725 z m 802.9283,-280.1169 -4.5949,-5 5,4.5949 c 4.6539,4.2768 5.6131,5.4051 4.5949,5.4051 -0.2228,0 -2.4728,-2.25 -5,-5 z m -702.9044,-10.633 c 2.3965,-0.2968 5.9965,-0.2906 8,0.013 2.0036,0.3041 0.043,0.5469 -4.3572,0.5394 -4.4,-0.013 -6.0392,-0.2564 -3.6428,-0.553 z m 113.3095,-1.308 c 1.65,-0.3178 4.35,-0.3178 6,0 1.65,0.3178 0.3,0.5778 -3,0.5778 -3.3,0 -4.65,-0.26 -3,-0.5778 z m 75.3333,-1.3114 c 1.2833,-0.3355 3.3833,-0.3355 4.6667,0 1.2833,0.3353 0.2333,0.6097 -2.3334,0.6097 -2.5666,0 -3.6166,-0.2744 -2.3333,-0.6097 z m 48.75,-1.3251 c 0.9625,-0.3852 2.1125,-0.3379 2.5556,0.1053 0.4431,0.4431 -0.3445,0.7583 -1.75,0.7004 -1.5533,-0.064 -1.8692,-0.38 -0.8056,-0.8056 z m 34.6667,-1.3333 c 0.9625,-0.3852 2.1125,-0.3379 2.5556,0.1053 0.443,0.4431 -0.3446,0.7583 -1.75,0.7004 -1.5534,-0.064 -1.8692,-0.38 -0.8056,-0.8056 z m -184.0595,-1.3888 c 2.3965,-0.2968 5.9965,-0.2907 8,0.013 2.0036,0.3041 0.043,0.5469 -4.3572,0.5395 -4.4,-0.013 -6.0392,-0.2564 -3.6428,-0.5531 z m 83.9917,-1.3102 c 1.6586,-0.3189 4.0586,-0.3068 5.3334,0.027 1.2746,0.3337 -0.083,0.5947 -3.0156,0.5799 -2.9334,-0.015 -3.9764,-0.2879 -2.3178,-0.6068 z m 55.3431,-1.3142 c 1.2973,-0.338 3.0973,-0.3159 4,0.049 0.9028,0.3652 -0.1587,0.6417 -2.3587,0.6147 -2.2,-0.027 -2.9385,-0.326 -1.6413,-0.6642 z m 36.7247,-1.3202 c 0.9625,-0.3852 2.1125,-0.3378 2.5556,0.1054 0.443,0.443 -0.3446,0.7582 -1.75,0.7004 -1.5534,-0.064 -1.8692,-0.38 -0.8056,-0.8056 z m 28,-1.3333 c 0.9625,-0.3852 2.1125,-0.3379 2.5556,0.1053 0.443,0.4431 -0.3446,0.7583 -1.75,0.7004 -1.5534,-0.064 -1.8692,-0.38 -0.8056,-0.8056 z m 24,-1.3333 c 0.9625,-0.3852 2.1125,-0.3379 2.5556,0.1053 0.443,0.4431 -0.3446,0.7583 -1.75,0.7004 -1.5534,-0.064 -1.8692,-0.38 -0.8056,-0.8056 z m 240,-16 c 0.9625,-0.3852 2.1125,-0.3379 2.5556,0.1053 0.4431,0.4431 -0.3445,0.7583 -1.75,0.7004 -1.5533,-0.064 -1.8692,-0.38 -0.8056,-0.8056 z M 2730.0001,2136 c 2.8642,-2.9333 5.5078,-5.3333 5.8745,-5.3333 0.3667,0 -1.6769,2.4 -4.5412,5.3333 -2.8643,2.9333 -5.5079,5.3333 -5.8745,5.3333 -0.3667,0 1.6769,-2.4 4.5412,-5.3333 z m 26.6666,-26.6667 c 1.3274,-1.4666 2.7134,-2.6666 3.08,-2.6666 0.3667,0 -0.4193,1.2 -1.7466,2.6666 -1.3274,1.4667 -2.7134,2.6667 -3.08,2.6667 -0.3667,0 0.4193,-1.2 1.7466,-2.6667 z m 913.7501,-56.9108 c 0.9625,-0.3852 2.1125,-0.3378 2.5556,0.1054 0.443,0.443 -0.3446,0.7582 -1.75,0.7004 -1.5534,-0.064 -1.8692,-0.38 -0.8056,-0.8056 z m 26.6666,-1.3333 c 0.9626,-0.3852 2.1126,-0.3379 2.5556,0.1053 0.4431,0.4431 -0.3445,0.7583 -1.75,0.7004 -1.5533,-0.064 -1.8692,-0.38 -0.8056,-0.8056 z m 99.2754,-0.013 c 1.2973,-0.338 3.0973,-0.3159 4,0.049 0.9028,0.3652 -0.1587,0.6417 -2.3587,0.6147 -2.2,-0.027 -2.9385,-0.326 -1.6413,-0.6642 z m -340.2535,-434.5204 c 0.064,-1.5534 0.38,-1.8692 0.8056,-0.8056 0.3852,0.9625 0.3379,2.1125 -0.1053,2.5556 -0.4431,0.443 -0.7583,-0.3446 -0.7004,-1.75 z m 0,-90.6667 c 0.064,-1.5533 0.38,-1.8692 0.8056,-0.8056 0.3852,0.9625 0.3379,2.1125 -0.1053,2.5556 -0.4431,0.4431 -0.7583,-0.3445 -0.7004,-1.75 z m 5.3333,-4 c 0.064,-1.5533 0.38,-1.8692 0.8056,-0.8056 0.3852,0.9625 0.3379,2.1125 -0.1053,2.5556 -0.4431,0.4431 -0.7583,-0.3445 -0.7004,-1.75 z m -6.5613,-31.2221 c 0,-1.8334 0.3027,-2.5834 0.6725,-1.6667 0.3699,0.9167 0.3699,2.4167 0,3.3333 -0.3698,0.9167 -0.6725,0.1667 -0.6725,-1.6666 z m -176.3807,-413 c -1.6584,-2.1148 -1.6113,-2.1619 0.5035,-0.5034 1.2833,1.0064 2.3333,2.0564 2.3333,2.3333 0,1.0974 -1.0949,0.3911 -2.8368,-1.8299 z m -442.2367,-65 c 0.027,-2.2 0.326,-2.9386 0.6642,-1.6413 0.338,1.2973 0.3158,3.0973 -0.049,4 -0.3652,0.9027 -0.6417,-0.1587 -0.6146,-2.3587 z"
         id="path196" />
      <path
         style="fill:#695c55;stroke-width:1.33333"
         d="m 3280.3588,3679.076 c 1.2973,-0.338 3.0973,-0.3159 4,0.049 0.9028,0.3652 -0.1587,0.6418 -2.3587,0.6147 -2.2,-0.027 -2.9385,-0.326 -1.6413,-0.6641 z m 93.3333,0 c 1.2973,-0.338 3.0973,-0.3159 4,0.049 0.9028,0.3652 -0.1587,0.6418 -2.3587,0.6147 -2.2,-0.027 -2.9385,-0.326 -1.6413,-0.6641 z m -135.2753,-1.3201 c 0.9625,-0.3852 2.1125,-0.3379 2.5556,0.1053 0.443,0.4431 -0.3446,0.7583 -1.75,0.7004 -1.5534,-0.064 -1.8692,-0.38 -0.8056,-0.8056 z m 180,0 c 0.9625,-0.3852 2.1125,-0.3379 2.5556,0.1053 0.443,0.4431 -0.3446,0.7583 -1.75,0.7004 -1.5534,-0.064 -1.8692,-0.38 -0.8056,-0.8056 z m -144.0834,-3.9723 c 0.9167,-0.3699 2.4167,-0.3699 3.3334,0 0.9166,0.3699 0.1666,0.6725 -1.6667,0.6725 -1.8333,0 -2.5833,-0.3026 -1.6667,-0.6725 z m 105.3334,0 c 0.9166,-0.3699 2.4166,-0.3699 3.3333,0 0.9167,0.3699 0.1667,0.6725 -1.6667,0.6725 -1.8333,0 -2.5833,-0.3026 -1.6666,-0.6725 z m 1011,-275.6204 c 0,-0.2768 1.05,-1.3268 2.3333,-2.3333 2.1148,-1.6584 2.1619,-1.6114 0.5035,0.5034 -1.7419,2.221 -2.8368,2.9274 -2.8368,1.8299 z m 9.3333,-9.3333 c 0,-0.2768 1.05,-1.3268 2.3334,-2.3334 2.1148,-1.6584 2.1618,-1.6113 0.5034,0.5035 -1.7418,2.2209 -2.8368,2.9273 -2.8368,1.8299 z m -412.25,-248.4074 c 0.9625,-0.3852 2.1125,-0.3378 2.5556,0.1054 0.4431,0.443 -0.3445,0.7582 -1.75,0.7004 -1.5533,-0.064 -1.8692,-0.38 -0.8056,-0.8056 z m 98.5833,0.028 c 0.9167,-0.3698 2.4167,-0.3698 3.3334,0 0.9166,0.3699 0.1666,0.6726 -1.6667,0.6726 -1.8333,0 -2.5833,-0.3027 -1.6667,-0.6726 z m -162.5833,-2.6944 c 0.9625,-0.3852 2.1125,-0.3378 2.5556,0.1054 0.4431,0.443 -0.3445,0.7582 -1.75,0.7004 -1.5533,-0.064 -1.8692,-0.38 -0.8056,-0.8056 z m 62.5833,-2.6389 c 0.9167,-0.3699 2.4167,-0.3699 3.3334,0 0.9166,0.3699 0.1666,0.6725 -1.6667,0.6725 -1.8333,0 -2.5833,-0.3026 -1.6667,-0.6725 z m 100,0 c 0.9167,-0.3699 2.4167,-0.3699 3.3334,0 0.9166,0.3699 0.1666,0.6725 -1.6667,0.6725 -1.8333,0 -2.5833,-0.3026 -1.6667,-0.6725 z m 380.3334,-96.8677 c 0,-0.2295 1.95,-2.1795 4.3333,-4.3334 l 4.3334,-3.9161 -3.9162,4.3333 c -3.6504,4.0394 -4.7505,4.9463 -4.7505,3.9162 z m 40.6039,-258.5828 -5.2706,-5.6667 5.6667,5.2705 c 5.27,4.9016 6.2793,6.0628 5.2705,6.0628 -0.2177,0 -2.7677,-2.55 -5.6666,-5.6666 z m -521.6039,-27.2524 c 1.2833,-0.3355 3.3833,-0.3355 4.6666,0 1.2834,0.3353 0.2334,0.6097 -2.3333,0.6097 -2.5667,0 -3.6167,-0.2744 -2.3333,-0.6097 z m 121.3516,-0.037 c 2.0268,-0.3064 5.0268,-0.2982 6.6666,0.019 1.64,0.3164 -0.019,0.5672 -3.6849,0.5572 -3.6667,-0.013 -5.0084,-0.2689 -2.9817,-0.5755 z m -178.0183,-1.2596 c 0.9167,-0.3698 2.4167,-0.3698 3.3333,0 0.9167,0.3699 0.1667,0.6726 -1.6666,0.6726 -1.8334,0 -2.5834,-0.3027 -1.6667,-0.6726 z m 217.4167,-0.028 c 0.9625,-0.3852 2.1125,-0.3378 2.5556,0.1054 0.443,0.443 -0.3446,0.7582 -1.75,0.7004 -1.5534,-0.064 -1.8692,-0.38 -0.8056,-0.8056 z m -261.3334,-1.3333 c 0.9626,-0.3852 2.1126,-0.3379 2.5556,0.1053 0.4431,0.4431 -0.3445,0.7583 -1.75,0.7004 -1.5533,-0.064 -1.8692,-0.38 -0.8056,-0.8056 z m -37.3333,-1.3333 c 0.9625,-0.3852 2.1125,-0.3379 2.5556,0.1053 0.4431,0.4431 -0.3445,0.7583 -1.75,0.7004 -1.5533,-0.064 -1.8692,-0.38 -0.8056,-0.8056 z m -36,-1.3334 c 0.9625,-0.3852 2.1125,-0.3378 2.5556,0.1054 0.4431,0.443 -0.3445,0.7582 -1.75,0.7004 -1.5533,-0.064 -1.8692,-0.38 -0.8056,-0.8056 z m 173.9167,-0.013 c 1.2833,-0.3355 3.3833,-0.3355 4.6666,0 1.2834,0.3353 0.2334,0.6097 -2.3333,0.6097 -2.5667,0 -3.6167,-0.2744 -2.3333,-0.6097 z m 121.3516,-0.037 c 2.0268,-0.3064 5.0268,-0.2983 6.6666,0.019 1.64,0.3164 -0.019,0.5672 -3.6849,0.5572 -3.6667,-0.013 -5.0084,-0.2689 -2.9817,-0.5754 z m -329.935,-1.2874 c 0.9626,-0.3852 2.1126,-0.3378 2.5556,0.1054 0.4431,0.443 -0.3445,0.7582 -1.75,0.7004 -1.5533,-0.064 -1.8692,-0.38 -0.8056,-0.8056 z m 151.9167,0.028 c 0.9167,-0.3698 2.4167,-0.3698 3.3333,0 0.9167,0.3699 0.1667,0.6726 -1.6666,0.6726 -1.8334,0 -2.5834,-0.3027 -1.6667,-0.6726 z m 217.4167,-0.028 c 0.9625,-0.3852 2.1125,-0.3378 2.5556,0.1054 0.443,0.443 -0.3446,0.7582 -1.75,0.7004 -1.5534,-0.064 -1.8692,-0.38 -0.8056,-0.8056 z m -401.3334,-1.3333 c 0.9626,-0.3852 2.1126,-0.3379 2.5556,0.1053 0.4431,0.4431 -0.3445,0.7583 -1.75,0.7004 -1.5533,-0.064 -1.8692,-0.38 -0.8056,-0.8056 z m 138.5834,0.028 c 0.9166,-0.3699 2.4166,-0.3699 3.3333,0 0.9167,0.3699 0.1667,0.6725 -1.6667,0.6725 -1.8333,0 -2.5833,-0.3026 -1.6666,-0.6725 z m -37.3334,-1.3333 c 0.9167,-0.3699 2.4167,-0.3699 3.3334,0 0.9166,0.3698 0.1666,0.6725 -1.6667,0.6725 -1.8333,0 -2.5833,-0.3027 -1.6667,-0.6725 z m -34.5833,-1.3611 c 0.9625,-0.3852 2.1125,-0.3379 2.5556,0.1053 0.4431,0.4431 -0.3445,0.7583 -1.75,0.7004 -1.5533,-0.064 -1.8692,-0.38 -0.8056,-0.8056 z m -34.6667,-1.3333 c 0.9626,-0.3852 2.1126,-0.3379 2.5556,0.1053 0.4431,0.4431 -0.3445,0.7583 -1.75,0.7004 -1.5533,-0.064 -1.8692,-0.38 -0.8056,-0.8056 z m -33.3333,-1.3334 c 0.9625,-0.3852 2.1125,-0.3378 2.5556,0.1054 0.4431,0.443 -0.3445,0.7582 -1.75,0.7004 -1.5533,-0.064 -1.8692,-0.38 -0.8056,-0.8056 z m 792.9167,-84.4182 c 2.8643,-2.9334 5.5079,-5.3334 5.8745,-5.3334 0.3667,0 -1.6769,2.4 -4.5412,5.3334 -2.8642,2.9333 -5.5078,5.3333 -5.8745,5.3333 -0.3667,0 1.6769,-2.4 4.5412,-5.3333 z m -732.3334,-207.5858 c 1.2834,-0.3354 3.3834,-0.3354 4.6667,0 1.2833,0.3354 0.2333,0.6098 -2.3333,0.6098 -2.5667,0 -3.6167,-0.2744 -2.3334,-0.6098 z m 110.6667,-1.3693 c 2.0167,-0.3055 5.3167,-0.3055 7.3333,0 2.0167,0.3056 0.3667,0.5555 -3.6666,0.5555 -4.0334,0 -5.6834,-0.2499 -3.6667,-0.5555 z m 80,-1.2973 c 1.2833,-0.3355 3.3833,-0.3355 4.6667,0 1.2833,0.3353 0.2333,0.6097 -2.3334,0.6097 -2.5666,0 -3.6166,-0.2744 -2.3333,-0.6097 z m 52.75,-1.3251 c 0.9625,-0.3852 2.1125,-0.3379 2.5556,0.1053 0.4431,0.4431 -0.3445,0.7583 -1.75,0.7004 -1.5533,-0.064 -1.8692,-0.38 -0.8056,-0.8056 z m -241.3928,-1.3888 c 2.3965,-0.2968 5.9965,-0.2907 8,0.013 2.0036,0.3042 0.043,0.547 -4.3572,0.5395 -4.4,-0.013 -6.0392,-0.2564 -3.6428,-0.5531 z m 276.0595,0.056 c 0.9625,-0.3852 2.1125,-0.3379 2.5556,0.1053 0.443,0.4431 -0.3446,0.7583 -1.75,0.7004 -1.5534,-0.064 -1.8692,-0.38 -0.8056,-0.8056 z m -166.0834,-1.3776 c 2.0167,-0.3055 5.3167,-0.3055 7.3334,0 2.0166,0.3056 0.3666,0.5555 -3.6667,0.5555 -4.0333,0 -5.6833,-0.2499 -3.6667,-0.5555 z m 192.75,0.044 c 0.9626,-0.3852 2.1126,-0.3379 2.5556,0.1053 0.4431,0.4431 -0.3445,0.7583 -1.75,0.7004 -1.5533,-0.064 -1.8692,-0.38 -0.8056,-0.8056 z m -114.0833,-1.3416 c 1.2833,-0.3355 3.3833,-0.3355 4.6667,0 1.2833,0.3353 0.2333,0.6097 -2.3334,0.6097 -2.5666,0 -3.6166,-0.2744 -2.3333,-0.6097 z m 52.75,-1.3251 c 0.9625,-0.3852 2.1125,-0.3378 2.5556,0.1054 0.4431,0.443 -0.3445,0.7582 -1.75,0.7004 -1.5533,-0.064 -1.8692,-0.38 -0.8056,-0.8056 z m 34.6667,-1.3333 c 0.9625,-0.3852 2.1125,-0.3379 2.5556,0.1053 0.443,0.4431 -0.3446,0.7583 -1.75,0.7004 -1.5534,-0.064 -1.8692,-0.38 -0.8056,-0.8056 z m 288,-24 c 0.9625,-0.3852 2.1125,-0.3379 2.5556,0.1053 0.4431,0.4431 -0.3445,0.7583 -1.75,0.7004 -1.5533,-0.064 -1.8692,-0.38 -0.8056,-0.8056 z m 15.0219,-105.2003 c 0.064,-1.5533 0.38,-1.8692 0.8056,-0.8056 0.3852,0.9626 0.3378,2.1126 -0.1054,2.5556 -0.443,0.4431 -0.7582,-0.3445 -0.7004,-1.75 z m -1670.772,-163.726 c 0,-0.2768 1.05,-1.3268 2.3334,-2.3333 2.1148,-1.6584 2.1618,-1.6113 0.5034,0.5035 -1.7418,2.2209 -2.8368,2.9273 -2.8368,1.8298 z m 30,-22.1632 c 5.094,-5.1333 9.5619,-9.3333 9.9286,-9.3333 0.3666,0 -3.5012,4.2 -8.5952,9.3333 -5.094,5.1334 -9.5619,9.3334 -9.9286,9.3334 -0.3666,0 3.5012,-4.2 8.5952,-9.3334 z m 16,-24 c 1.3274,-1.4666 2.7134,-2.6666 3.08,-2.6666 0.3667,0 -0.4193,1.2 -1.7466,2.6666 -1.3274,1.4667 -2.7134,2.6667 -3.08,2.6667 -0.3667,0 0.4193,-1.2 1.7466,-2.6667 z m 909.7501,-50.2441 c 0.9625,-0.3852 2.1125,-0.3379 2.5556,0.1053 0.443,0.4431 -0.3446,0.7583 -1.75,0.7004 -1.5534,-0.064 -1.8692,-0.38 -0.8056,-0.8056 z m 26.6666,-1.3333 c 0.9626,-0.3852 2.1126,-0.3379 2.5556,0.1053 0.4431,0.4431 -0.3445,0.7583 -1.75,0.7004 -1.5533,-0.064 -1.8692,-0.38 -0.8056,-0.8056 z m 99.2754,-0.013 c 1.2973,-0.338 3.0973,-0.3158 4,0.049 0.9028,0.3652 -0.1587,0.6417 -2.3587,0.6146 -2.2,-0.027 -2.9385,-0.326 -1.6413,-0.6641 z m -340.2535,-425.187 c 0.064,-1.5534 0.38,-1.8692 0.8056,-0.8056 0.3852,0.9625 0.3379,2.1125 -0.1053,2.5556 -0.4431,0.443 -0.7583,-0.3446 -0.7004,-1.75 z m 5.3333,-4 c 0.064,-1.5534 0.38,-1.8692 0.8056,-0.8056 0.3852,0.9625 0.3379,2.1125 -0.1053,2.5556 -0.4431,0.443 -0.7583,-0.3446 -0.7004,-1.75 z m 0.1054,-89.889 c 0,-1.8333 0.3026,-2.5833 0.6725,-1.6666 0.3699,0.9166 0.3699,2.4166 0,3.3333 -0.3699,0.9167 -0.6725,0.1667 -0.6725,-1.6667 z m -5.4387,-4.7777 c 0.064,-1.5533 0.38,-1.8692 0.8056,-0.8056 0.3852,0.9625 0.3379,2.1125 -0.1053,2.5556 -0.4431,0.4431 -0.7583,-0.3445 -0.7004,-1.75 z m -180.8985,-455.5555 -2.54,-3 3,2.54 c 1.65,1.397 3,2.747 3,3 0,1.067 -1.0731,0.2793 -3.46,-2.54 z M 3241.8734,1033 l -2.54,-3 3,2.54 c 1.65,1.397 3,2.747 3,3 0,1.067 -1.073,0.2793 -3.46,-2.54 z m -400.2801,-20.3333 c 0.027,-2.2 0.326,-2.9386 0.6641,-1.6413 0.338,1.2973 0.3159,3.0973 -0.049,4 -0.3652,0.9027 -0.6418,-0.1587 -0.6147,-2.3587 z"
         id="path194" />
      <path
         style="fill:#5d4638;stroke-width:1.33333"
         d="m 3286.3334,3679.1169 c 0.9167,-0.3698 2.4167,-0.3698 3.3334,0 0.9166,0.3699 0.1666,0.6726 -1.6667,0.6726 -1.8333,0 -2.5833,-0.3027 -1.6667,-0.6726 z m 81.3334,0 c 0.9166,-0.3698 2.4166,-0.3698 3.3333,0 0.9167,0.3699 0.1667,0.6726 -1.6667,0.6726 -1.8333,0 -2.5833,-0.3027 -1.6666,-0.6726 z m 46.75,-1.361 c 0.9625,-0.3852 2.1125,-0.3379 2.5556,0.1053 0.443,0.4431 -0.3446,0.7583 -1.75,0.7004 -1.5534,-0.064 -1.8692,-0.38 -0.8056,-0.8056 z m -150.0651,-4.046 c 2.0268,-0.3064 5.0268,-0.2983 6.6667,0.019 1.64,0.3164 -0.019,0.5672 -3.685,0.5572 -3.6666,-0.013 -5.0084,-0.2689 -2.9817,-0.5754 z m 122.6667,0 c 2.0268,-0.3064 5.0268,-0.2983 6.6666,0.019 1.64,0.3164 -0.019,0.5672 -3.6849,0.5572 -3.6667,-0.013 -5.0084,-0.2689 -2.9817,-0.5754 z m -155.3516,-1.2596 c 0.9166,-0.3699 2.4166,-0.3699 3.3333,0 0.9167,0.3698 0.1667,0.6725 -1.6667,0.6725 -1.8333,0 -2.5833,-0.3027 -1.6666,-0.6725 z m 192,0 c 0.9166,-0.3699 2.4166,-0.3699 3.3333,0 0.9167,0.3698 0.1667,0.6725 -1.6667,0.6725 -1.8333,0 -2.5833,-0.3027 -1.6666,-0.6725 z m -275.9167,-1.3611 c 0.9625,-0.3852 2.1125,-0.3379 2.5556,0.1053 0.4431,0.4431 -0.3445,0.7583 -1.75,0.7004 -1.5533,-0.064 -1.8692,-0.38 -0.8056,-0.8056 z m 61.25,0.028 c 0.9167,-0.3699 2.4167,-0.3699 3.3333,0 0.9167,0.3699 0.1667,0.6725 -1.6666,0.6725 -1.8334,0 -2.5834,-0.3026 -1.6667,-0.6725 z m 237.3333,0 c 0.9167,-0.3699 2.4167,-0.3699 3.3334,0 0.9166,0.3699 0.1666,0.6725 -1.6667,0.6725 -1.8333,0 -2.5833,-0.3026 -1.6667,-0.6725 z m -258.5833,-1.3611 c 0.9625,-0.3852 2.1125,-0.3378 2.5556,0.1054 0.4431,0.443 -0.3445,0.7582 -1.75,0.7004 -1.5533,-0.064 -1.8692,-0.38 -0.8056,-0.8056 z m 281.25,0.028 c 0.9167,-0.3698 2.4167,-0.3698 3.3333,0 0.9167,0.3699 0.1667,0.6726 -1.6666,0.6726 -1.8334,0 -2.5834,-0.3027 -1.6667,-0.6726 z m -297.25,-1.361 c 0.9625,-0.3852 2.1125,-0.3379 2.5556,0.1053 0.4431,0.4431 -0.3445,0.7583 -1.75,0.7004 -1.5533,-0.064 -1.8692,-0.38 -0.8056,-0.8056 z m 314.6667,0 c 0.9625,-0.3852 2.1125,-0.3379 2.5556,0.1053 0.443,0.4431 -0.3446,0.7583 -1.75,0.7004 -1.5534,-0.064 -1.8692,-0.38 -0.8056,-0.8056 z m -329.3334,-1.3334 c 0.9626,-0.3852 2.1126,-0.3378 2.5556,0.1054 0.4431,0.443 -0.3445,0.7582 -1.75,0.7004 -1.5533,-0.064 -1.8692,-0.38 -0.8056,-0.8056 z m 344,0 c 0.9626,-0.3852 2.1126,-0.3378 2.5556,0.1054 0.4431,0.443 -0.3445,0.7582 -1.75,0.7004 -1.5533,-0.064 -1.8692,-0.38 -0.8056,-0.8056 z m -360,-1.3333 c 0.9626,-0.3852 2.1126,-0.3379 2.5556,0.1053 0.4431,0.4431 -0.3445,0.7583 -1.75,0.7004 -1.5533,-0.064 -1.8692,-0.38 -0.8056,-0.8056 z m 376,0 c 0.9626,-0.3852 2.1126,-0.3379 2.5556,0.1053 0.4431,0.4431 -0.3445,0.7583 -1.75,0.7004 -1.5533,-0.064 -1.8692,-0.38 -0.8056,-0.8056 z m 14.6667,-1.3333 c 0.9625,-0.3852 2.1125,-0.3379 2.5556,0.1053 0.4431,0.4431 -0.3445,0.7583 -1.75,0.7004 -1.5533,-0.064 -1.8692,-0.38 -0.8056,-0.8056 z M 4396.6668,3392 c 1.3273,-1.4667 2.7133,-2.6667 3.08,-2.6667 0.3667,0 -0.4193,1.2 -1.7467,2.6667 -1.3273,1.4667 -2.7133,2.6667 -3.08,2.6667 -0.3666,0 0.4194,-1.2 1.7467,-2.6667 z m -4,-2.6667 c 1.3273,-1.4666 2.7133,-2.6666 3.08,-2.6666 0.3667,0 -0.4193,1.2 -1.7467,2.6666 -1.3273,1.4667 -2.7133,2.6667 -3.08,2.6667 -0.3666,0 0.4194,-1.2 1.7467,-2.6667 z m 49.0299,-120 c 0,-3.3 0.26,-4.65 0.5777,-3 0.3179,1.65 0.3179,4.35 0,6 -0.3177,1.65 -0.5777,0.3 -0.5777,-3 z m -1.5914,-22.111 c 0.064,-1.5534 0.38,-1.8692 0.8056,-0.8056 0.3852,0.9625 0.3379,2.1125 -0.1053,2.5556 -0.4431,0.443 -0.7583,-0.3446 -0.7004,-1.75 z m -447.0896,-106.832 c 1.6585,-0.319 4.0585,-0.3068 5.3333,0.027 1.2747,0.3338 -0.083,0.5947 -3.0156,0.5799 -2.9333,-0.015 -3.9764,-0.2879 -2.3177,-0.6068 z m 83.336,-0.013 c 2.0268,-0.3064 5.0268,-0.2982 6.6667,0.019 1.64,0.3164 -0.019,0.5672 -3.685,0.5572 -3.6666,-0.013 -5.0084,-0.2689 -2.9817,-0.5755 z m -120.6693,-1.3196 c 1.6585,-0.3189 4.0585,-0.3068 5.3333,0.027 1.2747,0.3337 -0.083,0.5947 -3.0156,0.5799 -2.9333,-0.015 -3.9764,-0.2879 -2.3177,-0.6068 z m 151.9844,0.06 c 0.9166,-0.3698 2.4166,-0.3698 3.3333,0 0.9167,0.3699 0.1667,0.6726 -1.6667,0.6726 -1.8333,0 -2.5833,-0.3027 -1.6666,-0.6726 z m -179.308,-1.3742 c 1.2973,-0.338 3.0973,-0.3159 4,0.049 0.9028,0.3652 -0.1587,0.6417 -2.3587,0.6147 -2.2,-0.027 -2.9385,-0.326 -1.6413,-0.6642 z m 199.308,0.041 c 0.9166,-0.3699 2.4166,-0.3699 3.3333,0 0.9167,0.3699 0.1667,0.6725 -1.6667,0.6725 -1.8333,0 -2.5833,-0.3026 -1.6666,-0.6725 z m -225.9747,-1.3743 c 1.2973,-0.338 3.0973,-0.3158 4,0.049 0.9028,0.3652 -0.1587,0.6417 -2.3587,0.6146 -2.2,-0.027 -2.9385,-0.326 -1.6413,-0.6641 z m -24.692,-1.2924 c 0.9167,-0.3698 2.4167,-0.3698 3.3333,0 0.9167,0.3699 0.1667,0.6726 -1.6666,0.6726 -1.8334,0 -2.5834,-0.3027 -1.6667,-0.6726 z m 101.3489,-0.06 c 1.6586,-0.3189 4.0586,-0.3068 5.3334,0.027 1.2746,0.3337 -0.083,0.5947 -3.0156,0.5799 -2.9334,-0.015 -3.9764,-0.2879 -2.3178,-0.6068 z m 114.0098,0.019 c 1.2973,-0.338 3.0973,-0.3159 4,0.049 0.9028,0.3652 -0.1587,0.6418 -2.3587,0.6147 -2.2,-0.027 -2.9385,-0.326 -1.6413,-0.6641 z m -240,-1.3333 c 1.2973,-0.338 3.0973,-0.3159 4,0.049 0.9028,0.3652 -0.1587,0.6417 -2.3587,0.6147 -2.2,-0.027 -2.9385,-0.326 -1.6413,-0.6642 z m 93.3333,0 c 1.2973,-0.338 3.0973,-0.3159 4,0.049 0.9028,0.3652 -0.1587,0.6417 -2.3587,0.6147 -2.2,-0.027 -2.9385,-0.326 -1.6413,-0.6642 z m 169.9747,0.041 c 0.9166,-0.3699 2.4166,-0.3699 3.3333,0 0.9167,0.3699 0.1667,0.6725 -1.6667,0.6725 -1.8333,0 -2.5833,-0.3026 -1.6666,-0.6725 z m 57.4166,-0.028 c 0.9626,-0.3852 2.1126,-0.3379 2.5556,0.1053 0.4431,0.4431 -0.3445,0.7583 -1.75,0.7004 -1.5533,-0.064 -1.8692,-0.38 -0.8056,-0.8056 z m -344.7246,-1.3465 c 1.2973,-0.338 3.0973,-0.3159 4,0.049 0.9028,0.3652 -0.1587,0.6417 -2.3587,0.6147 -2.2,-0.027 -2.9385,-0.326 -1.6413,-0.6642 z m 89.3333,0 c 1.2973,-0.338 3.0973,-0.3159 4,0.049 0.9028,0.3652 -0.1587,0.6417 -2.3587,0.6147 -2.2,-0.027 -2.9385,-0.326 -1.6413,-0.6642 z m 216.7247,0.013 c 0.9625,-0.3852 2.1125,-0.3379 2.5556,0.1053 0.443,0.4431 -0.3446,0.7583 -1.75,0.7004 -1.5534,-0.064 -1.8692,-0.38 -0.8056,-0.8056 z m -329.4167,-1.3056 c 0.9167,-0.3699 2.4167,-0.3699 3.3333,0 0.9167,0.3699 0.1667,0.6725 -1.6666,0.6725 -1.8334,0 -2.5834,-0.3026 -1.6667,-0.6725 z m 87.3587,-0.041 c 1.2973,-0.338 3.0973,-0.3159 4,0.049 0.9028,0.3652 -0.1587,0.6417 -2.3587,0.6147 -2.2,-0.027 -2.9385,-0.326 -1.6413,-0.6642 z m -110.0254,-1.2924 c 0.9167,-0.3699 2.4167,-0.3699 3.3334,0 0.9166,0.3698 0.1666,0.6725 -1.6667,0.6725 -1.8333,0 -2.5833,-0.3027 -1.6667,-0.6725 z m 86.0254,-0.041 c 1.2973,-0.338 3.0973,-0.3158 4,0.049 0.9028,0.3652 -0.1587,0.6417 -2.3587,0.6146 -2.2,-0.027 -2.9385,-0.326 -1.6413,-0.6641 z m 342.058,0.013 c 0.9625,-0.3852 2.1125,-0.3379 2.5556,0.1053 0.443,0.4431 -0.3446,0.7583 -1.75,0.7004 -1.5534,-0.064 -1.8692,-0.38 -0.8056,-0.8056 z m -450.75,-1.3056 c 0.9166,-0.3699 2.4166,-0.3699 3.3333,0 0.9167,0.3698 0.1667,0.6725 -1.6667,0.6725 -1.8333,0 -2.5833,-0.3027 -1.6666,-0.6725 z m 84,0 c 0.9166,-0.3699 2.4166,-0.3699 3.3333,0 0.9167,0.3698 0.1667,0.6725 -1.6667,0.6725 -1.8333,0 -2.5833,-0.3027 -1.6666,-0.6725 z m 334.75,-0.028 c 0.9625,-0.3852 2.1125,-0.3379 2.5556,0.1053 0.443,0.4431 -0.3446,0.7583 -1.75,0.7004 -1.5534,-0.064 -1.8692,-0.38 -0.8056,-0.8056 z m -441.4167,-1.3056 c 0.9167,-0.3699 2.4167,-0.3699 3.3333,0 0.9167,0.3698 0.1667,0.6725 -1.6666,0.6725 -1.8334,0 -2.5834,-0.3027 -1.6667,-0.6725 z m 82.6667,0 c 0.9166,-0.3699 2.4166,-0.3699 3.3333,0 0.9167,0.3698 0.1667,0.6725 -1.6667,0.6725 -1.8333,0 -2.5833,-0.3027 -1.6666,-0.6725 z m -24,-1.3334 c 0.9166,-0.3698 2.4166,-0.3698 3.3333,0 0.9167,0.3699 0.1667,0.6726 -1.6667,0.6726 -1.8333,0 -2.5833,-0.3027 -1.6666,-0.6726 z m -22.6667,-1.3333 c 0.9167,-0.3699 2.4167,-0.3699 3.3333,0 0.9167,0.3699 0.1667,0.6725 -1.6666,0.6725 -1.8334,0 -2.5834,-0.3026 -1.6667,-0.6725 z m -22.6667,-1.3333 c 0.9167,-0.3699 2.4167,-0.3699 3.3334,0 0.9166,0.3698 0.1666,0.6725 -1.6667,0.6725 -1.8333,0 -2.5833,-0.3027 -1.6667,-0.6725 z m 544.0834,-1.3611 c 0.9625,-0.3852 2.1125,-0.3379 2.5556,0.1053 0.443,0.4431 -0.3446,0.7583 -1.75,0.7004 -1.5534,-0.064 -1.8692,-0.38 -0.8056,-0.8056 z m 239.0219,-274.5336 c 0.064,-1.5533 0.38,-1.8692 0.8056,-0.8056 0.3852,0.9625 0.3378,2.1125 -0.1054,2.5556 -0.443,0.4431 -0.7582,-0.3445 -0.7004,-1.75 z m -535.1053,-94.8716 c 3.85,-0.2693 10.15,-0.2693 14,0 3.85,0.2693 0.7,0.4896 -7,0.4896 -7.7,0 -10.85,-0.2203 -7,-0.4896 z m 86.7114,0 c 3.8746,-0.2701 9.8746,-0.2673 13.3333,0 3.4588,0.2737 0.2887,0.4948 -7.0447,0.4913 -7.3333,0 -10.1632,-0.2274 -6.2886,-0.4976 z m -148.6931,-1.3056 c 2.0268,-0.3064 5.0268,-0.2983 6.6667,0.019 1.64,0.3164 -0.019,0.5672 -3.685,0.5572 -3.6666,-0.013 -5.0084,-0.269 -2.9817,-0.5755 z m 202.6484,0.037 c 1.2833,-0.3354 3.3833,-0.3354 4.6667,0 1.2833,0.3354 0.2333,0.6098 -2.3334,0.6098 -2.5666,0 -3.6166,-0.2744 -2.3333,-0.6098 z m -248.6667,-1.3552 c 1.65,-0.3178 4.35,-0.3178 6,0 1.65,0.3178 0.3,0.5778 -3,0.5778 -3.3,0 -4.65,-0.26 -3,-0.5778 z m 280,0.057 c 0.9167,-0.3699 2.4167,-0.3699 3.3334,0 0.9166,0.3698 0.1666,0.6725 -1.6667,0.6725 -1.8333,0 -2.5833,-0.3027 -1.6667,-0.6725 z m -317.3177,-1.3934 c 1.6585,-0.3189 4.0585,-0.3068 5.3333,0.027 1.2747,0.3337 -0.083,0.5947 -3.0156,0.5799 -2.9333,-0.015 -3.9764,-0.2879 -2.3177,-0.6068 z m 337.3177,0.06 c 0.9167,-0.3698 2.4167,-0.3698 3.3334,0 0.9166,0.3699 0.1666,0.6726 -1.6667,0.6726 -1.8333,0 -2.5833,-0.3027 -1.6667,-0.6726 z m -374,-1.3693 c 1.2834,-0.3355 3.3834,-0.3355 4.6667,0 1.2833,0.3353 0.2333,0.6097 -2.3333,0.6097 -2.5667,0 -3.6167,-0.2744 -2.3334,-0.6097 z m 155.3334,-0.045 c 2.3833,-0.2958 6.2833,-0.2958 8.6666,0 2.3834,0.2957 0.4334,0.5377 -4.3333,0.5377 -4.7667,0 -6.7167,-0.242 -4.3333,-0.5377 z m 146,0.045 c 1.2833,-0.3355 3.3833,-0.3355 4.6666,0 1.2834,0.3353 0.2334,0.6097 -2.3333,0.6097 -2.5667,0 -3.6167,-0.2744 -2.3333,-0.6097 z m 91.3333,0.036 c 0.9167,-0.3699 2.4167,-0.3699 3.3333,0 0.9167,0.3699 0.1667,0.6725 -1.6666,0.6725 -1.8334,0 -2.5834,-0.3026 -1.6667,-0.6725 z m -427.3333,-1.3693 c 1.2833,-0.3355 3.3833,-0.3355 4.6666,0 1.2834,0.3353 0.2334,0.6097 -2.3333,0.6097 -2.5667,0 -3.6167,-0.2744 -2.3333,-0.6097 z m 137.3516,-0.037 c 2.0268,-0.3064 5.0268,-0.2982 6.6666,0.019 1.64,0.3164 -0.019,0.5672 -3.6849,0.5572 -3.6667,-0.013 -5.0084,-0.2689 -2.9817,-0.5755 z m 231.9817,0.037 c 1.2833,-0.3355 3.3833,-0.3355 4.6667,0 1.2833,0.3353 0.2333,0.6097 -2.3334,0.6097 -2.5666,0 -3.6166,-0.2744 -2.3333,-0.6097 z m -401.308,-1.3383 c 1.2973,-0.338 3.0973,-0.3159 4,0.049 0.9028,0.3652 -0.1587,0.6418 -2.3587,0.6147 -2.2,-0.027 -2.9385,-0.326 -1.6413,-0.6641 z m 126.6413,0 c 1.2834,-0.3355 3.3834,-0.3355 4.6667,0 1.2833,0.3353 0.2333,0.6097 -2.3333,0.6097 -2.5667,0 -3.6167,-0.2744 -2.3334,-0.6097 z m 302,0.036 c 0.9167,-0.3699 2.4167,-0.3699 3.3334,0 0.9166,0.3699 0.1666,0.6725 -1.6667,0.6725 -1.8333,0 -2.5833,-0.3026 -1.6667,-0.6725 z m -460.6666,-1.3693 c 1.2833,-0.3355 3.3833,-0.3355 4.6666,0 1.2834,0.3353 0.2334,0.6097 -2.3333,0.6097 -2.5667,0 -3.6167,-0.2744 -2.3333,-0.6097 z m 121.3333,0 c 1.2833,-0.3355 3.3833,-0.3355 4.6667,0 1.2833,0.3353 0.2333,0.6097 -2.3334,0.6097 -2.5666,0 -3.6166,-0.2744 -2.3333,-0.6097 z m 359.4167,0.013 c 0.9625,-0.3852 2.1125,-0.3379 2.5556,0.1053 0.443,0.4431 -0.3446,0.7583 -1.75,0.7004 -1.5534,-0.064 -1.8692,-0.38 -0.8056,-0.8056 z m 58.6666,0 c 0.9626,-0.3852 2.1126,-0.3379 2.5556,0.1053 0.4431,0.4431 -0.3445,0.7583 -1.75,0.7004 -1.5533,-0.064 -1.8692,-0.38 -0.8056,-0.8056 z m -453.401,-1.3656 c 1.6585,-0.3189 4.0585,-0.3068 5.3333,0.027 1.2747,0.3337 -0.083,0.5946 -3.0156,0.5798 -2.9333,-0.015 -3.9764,-0.2878 -2.3177,-0.6068 z m 413.3177,0.06 c 0.9167,-0.3699 2.4167,-0.3699 3.3333,0 0.9167,0.3699 0.1667,0.6725 -1.6666,0.6725 -1.8334,0 -2.5834,-0.3026 -1.6667,-0.6725 z m 54.75,-0.028 c 0.9625,-0.3852 2.1125,-0.3379 2.5556,0.1053 0.4431,0.4431 -0.3445,0.7583 -1.75,0.7004 -1.5533,-0.064 -1.8692,-0.38 -0.8056,-0.8056 z m -502.7344,-1.3656 c 1.6585,-0.3189 4.0585,-0.3068 5.3333,0.027 1.2747,0.3337 -0.083,0.5946 -3.0156,0.5798 -2.9333,-0.015 -3.9764,-0.2878 -2.3177,-0.6068 z m 465.4011,0.032 c 0.9625,-0.3852 2.1125,-0.3379 2.5556,0.1053 0.443,0.4431 -0.3446,0.7583 -1.75,0.7004 -1.5534,-0.064 -1.8692,-0.38 -0.8056,-0.8056 z m -498.0834,-1.3416 c 1.2834,-0.3355 3.3834,-0.3355 4.6667,0 1.2833,0.3353 0.2333,0.6097 -2.3333,0.6097 -2.5667,0 -3.6167,-0.2744 -2.3334,-0.6097 z m 526.0834,-1.3251 c 0.9625,-0.3852 2.1125,-0.3378 2.5556,0.1054 0.443,0.443 -0.3446,0.7582 -1.75,0.7004 -1.5534,-0.064 -1.8692,-0.38 -0.8056,-0.8056 z m 14.6666,-1.3333 c 0.9626,-0.3852 2.1126,-0.3379 2.5556,0.1053 0.4431,0.4431 -0.3445,0.7583 -1.75,0.7004 -1.5533,-0.064 -1.8692,-0.38 -0.8056,-0.8056 z m 45.3334,0 c 0.9625,-0.3852 2.1125,-0.3379 2.5556,0.1053 0.4431,0.4431 -0.3445,0.7583 -1.75,0.7004 -1.5533,-0.064 -1.8692,-0.38 -0.8056,-0.8056 z m -20,-2.6667 c 0.9625,-0.3852 2.1125,-0.3378 2.5556,0.1054 0.443,0.443 -0.3446,0.7582 -1.75,0.7004 -1.5534,-0.064 -1.8692,-0.38 -0.8056,-0.8056 z m 261.7939,-159.0894 c 0,-1.8334 0.3026,-2.5834 0.6725,-1.6667 0.3699,0.9167 0.3699,2.4167 0,3.3333 -0.3699,0.9167 -0.6725,0.1667 -0.6725,-1.6666 z m -672.5439,-128.983 c 3.85,-0.2693 10.15,-0.2693 14,0 3.85,0.2694 0.7,0.4896 -7,0.4896 -7.7,0 -10.85,-0.2202 -7,-0.4896 z m 87.9702,-1.3126 c 2.367,-0.2946 6.567,-0.2995 9.3334,-0.013 2.7664,0.2887 0.8297,0.5296 -4.3036,0.5356 -5.1334,0 -7.3967,-0.2302 -5.0298,-0.5248 z m 58.048,-1.3279 c 2.0268,-0.3064 5.0268,-0.2983 6.6667,0.019 1.64,0.3164 -0.019,0.5672 -3.6849,0.5572 -3.6667,-0.013 -5.0084,-0.269 -2.9818,-0.5755 z m -214.0182,-1.3595 c 3.85,-0.2693 10.15,-0.2693 14,0 3.85,0.2694 0.7,0.4896 -7,0.4896 -7.7,0 -10.85,-0.2202 -7,-0.4896 z m 251.3333,0.064 c 1.2833,-0.3354 3.3833,-0.3354 4.6667,0 1.2833,0.3354 0.2333,0.6098 -2.3334,0.6098 -2.5666,0 -3.6166,-0.2744 -2.3333,-0.6098 z m -143.2981,-1.3922 c 3.1361,-0.2816 7.9361,-0.2778 10.6666,0.013 2.7307,0.2865 0.1648,0.5169 -5.7018,0.5121 -5.8667,0 -8.1008,-0.2393 -4.9648,-0.5209 z m 171.9648,0.095 c 0.9166,-0.3698 2.4166,-0.3698 3.3333,0 0.9167,0.3699 0.1667,0.6726 -1.6667,0.6726 -1.8333,0 -2.5833,-0.3027 -1.6666,-0.6726 z m -98.6428,-1.4165 c 2.3965,-0.2968 5.9965,-0.2907 8,0.013 2.0036,0.3042 0.043,0.547 -4.3572,0.5395 -4.4,-0.013 -6.0392,-0.2564 -3.6428,-0.5531 z m 124.0594,0.056 c 0.9626,-0.3852 2.1126,-0.3379 2.5556,0.1053 0.4431,0.4431 -0.3445,0.7583 -1.75,0.7004 -1.5533,-0.064 -1.8692,-0.38 -0.8056,-0.8056 z m -76.75,-1.3416 c 1.2834,-0.3355 3.3834,-0.3355 4.6667,0 1.2833,0.3353 0.2333,0.6097 -2.3333,0.6097 -2.5667,0 -3.6167,-0.2744 -2.3334,-0.6097 z m 96.75,0.013 c 0.9626,-0.3852 2.1126,-0.3378 2.5556,0.1054 0.4431,0.443 -0.3445,0.7582 -1.75,0.7004 -1.5533,-0.064 -1.8692,-0.38 -0.8056,-0.8056 z m -62.058,-1.3465 c 1.2974,-0.338 3.0974,-0.3159 4,0.049 0.9028,0.3652 -0.1586,0.6418 -2.3586,0.6147 -2.2,-0.027 -2.9386,-0.326 -1.6414,-0.6641 z m 82.058,0.013 c 0.9626,-0.3852 2.1126,-0.3378 2.5556,0.1054 0.4431,0.443 -0.3445,0.7582 -1.75,0.7004 -1.5533,-0.064 -1.8692,-0.38 -0.8056,-0.8056 z m -56.0833,-1.3056 c 0.9167,-0.3698 2.4167,-0.3698 3.3333,0 0.9167,0.3699 0.1667,0.6726 -1.6666,0.6726 -1.8334,0 -2.5834,-0.3027 -1.6667,-0.6726 z m 72.0833,-0.028 c 0.9626,-0.3852 2.1126,-0.3378 2.5556,0.1054 0.4431,0.443 -0.3445,0.7582 -1.75,0.7004 -1.5533,-0.064 -1.8692,-0.38 -0.8056,-0.8056 z m -49.4166,-1.3056 c 0.9166,-0.3698 2.4166,-0.3698 3.3333,0 0.9167,0.3699 0.1667,0.6726 -1.6667,0.6726 -1.8333,0 -2.5833,-0.3027 -1.6666,-0.6726 z m 65.4166,-0.028 c 0.9626,-0.3852 2.1126,-0.3378 2.5556,0.1054 0.4431,0.443 -0.3445,0.7582 -1.75,0.7004 -1.5533,-0.064 -1.8692,-0.38 -0.8056,-0.8056 z m -45.4166,-1.3056 c 0.9166,-0.3698 2.4166,-0.3698 3.3333,0 0.9167,0.3699 0.1667,0.6726 -1.6667,0.6726 -1.8333,0 -2.5833,-0.3027 -1.6666,-0.6726 z m 18.75,-1.361 c 0.9625,-0.3852 2.1125,-0.3379 2.5556,0.1053 0.443,0.4431 -0.3446,0.7583 -1.75,0.7004 -1.5534,-0.064 -1.8692,-0.38 -0.8056,-0.8056 z m 56,0 c 0.9625,-0.3852 2.1125,-0.3379 2.5556,0.1053 0.443,0.4431 -0.3446,0.7583 -1.75,0.7004 -1.5534,-0.064 -1.8692,-0.38 -0.8056,-0.8056 z m -40,-1.3334 c 0.9625,-0.3852 2.1125,-0.3378 2.5556,0.1054 0.443,0.443 -0.3446,0.7582 -1.75,0.7004 -1.5534,-0.064 -1.8692,-0.38 -0.8056,-0.8056 z m 54.6666,0 c 0.9626,-0.3852 2.1126,-0.3378 2.5556,0.1054 0.4431,0.443 -0.3445,0.7582 -1.75,0.7004 -1.5533,-0.064 -1.8692,-0.38 -0.8056,-0.8056 z m -38.6666,-1.3333 c 0.9625,-0.3852 2.1125,-0.3379 2.5556,0.1053 0.443,0.4431 -0.3446,0.7583 -1.75,0.7004 -1.5534,-0.064 -1.8692,-0.38 -0.8056,-0.8056 z m 53.3333,0 c 0.9625,-0.3852 2.1125,-0.3379 2.5556,0.1053 0.4431,0.4431 -0.3445,0.7583 -1.75,0.7004 -1.5533,-0.064 -1.8692,-0.38 -0.8056,-0.8056 z m -38.6667,-1.3333 c 0.9626,-0.3852 2.1126,-0.3379 2.5556,0.1053 0.4431,0.4431 -0.3445,0.7583 -1.75,0.7004 -1.5533,-0.064 -1.8692,-0.38 -0.8056,-0.8056 z m 53.3334,0 c 0.9625,-0.3852 2.1125,-0.3379 2.5556,0.1053 0.443,0.4431 -0.3446,0.7583 -1.75,0.7004 -1.5534,-0.064 -1.8692,-0.38 -0.8056,-0.8056 z m 52,-6.6667 c 0.9625,-0.3852 2.1125,-0.3379 2.5556,0.1053 0.4431,0.4431 -0.3445,0.7583 -1.75,0.7004 -1.5533,-0.064 -1.8692,-0.38 -0.8056,-0.8056 z m 16,-1.3333 c 0.9625,-0.3852 2.1125,-0.3379 2.5556,0.1053 0.4431,0.4431 -0.3445,0.7583 -1.75,0.7004 -1.5533,-0.064 -1.8692,-0.38 -0.8056,-0.8056 z m 19.2753,-1.3466 c 1.2974,-0.338 3.0974,-0.3158 4,0.049 0.9028,0.3652 -0.1586,0.6417 -2.3586,0.6146 -2.2,-0.027 -2.9386,-0.326 -1.6414,-0.6641 z m 55.3914,0.013 c 0.9625,-0.3852 2.1125,-0.3379 2.5556,0.1053 0.443,0.4431 -0.3446,0.7583 -1.75,0.7004 -1.5534,-0.064 -1.8692,-0.38 -0.8056,-0.8056 z m -42.6667,-5.3334 c 0.9625,-0.3852 2.1125,-0.3378 2.5556,0.1054 0.4431,0.443 -0.3445,0.7582 -1.75,0.7004 -1.5533,-0.064 -1.8692,-0.38 -0.8056,-0.8056 z m 34.6667,0 c 0.9625,-0.3852 2.1125,-0.3378 2.5556,0.1054 0.443,0.443 -0.3446,0.7582 -1.75,0.7004 -1.5534,-0.064 -1.8692,-0.38 -0.8056,-0.8056 z m -50.4167,-25.0944 c 1.7223,-1.8333 3.4315,-3.3333 3.7981,-3.3333 0.3667,0 -0.7425,1.5 -2.4648,3.3333 -1.7222,1.8334 -3.4314,3.3334 -3.7981,3.3334 -0.3667,0 0.7425,-1.5 2.4648,-3.3334 z m 26.7719,-56.111 c 0.064,-1.5534 0.38,-1.8692 0.8056,-0.8056 0.3852,0.9625 0.3378,2.1125 -0.1054,2.5556 -0.443,0.443 -0.7582,-0.3446 -0.7004,-1.75 z m -1969.772,-25.4387 c 0.9167,-0.3699 2.4167,-0.3699 3.3334,0 0.9166,0.3699 0.1666,0.6725 -1.6667,0.6725 -1.8333,0 -2.5833,-0.3026 -1.6667,-0.6725 z m 18.6667,-0.057 c 1.65,-0.3179 4.35,-0.3179 6,0 1.65,0.3177 0.3,0.5777 -3,0.5777 -3.3,0 -4.65,-0.26 -3,-0.5777 z m 261.6667,-138.2298 c 0,-0.2768 1.05,-1.3268 2.3333,-2.3333 2.1148,-1.6584 2.1619,-1.6113 0.5035,0.5035 -1.7419,2.2209 -2.8368,2.9273 -2.8368,1.8298 z M 2712.6667,2152 c 1.3274,-1.4667 2.7134,-2.6667 3.08,-2.6667 0.3667,0 -0.4193,1.2 -1.7466,2.6667 -1.3274,1.4667 -2.7134,2.6667 -3.08,2.6667 -0.3667,0 0.4193,-1.2 1.7466,-2.6667 z m -2,-4.5035 c 0,-0.2768 1.05,-1.3268 2.3334,-2.3333 2.1148,-1.6584 2.1618,-1.6113 0.5034,0.5035 -1.7418,2.2209 -2.8368,2.9273 -2.8368,1.8298 z m 57.3334,-50.6666 c 0,-0.2768 1.05,-1.3268 2.3333,-2.3334 2.1148,-1.6584 2.1619,-1.6113 0.5035,0.5035 -1.7419,2.2209 -2.8368,2.9273 -2.8368,1.8299 z m 13.3333,-14.6667 c 0,-0.2768 1.05,-1.3268 2.3333,-2.3333 2.1148,-1.6584 2.1619,-1.6114 0.5035,0.5034 -1.7419,2.221 -2.8368,2.9274 -2.8368,1.8299 z m 1091.75,-25.7407 c 0.9626,-0.3852 2.1126,-0.3378 2.5556,0.1054 0.4431,0.443 -0.3445,0.7582 -1.75,0.7004 -1.5533,-0.064 -1.8692,-0.38 -0.8056,-0.8056 z m -210.75,-3.9722 c 0.9167,-0.3699 2.4167,-0.3699 3.3334,0 0.9166,0.3698 0.1666,0.6725 -1.6667,0.6725 -1.8333,0 -2.5833,-0.3027 -1.6667,-0.6725 z m 164,0 c 0.9167,-0.3699 2.4167,-0.3699 3.3334,0 0.9166,0.3698 0.1666,0.6725 -1.6667,0.6725 -1.8333,0 -2.5833,-0.3027 -1.6667,-0.6725 z m -137.9746,-1.3743 c 1.2973,-0.338 3.0973,-0.3159 4,0.049 0.9028,0.3652 -0.1587,0.6418 -2.3587,0.6147 -2.2,-0.027 -2.9385,-0.326 -1.6413,-0.6641 z m 116.6413,0.041 c 0.9167,-0.3698 2.4167,-0.3698 3.3333,0 0.9167,0.3699 0.1667,0.6726 -1.6666,0.6726 -1.8334,0 -2.5834,-0.3027 -1.6667,-0.6726 z m -67.3333,-1.4413 c 5.6833,-0.25 14.9833,-0.25 20.6666,0 5.6834,0.2499 1.0334,0.4544 -10.3333,0.4544 -11.3667,0 -16.0167,-0.2045 -10.3333,-0.4544 z m 100.75,-1.2531 c 0.9625,-0.3852 2.1125,-0.3378 2.5556,0.1054 0.443,0.443 -0.3446,0.7582 -1.75,0.7004 -1.5534,-0.064 -1.8692,-0.38 -0.8056,-0.8056 z m -164,-1.3333 c 0.9625,-0.3852 2.1125,-0.3379 2.5556,0.1053 0.443,0.4431 -0.3446,0.7583 -1.75,0.7004 -1.5534,-0.064 -1.8692,-0.38 -0.8056,-0.8056 z m 144,0 c 0.9625,-0.3852 2.1125,-0.3379 2.5556,0.1053 0.443,0.4431 -0.3446,0.7583 -1.75,0.7004 -1.5534,-0.064 -1.8692,-0.38 -0.8056,-0.8056 z m -28.7247,-1.3465 c 1.2973,-0.338 3.0973,-0.3159 4,0.049 0.9028,0.3652 -0.1587,0.6417 -2.3587,0.6147 -2.2,-0.027 -2.9385,-0.326 -1.6413,-0.6642 z M 3454.772,1645.8893 c 0.064,-1.5533 0.38,-1.8692 0.8056,-0.8056 0.3852,0.9626 0.3378,2.1126 -0.1054,2.5556 -0.443,0.4431 -0.7582,-0.3445 -0.7004,-1.75 z m 1.488,-19.8889 c 0.027,-2.2 0.326,-2.9385 0.6641,-1.6413 0.338,1.2973 0.3159,3.0973 -0.049,4 -0.3652,0.9028 -0.6418,-0.1587 -0.6147,-2.3587 z m 5.1786,-13.4444 c 0.064,-1.5533 0.38,-1.8692 0.8056,-0.8056 0.3852,0.9625 0.3379,2.1125 -0.1053,2.5556 -0.4431,0.4431 -0.7583,-0.3445 -0.7004,-1.75 z m -3.579,-39.8889 c 0,-10.2667 0.2113,-14.2904 0.465,-8.9416 0.2538,5.3486 0.252,13.7486 0,18.6666 -0.2558,4.9179 -0.4634,0.5416 -0.4613,-9.725 z m 3.579,-41.4444 c 0.064,-1.5534 0.38,-1.8692 0.8056,-0.8056 0.3852,0.9625 0.3379,2.1125 -0.1053,2.5556 -0.4431,0.443 -0.7583,-0.3446 -0.7004,-1.75 z m -5.1022,-15.889 c 0.015,-2.9333 0.2878,-3.9764 0.6068,-2.3177 0.3189,1.6585 0.3068,4.0585 -0.027,5.3333 -0.3337,1.2747 -0.5947,-0.083 -0.5799,-3.0156 z m 3.7689,-18.7777 c 0.064,-1.5533 0.38,-1.8692 0.8056,-0.8056 0.3852,0.9625 0.3379,2.1125 -0.1053,2.5556 -0.4431,0.4431 -0.7583,-0.3445 -0.7004,-1.75 z M 3006.8773,1468 c 0,-1.8333 0.3026,-2.5833 0.6725,-1.6667 0.3699,0.9167 0.3699,2.4167 0,3.3334 -0.3699,0.9166 -0.6725,0.1666 -0.6725,-1.6667 z m 0,-29.3333 c 0,-1.8334 0.3026,-2.5834 0.6725,-1.6667 0.3699,0.9167 0.3699,2.4167 0,3.3333 -0.3699,0.9167 -0.6725,0.1667 -0.6725,-1.6666 z M 3291.83,1092.3333 c -1.6584,-2.1147 -1.6114,-2.1619 0.5034,-0.5034 2.221,1.7418 2.9274,2.8368 1.8299,2.8368 -0.2768,0 -1.3268,-1.05 -2.3333,-2.3334 z m -35.1883,-38 -13.3083,-13.6666 13.6667,13.3083 c 7.5167,7.3196 13.6667,13.4696 13.6667,13.6667 0,0.9644 -1.6642,-0.6147 -14.0251,-13.3084 z m 13.8549,7.3334 c -1.6584,-2.1148 -1.6113,-2.1619 0.5035,-0.5034 2.2209,1.7418 2.9273,2.8367 1.8299,2.8367 -0.2768,0 -1.3268,-1.05 -2.3334,-2.3333 z m -24,-24 c -1.6584,-2.1148 -1.6113,-2.1619 0.5035,-0.5034 2.2209,1.7418 2.9273,2.8367 1.8299,2.8367 -0.2768,0 -1.3268,-1.05 -2.3334,-2.3333 z m -409.058,-6.4445 c 0.064,-1.5532 0.38,-1.8692 0.8056,-0.8055 0.3852,0.9625 0.3379,2.1125 -0.1053,2.5555 -0.4431,0.4431 -0.7583,-0.3444 -0.7004,-1.75 z M 3223.83,1023 c -1.6584,-2.1147 -1.6114,-2.1619 0.5034,-0.5034 2.221,1.7418 2.9274,2.8367 1.8299,2.8367 -0.2768,0 -1.3268,-1.05 -2.3333,-2.3333 z m -382.2861,-4.3333 c 0,-1.8334 0.3027,-2.5834 0.6726,-1.6667 0.3698,0.9167 0.3698,2.4167 0,3.3333 -0.3699,0.9167 -0.6726,0.1667 -0.6726,-1.6666 z m 370.2861,-6.3334 c -1.6584,-2.1147 -1.6114,-2.1619 0.5034,-0.5034 1.2834,1.0065 2.3334,2.0565 2.3334,2.3334 0,1.0973 -1.095,0.391 -2.8368,-1.83 z m -370.097,-9.6666 c 0,-4.03337 0.2499,-5.68337 0.5555,-3.6667 0.3054,2.0167 0.3054,5.3167 0,7.3333 -0.3056,2.0167 -0.5555,0.3667 -0.5555,-3.6666 z m 1.0389,-18.11114 c 0.064,-1.55327 0.38,-1.8692 0.8056,-0.80556 0.3852,0.96249 0.3379,2.11251 -0.1053,2.55556 -0.4431,0.44305 -0.7583,-0.34445 -0.7004,-1.75 z m 227.7247,-78.88889 c -1.6584,-2.11475 -1.6113,-2.16191 0.5035,-0.50342 2.2209,1.74183 2.9273,2.83675 1.8298,2.83675 -0.2768,0 -1.3268,-1.05 -2.3333,-2.33333 z m -189.1632,-15.50342 c 0,-0.27686 1.05,-1.32686 2.3333,-2.33333 2.1148,-1.65849 2.1619,-1.61133 0.5035,0.50341 -1.7419,2.221 -2.8368,2.92731 -2.8368,1.82992 z m 58.3572,-29.79622 c 2.3965,-0.29675 5.9965,-0.29063 8,0.0136 2.0036,0.30424 0.043,0.54702 -4.3572,0.53954 -4.4,-0.008 -6.0392,-0.2564 -3.6428,-0.55314 z"
         id="path192" />
      <path
         style="fill:#050403;stroke-width:1.33333"
         d="m 3274.0001,3679.1679 c -107.5117,-2.881 -223.9031,-16.6319 -383.3334,-45.2888 -22.3666,-4.0203 -43.0666,-7.5731 -46,-7.8951 -16.4676,-1.8075 -120.8598,-23.484 -160.6666,-33.3616 -103.6411,-25.7171 -163.4408,-49.4763 -390.6667,-155.2169 -64.6984,-30.1078 -63.0667,-29.2675 -61.5617,-31.7027 0.704,-1.1391 20.2346,7.354 66.9445,29.1112 269.8625,125.7007 339.72,150.0815 522.6172,182.3969 8.4333,1.4902 35.7333,6.314 60.6667,10.7196 151.2573,26.7271 234.9503,37.7 338,44.315 37.0116,2.3757 179.9837,2.3704 218.6667,-0.013 234.9717,-14.4486 404.9648,-53.2406 756.6666,-172.6697 83.6356,-28.4005 169.9189,-78.1808 205.7561,-118.7089 65.3666,-73.9232 50.8257,-203.2384 -27.0894,-240.9107 -20.7322,-10.0241 -77.1755,-21.4148 -94,-18.97 -1.1,0.1599 -5.6,0.8785 -10,1.5969 -10.5423,1.7215 -70.5271,8.7672 -96.6667,11.3544 -101.833,10.079 -142.2029,9.7928 -364,-2.5798 -74.1872,-4.1386 -76,-4.305 -76,-6.9794 0,-1.8073 1.7286,-1.9689 13,-1.2154 28.2171,1.8862 181.7136,10.1654 215.4466,11.6206 46.1684,1.9916 145.3606,0.8819 175.5534,-1.9641 119.3324,-11.2483 142.7972,-15.2112 205.6982,-34.7397 96.2268,-29.8752 145.5852,-71.5178 174.7164,-147.4047 31.3348,-81.6271 20.0196,-147.1481 -31.4856,-182.3173 -24.5523,-16.7651 -83.08,-41.7155 -93.416,-39.8234 -6.1004,1.1168 -95.426,10.9047 -128.8463,14.1184 -130.3855,12.538 -227.1335,13.0687 -494,2.7091 -50.4927,-1.9601 -56.6667,-2.5049 -56.6667,-5.0004 0,-1.8164 2.196,-1.9656 17.6667,-1.1996 236.8365,11.7249 400.4571,11.5461 528.3333,-0.5773 101.3921,-9.6126 126.8138,-13.3502 143.381,-21.0808 6.2072,-2.8964 17.2857,-7.3575 24.6191,-9.9136 113.8969,-39.7002 150.5401,-85.0847 134.0458,-166.0235 -14.0268,-68.8303 -55.6856,-109.7329 -124.0458,-121.794 -24.0123,-4.2365 -113.2404,-1.1829 -142.0001,4.8597 -5.1333,1.0786 -24.0333,3.2164 -42,4.7507 -17.9666,1.5344 -42.2666,3.6343 -54,4.6664 -81.2841,7.1499 -160.7852,10.1397 -321.6666,12.0973 -66.807,0.813 -75,0.69 -75,-1.126 0,-2.2216 17.6828,-2.7785 138.6666,-4.3678 156.5168,-2.056 326.3903,-13.0142 362.606,-23.3908 55.1815,-15.8107 76.7274,-42.9335 76.7274,-96.5871 0,-30.5521 -4.5947,-47.5931 -18.2565,-67.7111 -8.747,-12.8804 -33.6819,-35.4385 -40.2356,-36.4005 -1.091,-0.1601 -17.935,-9.0628 -37.4311,-19.7839 -167.2872,-91.9922 -270.2691,-126.5381 -421.4102,-141.364 -154.4797,-15.1534 -282.4969,-2.578 -498.6666,48.9856 -22.7334,5.4227 -43.2958,9.9631 -45.6943,10.0899 l -4.3609,0.2305 1.8942,-4.3565 c 1.0419,-2.3961 7.0928,-15.4149 13.4467,-28.9305 93.0715,-197.9798 133.1576,-371.3591 127.3384,-550.7595 l -1.4489,-44.6667 -7.3282,-34 c -44.4172,-206.0758 -87.4536,-294.7298 -194.5008,-400.6616 -127.9217,-126.58878 -269.4571,-206.80515 -332.0129,-188.17122 -50.3479,14.99744 -86.2911,89.85393 -79.4091,165.37972 3.374,37.0272 14.1743,82.6506 21.5748,91.1382 52.8036,60.5597 73.6204,92.9463 99.0883,154.161 34.0932,81.9466 53.3521,177.1759 41.9152,207.2573 -0.6874,1.808 -1.552,6.6505 -1.9214,10.7612 -0.9324,10.3761 -11.8992,87.6105 -16.6805,117.4738 -24.8953,155.489 -54.8719,251.1808 -105.8824,338 -105.6296,179.7803 -312.128,348.3402 -438.5655,357.991 -26.198,1.9996 -72.7861,-2.4863 -72.7861,-7.0084 0,-2.0314 0.6607,-2.4424 3,-1.8668 22.0776,5.4325 74.3375,5.9906 95.9501,1.0248 103.4974,-23.7806 259.0042,-144.2168 358.8852,-277.9482 86.4798,-115.7881 127.0088,-225.676 157.435,-426.859 19.7754,-130.7595 21.2528,-151.534 13.6064,-191.3334 -10.0543,-52.3312 -36.1718,-126.4485 -60.994,-173.0917 -18.8214,-35.3669 -33.0688,-55.126 -74.8547,-103.8124 -6.8729,-8.0079 -7.2089,-8.7879 -12.0624,-28 -19.4659,-77.0549 -17.0888,-127.13903 8.4748,-178.55851 28.7979,-57.92518 69.4136,-73.93934 133.3747,-52.5875 24.9872,8.34138 77.1633,31.76014 83.1464,37.31952 1.4878,1.38248 12.8077,9.20961 25.1553,17.39364 67.8015,44.93918 142.0955,108.71355 190.3099,163.36275 85.1532,96.5181 120.3865,176.2603 161.9964,366.6409 8.4979,38.8805 8.0153,33.7951 9.2977,98 1.9584,98.0417 -6.3065,167.568 -32.2242,271.0803 -22.7746,90.9584 -49.3843,164.7458 -94.0327,260.7477 -7.2888,15.6721 -12.9671,28.7799 -12.6185,29.1284 0.3485,0.3485 20.9258,-4.1955 45.7274,-10.0976 177.7386,-42.2976 275.0182,-55.3 397.0939,-53.0757 187.9997,3.4254 338.7048,43.9194 496.3396,133.3646 5.9957,3.4022 11.6116,6.1856 12.4797,6.1856 6.577,0 57.0818,30.1775 71.1533,42.5154 29.6818,26.0249 44.127,64.8929 39.4765,106.2209 -4.3735,38.8675 -18.0396,59.4325 -50.7824,76.4181 l -11.3333,5.8794 8.6666,-0.815 c 124.1896,-11.6762 183.2266,9.9144 218.3916,79.8691 19.3311,38.4556 24.006,89.2469 11.2296,122.0041 -15.2158,39.0115 -51.5801,65.5543 -126.087,92.0327 -16.9216,6.0136 -34.2122,13.3239 -34.1772,14.4496 0.013,0.4175 8.2629,3.6863 18.3333,7.2639 110.4543,39.2406 141.9633,99.8166 107.4511,206.5737 -30.1283,93.1961 -85.1438,138.236 -211.0567,172.7871 l -23.2487,6.3794 14.582,1.6143 c 42.4115,4.6948 71.8666,14.9049 92.0807,31.918 45.7948,38.5431 60.8317,125.7113 32.8515,190.438 -22.6083,52.2995 -74.9898,92.6145 -189.0169,145.4759 -36.5966,16.9656 -259.8674,88.6429 -368,118.1401 -201.855,55.0635 -402.6293,79.9944 -601.3333,74.6699 z"
         id="path190" />
    </g>
  </g>
</svg>
