<?xml version="1.0" encoding="UTF-8" standalone="no"?>
<!-- Created with Inkscape (http://www.inkscape.org/) -->

<svg
   version="1.1"
   id="svg2"
   width="100"
   height="100"
   viewBox="0 0 2968 2966.6667"
   sodipodi:docname="20220825_000238_with_color.svg"
   inkscape:version="1.2.1 (9c6d41e410, 2022-07-14)"
   xmlns:inkscape="http://www.inkscape.org/namespaces/inkscape"
   xmlns:sodipodi="http://sodipodi.sourceforge.net/DTD/sodipodi-0.dtd"
   xmlns="http://www.w3.org/2000/svg"
   xmlns:svg="http://www.w3.org/2000/svg">
  <defs
     id="defs6" />
  <sodipodi:namedview
     id="namedview4"
     pagecolor="#505050"
     bordercolor="#000000"
     borderopacity="1"
     inkscape:showpageshadow="0"
     inkscape:pageopacity="0"
     inkscape:pagecheckerboard="1"
     inkscape:deskcolor="#505050"
     showgrid="false"
     inkscape:zoom="0.27438201"
     inkscape:cx="1485.1557"
     inkscape:cy="2068.2843"
     inkscape:window-width="1920"
     inkscape:window-height="1001"
     inkscape:window-x="-9"
     inkscape:window-y="-9"
     inkscape:window-maximized="1"
     inkscape:current-layer="g8" />
  <g
     inkscape:groupmode="layer"
     inkscape:label="Image"
     id="g8">
    <g
       id="g188"
       transform="translate(-21.867305,-14.578212)">
      <path
         style="fill:#fdbe99;stroke-width:1.33333"
         d="m 1430,2891.0595 c -45.5412,-0.9484 -123.3724,-6.6197 -178.6667,-13.0188 -104.579,-12.1027 -304.65199,-46.9639 -401.99997,-70.0453 C 740.06277,2782.0868 680.56663,2758.8115 454,2653.3374 c -38.13333,-17.7524 -70.15076,-32.4107 -71.14985,-32.574 -3.65724,-0.598 -4.0237,-2.3486 -10.20806,-48.7634 -1.12365,-8.4333 -2.58969,-18.3333 -3.25784,-22 -3.93249,-21.5806 -8.86398,-90.5874 -7.57517,-106 0.90307,-10.7996 143.93428,-891.825 146.87829,-904.7222 1.17875,-5.1639 3.49231,-11.7639 5.14124,-14.6667 l 2.99807,-5.2777 3.92,0.1988 c 2.15599,0.1093 12.01999,1.1586 21.91999,2.3317 20.03037,2.3735 47.54346,2.7191 62.4448,0.7841 41.49556,-5.3877 92.69176,-28.5026 152.88853,-69.0287 53.62016,-36.0985 96.13927,-71.567 142.0208,-118.4709 82.43011,-84.2667 139.71,-168.9156 176.2196,-260.4193 31.2885,-78.41817 53.7602,-178.87377 73.6851,-329.39576 2.6695,-20.16667 5.8037,-40.72336 6.965,-45.68155 3.3198,-14.17464 1.87,-57.08448 -2.7589,-81.65178 -10.6164,-56.34572 -39.3322,-135.8236 -66.6028,-184.33886 -16.6214,-29.57017 -38.8517,-59.98771 -65.8645,-90.12211 l -10.5726,-11.79428 -5.5502,-22.20572 c -9.38414,-37.54498 -11.22493,-50.62941 -11.37749,-80.87237 -0.1485,-29.43637 1.33834,-40.36173 8.60659,-63.24224 10.3724,-32.65217 27.2166,-58.5266 47.5433,-73.031446 25.5973,-18.265821 56.7558,-18.114124 105.6861,0.514538 17.487,6.65763 62.4298,27.749498 65.8556,30.906358 1.5461,1.42473 13.6111,9.75171 26.8111,18.50439 87.5569,58.05749 170.8654,134.32779 223.9337,205.01507 59.7555,79.59453 89.4581,155.61365 125.4552,321.08152 l 7.1968,33.08151 1.5504,38.91849 c 4.2637,107.02774 -4.402,187.02068 -32.2033,297.26884 -23.9235,94.8709 -52.0326,170.9972 -102.3483,277.1855 l -7.9932,16.8692 4.5308,0.5289 c 2.492,0.291 12.484,-1.372 22.2044,-3.6954 66.686,-15.9398 88.9363,-21.1054 113.6735,-26.3906 119.049,-25.4352 213.7649,-35.6914 311.3333,-33.7125 74.9637,1.5205 131.7871,7.0758 194.6667,19.0316 106.4324,20.2368 190.4318,53.4497 330,130.4804 16.8666,9.3091 31.7177,17.1375 33.0024,17.3963 6.3852,1.2868 30.2473,22.8737 38.4282,34.7644 18.0946,26.2995 24.4218,68.9271 15.0875,101.6461 -7.868,27.5794 -27.4123,46.2886 -60.7096,58.1154 -20.0073,7.1064 -29.41,8.5578 -87.1419,13.4516 -120.1709,10.1865 -172.2117,12.3313 -358.3333,14.7685 l -67.6667,0.886 v 3.1621 3.1622 l 8.3334,-0.013 c 73.984,-0.076 245.4725,-3.947 297.6666,-6.7194 54.3096,-2.8848 180.5492,-13.5914 188,-15.9447 5.3676,-1.6952 39.6775,-4.9785 70,-6.6985 64.224,-3.6431 108.7179,5.746 139.3334,29.4021 26.4696,20.4527 46.6104,55.1945 54.8625,94.6357 3.1363,14.9903 3.1619,44.6835 0.051,58.6198 -5.9191,26.511 -22.3408,48.7961 -49.1926,66.757 -20.5085,13.718 -44.8905,24.8087 -87.7204,39.9019 -9.9,3.4888 -21.7218,8.2227 -26.2708,10.5199 -9.8922,4.9956 -19.0989,6.5934 -69.7292,12.1021 -76.2229,8.2933 -122.469,12.1344 -178.6666,14.8396 -54.0511,2.6019 -192.3999,1.5964 -286,-2.0787 -10.2667,-0.403 -42.3667,-1.6038 -71.3334,-2.6684 -28.9666,-1.0645 -58.5166,-2.2966 -65.6666,-2.7378 l -13,-0.8024 v 3.4402 c 0,1.892 0.726,3.4402 1.6134,3.4402 0.8874,0 31.3374,1.1924 67.6667,2.6497 36.3292,1.4573 82.8532,3.2919 103.3865,4.0765 60.2347,2.3019 216.4191,3.1554 256,1.3988 37.1264,-1.6474 75.8703,-4.2652 111.3334,-7.5222 32.4112,-2.9768 119.2585,-12.2704 129.6914,-13.8786 13.8604,-2.1362 15.0071,-1.9346 37.6887,6.6268 59.8927,22.6071 89.1256,43.8708 103.3051,75.1428 19.723,43.4983 9.6374,114.897 -24.6482,174.4919 -27.4,47.6265 -68.5529,79.4427 -132.037,102.0805 -19.2918,6.8794 -50.9247,16.217 -75.3334,22.2376 -7.7,1.8992 -15.5,4.0248 -17.3333,4.7234 -6.8544,2.612 -109.9037,13.8446 -160.6667,17.513 -28.5328,2.062 -118.8558,2.027 -162,-0.063 -52.6161,-2.5486 -199.8605,-10.6863 -209.6666,-11.5876 l -9,-0.8272 v 3.4686 c 0,1.9078 0.75,3.4703 1.6666,3.4722 0.9167,0 27.1667,1.4877 58.3334,3.3018 165.5061,9.6338 230.1656,11.8864 286.1833,9.9707 18.9581,-0.6484 38.3725,-1.5124 43.1429,-1.92 55.9414,-4.7797 114.02,-11.0039 140.0071,-15.0041 16.4529,-2.5327 28.1299,-2.4468 50,0.3676 45.6712,5.8773 72.7783,17.2309 92.4835,38.7357 30.293,33.0596 43.4364,93.7236 31.6224,145.9564 -13.8416,61.1971 -56.1991,102.9595 -154.036,151.8715 -50.624,25.3088 -60.2212,28.9402 -183.4032,69.3962 -232.4316,76.3364 -372.1404,110.2568 -532.2826,129.235 -96.4216,11.4266 -188.9545,15.8686 -287.7174,13.8118 z"
         id="path202" />
      <path
         style="fill:#a4a3a1;stroke-width:1.33333"
         d="m 1415.0183,2896.3766 c 2.0268,-0.3064 5.0268,-0.2983 6.6666,0.019 1.64,0.3164 -0.019,0.5672 -3.6849,0.5572 -3.6667,-0.013 -5.0084,-0.2689 -2.9817,-0.5754 z m 122.6666,0 c 2.0268,-0.3064 5.0268,-0.2983 6.6667,0.019 1.64,0.3164 -0.019,0.5672 -3.6849,0.5572 -3.6667,-0.013 -5.0084,-0.2689 -2.9818,-0.5754 z m -155.9929,-1.3006 c 1.2973,-0.338 3.0973,-0.3158 4,0.049 0.9028,0.3652 -0.1587,0.6417 -2.3587,0.6146 -2.2,-0.027 -2.9385,-0.326 -1.6413,-0.6641 z m 193.3333,0 c 1.2974,-0.338 3.0974,-0.3158 4,0.049 0.9028,0.3652 -0.1586,0.6417 -2.3586,0.6146 -2.2,-0.027 -2.9386,-0.326 -1.6414,-0.6641 z m -215.3586,-1.2924 c 0.9166,-0.3698 2.4166,-0.3698 3.3333,0 0.9167,0.3699 0.1667,0.6726 -1.6667,0.6726 -1.8333,0 -2.5833,-0.3027 -1.6666,-0.6726 z m 237.3333,0 c 0.9167,-0.3698 2.4167,-0.3698 3.3333,0 0.9167,0.3699 0.1667,0.6726 -1.6666,0.6726 -1.8334,0 -2.5834,-0.3027 -1.6667,-0.6726 z m -258.5833,-1.361 c 0.9625,-0.3852 2.1125,-0.3379 2.5556,0.1053 0.443,0.4431 -0.3446,0.7583 -1.75,0.7004 -1.5534,-0.064 -1.8692,-0.38 -0.8056,-0.8056 z m 281.25,0.028 c 0.9166,-0.3699 2.4166,-0.3699 3.3333,0 0.9167,0.3698 0.1667,0.6725 -1.6667,0.6725 -1.8333,0 -2.5833,-0.3027 -1.6666,-0.6725 z m -297.25,-1.3611 c 0.9625,-0.3852 2.1125,-0.3379 2.5555,0.1053 0.4431,0.4431 -0.3444,0.7583 -1.75,0.7004 -1.5532,-0.064 -1.8692,-0.38 -0.8055,-0.8056 z m 314.6666,0 c 0.9626,-0.3852 2.1126,-0.3379 2.5556,0.1053 0.4431,0.4431 -0.3445,0.7583 -1.75,0.7004 -1.5533,-0.064 -1.8692,-0.38 -0.8056,-0.8056 z m -329.3333,-1.3333 c 0.9625,-0.3852 2.1125,-0.3379 2.5556,0.1053 0.443,0.4431 -0.3445,0.7583 -1.75,0.7004 -1.5533,-0.064 -1.8692,-0.38 -0.8056,-0.8056 z m 343.9167,0.028 c 0.9166,-0.3699 2.4166,-0.3699 3.3333,0 0.9167,0.3698 0.1667,0.6725 -1.6667,0.6725 -1.8333,0 -2.5833,-0.3027 -1.6666,-0.6725 z m 16.0833,-1.3611 c 0.9625,-0.3852 2.1125,-0.3379 2.5556,0.1053 0.4431,0.4431 -0.3445,0.7583 -1.75,0.7004 -1.5533,-0.064 -1.8692,-0.38 -0.8056,-0.8056 z m 14.6667,-1.3333 c 0.9625,-0.3852 2.1125,-0.3379 2.5556,0.1053 0.443,0.4431 -0.3446,0.7583 -1.75,0.7004 -1.5534,-0.064 -1.8692,-0.38 -0.8056,-0.8056 z m 34.6666,-4 c 0.9626,-0.3852 2.1126,-0.3379 2.5556,0.1053 0.4431,0.4431 -0.3445,0.7583 -1.75,0.7004 -1.5533,-0.064 -1.8692,-0.38 -0.8056,-0.8056 z M 2536,2620.8299 c 0,-0.2768 1.05,-1.3268 2.3333,-2.3333 l 2.3334,-1.8299 -1.8299,2.3333 c -1.7419,2.221 -2.8368,2.9274 -2.8368,1.8299 z m 18.6667,-18.6667 c 0,-0.2768 1.05,-1.3268 2.3333,-2.3333 l 2.3333,-1.8299 -1.8298,2.3334 c -1.7419,2.2209 -2.8368,2.9273 -2.8368,1.8298 z m 41.4385,-93.6076 c 0.064,-1.5533 0.38,-1.8692 0.8056,-0.8056 0.3852,0.9626 0.3379,2.1126 -0.1053,2.5556 -0.4431,0.4431 -0.7583,-0.3445 -0.7004,-1.75 z m 1.5913,-21.8889 c 0,-3.3 0.26,-4.65 0.5778,-3 0.3178,1.65 0.3178,4.35 0,6 -0.3178,1.65 -0.5778,0.3 -0.5778,-3 z m -1.5913,-22.1111 c 0.064,-1.5533 0.38,-1.8692 0.8056,-0.8056 0.3852,0.9626 0.3379,2.1126 -0.1053,2.5556 -0.4431,0.4431 -0.7583,-0.3445 -0.7004,-1.75 z m -38.8436,-90.8889 -4.5949,-5 5,4.5949 c 4.6538,4.2768 5.613,5.4051 4.5949,5.4051 -0.2228,0 -2.4728,-2.25 -5,-5 z m -98.8449,-38.5775 c 0.9625,-0.3852 2.1125,-0.3378 2.5556,0.1054 0.443,0.443 -0.3446,0.7582 -1.75,0.7004 -1.5534,-0.064 -1.8692,-0.38 -0.8056,-0.8056 z M 2612,2260.8299 c 0,-0.2768 1.05,-1.3268 2.3333,-2.3333 l 2.3334,-1.8299 -1.8299,2.3333 c -1.7419,2.221 -2.8368,2.9274 -2.8368,1.8299 z m 14.6667,-14.6667 c 0,-0.2768 1.05,-1.3268 2.3333,-2.3333 l 2.3333,-1.8299 -1.8298,2.3334 c -1.7419,2.2209 -2.8368,2.9273 -2.8368,1.8298 z m 62.7718,-181.6076 c 0.064,-1.5533 0.38,-1.8692 0.8056,-0.8056 0.3852,0.9626 0.3379,2.1126 -0.1053,2.5556 -0.4431,0.4431 -0.7583,-0.3445 -0.7004,-1.75 z m -38.942,-74.8889 -1.8298,-2.3333 2.3333,1.8298 c 1.2833,1.0066 2.3333,2.0566 2.3333,2.3334 0,1.0974 -1.0949,0.391 -2.8368,-1.8299 z M 2720.2105,1792 c 0,-1.8333 0.3027,-2.5833 0.6726,-1.6666 0.3698,0.9166 0.3698,2.4166 0,3.3333 -0.3699,0.9167 -0.6726,0.1667 -0.6726,-1.6667 z m -1.4386,-20.7777 c 0.064,-1.5533 0.38,-1.8692 0.8056,-0.8056 0.3852,0.9625 0.3378,2.1125 -0.1054,2.5556 -0.443,0.4431 -0.7582,-0.3445 -0.7004,-1.75 z M 2682.4965,1683 l -1.8298,-2.3333 2.3333,1.8299 c 2.2209,1.7418 2.9273,2.8368 1.8299,2.8368 -0.2768,0 -1.3268,-1.05 -2.3334,-2.3334 z m -11.226,-12.6666 -5.2705,-5.6667 5.6667,5.2705 c 5.27,4.9016 6.2793,6.0628 5.2705,6.0628 -0.2177,0 -2.7677,-2.55 -5.6667,-5.6666 z M 2476,1632.8094 c 0,-1.2648 3.9912,-1.9023 4.7027,-0.7511 0.4334,0.7013 -0.4474,1.2751 -1.9574,1.2751 -1.5098,0 -2.7453,-0.2359 -2.7453,-0.524 z m 17.0833,-1.7202 c 0.9626,-0.3852 2.1126,-0.3378 2.5556,0.1054 0.4431,0.443 -0.3445,0.7582 -1.75,0.7004 -1.5533,-0.064 -1.8692,-0.38 -0.8056,-0.8056 z m 19.2754,-1.3465 c 1.2973,-0.338 3.0973,-0.3159 4,0.049 0.9028,0.3652 -0.1587,0.6418 -2.3587,0.6147 -2.2,-0.027 -2.9385,-0.326 -1.6413,-0.6641 z m 55.308,0.041 c 0.9166,-0.3698 2.4166,-0.3698 3.3333,0 0.9167,0.3699 0.1667,0.6726 -1.6667,0.6726 -1.8333,0 -2.5833,-0.3027 -1.6666,-0.6726 z m -2001.33337,-112 c 0.91667,-0.3698 2.41667,-0.3698 3.33334,0 0.91666,0.3699 0.16666,0.6726 -1.66667,0.6726 -1.83333,0 -2.58333,-0.3027 -1.66667,-0.6726 z M 585,1517.7267 c 1.65,-0.3179 4.35,-0.3179 6,0 1.65,0.3177 0.3,0.5777 -3,0.5777 -3.3,0 -4.65,-0.26 -3,-0.5777 z m 267,-144.8968 c 0,-0.2768 1.05,-1.3268 2.33333,-2.3334 l 2.33334,-1.8298 -1.82992,2.3333 c -1.74183,2.2209 -2.83675,2.9273 -2.83675,1.8299 z m 24.66667,-23.4966 c 2.86432,-2.9333 5.50786,-5.3333 5.87453,-5.3333 0.36667,0 -1.67688,2.4 -4.5412,5.3333 -2.86432,2.9334 -5.50787,5.3334 -5.87453,5.3334 -0.36667,0 1.67688,-2.4 4.5412,-5.3334 z m 24,-24 c 3.61153,-3.6666 6.86642,-6.6666 7.23309,-6.6666 0.36667,0 -2.28823,3 -5.89976,6.6666 -3.61153,3.6667 -6.86643,6.6667 -7.23309,6.6667 -0.36667,0 2.28822,-3 5.89976,-6.6667 z M 932,1291.4966 c 0,-0.2769 1.05,-1.3269 2.33333,-2.3333 l 2.33334,-1.83 -1.82992,2.3334 c -1.74183,2.221 -2.83675,2.9273 -2.83675,1.8299 z m 837.0833,-23.0741 c 0.9626,-0.3851 2.1126,-0.3378 2.5556,0.1052 0.4431,0.4431 -0.3445,0.7582 -1.75,0.7003 -1.5533,-0.064 -1.8692,-0.3799 -0.8056,-0.8055 z m 254.6667,0 c 0.9625,-0.3851 2.1125,-0.3378 2.5556,0.1052 0.4431,0.4431 -0.3445,0.7582 -1.75,0.7003 -1.5533,-0.064 -1.8692,-0.3799 -0.8056,-0.8055 z m -240,-1.3333 c 0.9625,-0.3852 2.1125,-0.3378 2.5556,0.1052 0.4431,0.4431 -0.3445,0.7582 -1.75,0.7003 -1.5533,-0.064 -1.8692,-0.3799 -0.8056,-0.8056 z m 226.6667,0 c 0.9625,-0.3852 2.1125,-0.3378 2.5556,0.1052 0.443,0.4431 -0.3446,0.7582 -1.75,0.7003 -1.5534,-0.064 -1.8692,-0.3799 -0.8056,-0.8056 z m -212,-1.3333 c 0.9625,-0.3852 2.1125,-0.3378 2.5556,0.1052 0.443,0.443 -0.3446,0.7582 -1.75,0.7003 -1.5534,-0.064 -1.8692,-0.38 -0.8056,-0.8056 z m 198.6666,0 c 0.9626,-0.3852 2.1126,-0.3378 2.5556,0.1052 0.4431,0.443 -0.3445,0.7582 -1.75,0.7003 -1.5533,-0.064 -1.8692,-0.38 -0.8056,-0.8056 z M 1813,1264.4503 c 0.9167,-0.3699 2.4167,-0.3699 3.3333,0 0.9167,0.3699 0.1667,0.6725 -1.6666,0.6725 -1.8334,0 -2.5834,-0.3026 -1.6667,-0.6725 z m 26.0253,-1.3743 c 1.2974,-0.338 3.0974,-0.3158 4,0.05 0.9028,0.3652 -0.1586,0.6418 -2.3586,0.6146 -2.2,-0.027 -2.9386,-0.326 -1.6414,-0.664 z m 116.6414,0.041 c 0.9166,-0.3699 2.4166,-0.3699 3.3333,0 0.9167,0.3698 0.1667,0.6725 -1.6667,0.6725 -1.8333,0 -2.5833,-0.3027 -1.6666,-0.6725 z m -67.3334,-1.4414 c 5.6834,-0.2499 14.9834,-0.2499 20.6667,0 5.6833,0.2499 1.0333,0.4544 -10.3333,0.4544 -11.3667,0 -16.0167,-0.2045 -10.3334,-0.4544 z M 1610.7719,863.22224 c 0.064,-1.55327 0.38,-1.8692 0.8056,-0.80556 0.3852,0.96249 0.3378,2.1125 -0.1054,2.55556 -0.443,0.44305 -0.7582,-0.34446 -0.7004,-1.75 z m 1.5374,-20.55556 c 0,-2.56667 0.2744,-3.61667 0.6098,-2.33334 0.3354,1.28334 0.3354,3.38334 0,4.66667 -0.3354,1.28333 -0.6098,0.23333 -0.6098,-2.33333 z m 1.5502,-52.66667 c 0,-10.26667 0.2113,-14.29041 0.465,-8.94167 0.2538,5.34875 0.252,13.74875 0,18.66667 -0.2558,4.91792 -0.4634,0.54167 -0.4613,-9.725 z m -1.5502,-56.66667 c 0,-2.56667 0.2744,-3.61667 0.6098,-2.33333 0.3354,1.28333 0.3354,3.38333 0,4.66666 -0.3354,1.28334 -0.6098,0.23334 -0.6098,-2.33333 z m -460.0494,-47.33333 c 0.027,-2.2 0.326,-2.93859 0.6641,-1.6413 0.338,1.2973 0.3158,3.0973 -0.05,4 -0.3652,0.90271 -0.6418,-0.1587 -0.6146,-2.3587 z m -0.049,-30 c 0,-1.83334 0.3026,-2.58334 0.6725,-1.66667 0.3699,0.91667 0.3699,2.41667 0,3.33333 -0.3699,0.91667 -0.6725,0.16667 -0.6725,-1.66666 z M 1027.8299,360.33334 1026,358 l 2.3333,1.82992 c 1.2834,1.00647 2.3334,2.05647 2.3334,2.33334 0,1.09738 -1.095,0.39108 -2.8368,-1.82992 z m -9.3333,-10.66667 -1.8299,-2.33333 2.3333,1.82992 c 2.221,1.74182 2.9273,2.83674 1.8299,2.83674 -0.2768,0 -1.3268,-1.05 -2.3333,-2.33333 z M 1451.8299,312.33334 1450,310 l 2.3333,1.82992 c 1.2834,1.00647 2.3334,2.05647 2.3334,2.33334 0,1.09738 -1.095,0.39108 -2.8368,-1.82992 z m -9.3334,-10.66667 -1.8298,-2.33333 2.3333,1.82992 c 1.2833,1.00646 2.3333,2.05646 2.3333,2.33333 0,1.09739 -1.0949,0.39108 -2.8368,-1.82992 z m -10.5974,-12 -3.2324,-3.66667 3.6666,3.23242 c 2.0167,1.77784 3.6667,3.42784 3.6667,3.66666 0,1.04571 -1.0797,0.19464 -4.1009,-3.23241 z M 1385.2324,243 1382,239.33334 l 3.6667,3.23241 c 2.0166,1.77784 3.6666,3.42784 3.6666,3.66667 0,1.0457 -1.0797,0.19464 -4.1009,-3.23242 z m -398.35521,-7 c 0,-1.83333 0.30264,-2.58333 0.67252,-1.66666 0.36988,0.91666 0.36988,2.41666 0,3.33333 -0.36988,0.91667 -0.67252,0.16667 -0.67252,-1.66667 z m 0.20264,-16.66666 c 0.008,-4.4 0.2564,-6.03926 0.55314,-3.64279 0.29675,2.39647 0.29063,5.99647 -0.0136,8 -0.30424,2.00353 -0.54702,0.0428 -0.53954,-4.35721 z M 1089,72.368806 c 2.3833,-0.295768 6.2833,-0.295768 8.6667,0 2.3833,0.295769 0.4333,0.537763 -4.3334,0.537763 -4.7666,0 -6.7166,-0.241994 -4.3333,-0.537763 z"
         id="path200" />
      <path
         style="fill:#be8f74;stroke-width:1.33333"
         d="m 1438.3333,2891.0591 c 1.65,-0.3179 4.35,-0.3179 6,0 1.65,0.3177 0.3,0.5777 -3,0.5777 -3.3,0 -4.65,-0.26 -3,-0.5777 z m 76,0 c 1.65,-0.3179 4.35,-0.3179 6,0 1.65,0.3177 0.3,0.5777 -3,0.5777 -3.3,0 -4.65,-0.26 -3,-0.5777 z m -120.6666,-1.3115 c 1.2833,-0.3354 3.3833,-0.3354 4.6666,0 1.2834,0.3354 0.2334,0.6098 -2.3333,0.6098 -2.5667,0 -3.6167,-0.2744 -2.3333,-0.6098 z m 167.3489,-0.024 c 1.6585,-0.3189 4.0585,-0.3068 5.3333,0.027 1.2747,0.3337 -0.083,0.5947 -3.0156,0.5799 -2.9333,-0.015 -3.9764,-0.2879 -2.3177,-0.6068 z m -190.6823,-1.2733 c 0.9167,-0.3699 2.4167,-0.3699 3.3334,0 0.9166,0.3699 0.1666,0.6725 -1.6667,0.6725 -1.8333,0 -2.5833,-0.3026 -1.6667,-0.6725 z m 216,0 c 0.9167,-0.3699 2.4167,-0.3699 3.3334,0 0.9166,0.3699 0.1666,0.6725 -1.6667,0.6725 -1.8333,0 -2.5833,-0.3026 -1.6667,-0.6725 z m -238.6666,-1.3333 c 0.9166,-0.3699 2.4166,-0.3699 3.3333,0 0.9167,0.3698 0.1667,0.6725 -1.6667,0.6725 -1.8333,0 -2.5833,-0.3027 -1.6666,-0.6725 z m 261.3333,0 c 0.9167,-0.3699 2.4167,-0.3699 3.3333,0 0.9167,0.3698 0.1667,0.6725 -1.6666,0.6725 -1.8334,0 -2.5834,-0.3027 -1.6667,-0.6725 z m -278.5833,-1.3611 c 0.9625,-0.3852 2.1125,-0.3379 2.5555,0.1053 0.4431,0.4431 -0.3444,0.7583 -1.75,0.7004 -1.5532,-0.064 -1.8692,-0.38 -0.8055,-0.8056 z m 314.6666,-1.3333 c 0.9626,-0.3852 2.1126,-0.3379 2.5556,0.1053 0.4431,0.4431 -0.3445,0.7583 -1.75,0.7004 -1.5533,-0.064 -1.8692,-0.38 -0.8056,-0.8056 z m -345.3333,-1.3334 c 0.9625,-0.3852 2.1125,-0.3378 2.5556,0.1054 0.443,0.443 -0.3445,0.7582 -1.75,0.7004 -1.5533,-0.064 -1.8692,-0.38 -0.8056,-0.8056 z m 1234.9167,-268.926 c 0,-0.2768 1.05,-1.3268 2.3333,-2.3333 l 2.3333,-1.8299 -1.8298,2.3334 c -1.7419,2.2209 -2.8368,2.9273 -2.8368,1.8298 z M 2548,2600.8299 c 0,-0.2768 1.05,-1.3268 2.3333,-2.3333 l 2.3334,-1.8299 -1.8299,2.3333 c -1.7419,2.221 -2.8368,2.9274 -2.8368,1.8299 z m -360.2887,-241.8144 c 3.8747,-0.2701 9.8747,-0.2673 13.3334,0 3.4588,0.2737 0.2886,0.4948 -7.0447,0.4913 -7.3333,0 -10.1632,-0.2274 -6.2887,-0.4976 z m -62.6957,-1.2919 c 1.6585,-0.3189 4.0585,-0.3068 5.3333,0.027 1.2747,0.3337 -0.083,0.5947 -3.0156,0.5799 -2.9333,-0.015 -3.9764,-0.2879 -2.3177,-0.6068 z m 121.3177,0.06 c 0.9167,-0.3698 2.4167,-0.3698 3.3334,0 0.9166,0.3699 0.1666,0.6726 -1.6667,0.6726 -1.8333,0 -2.5833,-0.3027 -1.6667,-0.6726 z m -153.9746,-1.3742 c 1.2973,-0.338 3.0973,-0.3159 4,0.049 0.9028,0.3652 -0.1587,0.6417 -2.3587,0.6147 -2.2,-0.027 -2.9385,-0.326 -1.6413,-0.6642 z m 176.7246,0.013 c 0.9626,-0.3852 2.1126,-0.3379 2.5556,0.1053 0.4431,0.4431 -0.3445,0.7583 -1.75,0.7004 -1.5533,-0.064 -1.8692,-0.38 -0.8056,-0.8056 z M 2065,2355.1171 c 0.9167,-0.3699 2.4167,-0.3699 3.3333,0 0.9167,0.3699 0.1667,0.6725 -1.6666,0.6725 -1.8334,0 -2.5834,-0.3026 -1.6667,-0.6725 z m 222.75,-0.028 c 0.9625,-0.3852 2.1125,-0.3379 2.5556,0.1053 0.4431,0.4431 -0.3445,0.7583 -1.75,0.7004 -1.5533,-0.064 -1.8692,-0.38 -0.8056,-0.8056 z m -248.0833,-1.3056 c 0.9166,-0.3699 2.4166,-0.3699 3.3333,0 0.9167,0.3699 0.1667,0.6725 -1.6667,0.6725 -1.8333,0 -2.5833,-0.3026 -1.6666,-0.6725 z m -24,-1.3333 c 0.9166,-0.3699 2.4166,-0.3699 3.3333,0 0.9167,0.3698 0.1667,0.6725 -1.6667,0.6725 -1.8333,0 -2.5833,-0.3027 -1.6666,-0.6725 z m 134.7018,-0.095 c 3.1362,-0.2816 7.9362,-0.2777 10.6667,0.013 2.7307,0.2866 0.1648,0.517 -5.7019,0.5122 -5.8666,0 -8.1008,-0.2394 -4.9648,-0.521 z m 71.3164,0.021 c 2.0268,-0.3064 5.0268,-0.2982 6.6667,0.019 1.64,0.3164 -0.019,0.5672 -3.6849,0.5572 -3.6667,-0.013 -5.0084,-0.2689 -2.9818,-0.5755 z m -230.0182,-1.2596 c 0.9166,-0.3698 2.4166,-0.3698 3.3333,0 0.9167,0.3699 0.1667,0.6726 -1.6667,0.6726 -1.8333,0 -2.5833,-0.3027 -1.6666,-0.6726 z m 118.6822,-0.06 c 1.6586,-0.3189 4.0586,-0.3068 5.3334,0.027 1.2746,0.3337 -0.083,0.5947 -3.0156,0.5799 -2.9334,-0.015 -3.9764,-0.2879 -2.3178,-0.6068 z m 145.3178,0.06 c 0.9166,-0.3698 2.4166,-0.3698 3.3333,0 0.9167,0.3699 0.1667,0.6726 -1.6667,0.6726 -1.8333,0 -2.5833,-0.3027 -1.6666,-0.6726 z m 74.75,-0.028 c 0.9625,-0.3852 2.1125,-0.3378 2.5556,0.1054 0.443,0.443 -0.3446,0.7582 -1.75,0.7004 -1.5534,-0.064 -1.8692,-0.38 -0.8056,-0.8056 z m -362.75,-1.3056 c 0.9166,-0.3698 2.4166,-0.3698 3.3333,0 0.9167,0.3699 0.1667,0.6726 -1.6667,0.6726 -1.8333,0 -2.5833,-0.3027 -1.6666,-0.6726 z m 114.0253,-0.041 c 1.2973,-0.338 3.0973,-0.3159 4,0.049 0.9028,0.3652 -0.1587,0.6418 -2.3587,0.6147 -2.2,-0.027 -2.9385,-0.326 -1.6413,-0.6641 z m 195.3913,0.013 c 0.9626,-0.3852 2.1126,-0.3378 2.5556,0.1054 0.4431,0.443 -0.3445,0.7582 -1.75,0.7004 -1.5533,-0.064 -1.8692,-0.38 -0.8056,-0.8056 z M 1945,2348.45 c 0.9167,-0.3698 2.4167,-0.3698 3.3333,0 0.9167,0.3699 0.1667,0.6726 -1.6666,0.6726 -1.8334,0 -2.5834,-0.3027 -1.6667,-0.6726 z m 110.0253,-0.041 c 1.2974,-0.338 3.0974,-0.3159 4,0.049 0.9028,0.3652 -0.1586,0.6418 -2.3586,0.6147 -2.2,-0.027 -2.9386,-0.326 -1.6414,-0.6641 z m -132.6086,-1.3201 c 0.9625,-0.3852 2.1125,-0.3379 2.5556,0.1053 0.443,0.4431 -0.3446,0.7583 -1.75,0.7004 -1.5534,-0.064 -1.8692,-0.38 -0.8056,-0.8056 z m 107.9166,0.028 c 0.9167,-0.3699 2.4167,-0.3699 3.3334,0 0.9166,0.3698 0.1666,0.6725 -1.6667,0.6725 -1.8333,0 -2.5833,-0.3027 -1.6667,-0.6725 z m -132,-1.3334 c 0.9167,-0.3698 2.4167,-0.3698 3.3334,0 0.9166,0.3699 0.1666,0.6726 -1.6667,0.6726 -1.8333,0 -2.5833,-0.3027 -1.6667,-0.6726 z m 108,0 c 0.9167,-0.3698 2.4167,-0.3698 3.3334,0 0.9166,0.3699 0.1666,0.6726 -1.6667,0.6726 -1.8333,0 -2.5833,-0.3027 -1.6667,-0.6726 z m 316.0834,-0.028 c 0.9625,-0.3852 2.1125,-0.3378 2.5556,0.1054 0.443,0.443 -0.3446,0.7582 -1.75,0.7004 -1.5534,-0.064 -1.8692,-0.38 -0.8056,-0.8056 z m -340.7247,-1.3465 c 1.2973,-0.338 3.0973,-0.3159 4,0.049 0.9028,0.3652 -0.1587,0.6418 -2.3587,0.6147 -2.2,-0.027 -2.9385,-0.326 -1.6413,-0.6641 z m -23.3587,-1.2924 c 0.9167,-0.3699 2.4167,-0.3699 3.3334,0 0.9166,0.3699 0.1666,0.6725 -1.6667,0.6725 -1.8333,0 -2.5833,-0.3026 -1.6667,-0.6725 z m -24,-1.3333 c 0.9167,-0.3699 2.4167,-0.3699 3.3334,0 0.9166,0.3698 0.1666,0.6725 -1.6667,0.6725 -1.8333,0 -2.5833,-0.3027 -1.6667,-0.6725 z m -22.6666,-1.3334 c 0.9166,-0.3698 2.4166,-0.3698 3.3333,0 0.9167,0.3699 0.1667,0.6726 -1.6667,0.6726 -1.8333,0 -2.5833,-0.3027 -1.6666,-0.6726 z M 1889,2339.1163 c 0.9167,-0.3699 2.4167,-0.3699 3.3333,0 0.9167,0.3699 0.1667,0.6725 -1.6666,0.6725 -1.8334,0 -2.5834,-0.3026 -1.6667,-0.6725 z m 549.4167,-0.028 c 0.9625,-0.3852 2.1125,-0.3379 2.5556,0.1053 0.443,0.4431 -0.3446,0.7583 -1.75,0.7004 -1.5534,-0.064 -1.8692,-0.38 -0.8056,-0.8056 z m 178.9166,-91.7549 c 3.9832,-4.0334 7.5423,-7.3334 7.909,-7.3334 0.3666,0 -2.5924,3.3 -6.5756,7.3334 -3.9832,4.0333 -7.5423,7.3333 -7.909,7.3333 -0.3666,0 2.5924,-3.3 6.5756,-7.3333 z M 2684.2105,2092 c 0,-1.8333 0.3027,-2.5833 0.6726,-1.6666 0.3698,0.9166 0.3698,2.4166 0,3.3333 -0.3699,0.9167 -0.6726,0.1667 -0.6726,-1.6667 z m -569.8772,-122.2978 c 2.3834,-0.2958 6.2834,-0.2958 8.6667,0 2.3833,0.2957 0.4333,0.5377 -4.3333,0.5377 -4.7667,0 -6.7167,-0.242 -4.3334,-0.5377 z m 158,0.045 c 1.2834,-0.3355 3.3834,-0.3355 4.6667,0 1.2833,0.3353 0.2333,0.6097 -2.3333,0.6097 -2.5667,0 -3.6167,-0.2744 -2.3334,-0.6097 z m -208.6666,-1.3552 c 1.65,-0.3179 4.35,-0.3179 6,0 1.65,0.3177 0.3,0.5777 -3,0.5777 -3.3,0 -4.65,-0.26 -3,-0.5777 z m 242,0.021 c 1.2833,-0.3354 3.3833,-0.3354 4.6666,0 1.2834,0.3354 0.2334,0.6098 -2.3333,0.6098 -2.5667,0 -3.6167,-0.2744 -2.3333,-0.6098 z m -283.3178,-1.3573 c 1.6586,-0.3189 4.0586,-0.3068 5.3334,0.027 1.2746,0.3337 -0.083,0.5946 -3.0156,0.5798 -2.9334,-0.015 -3.9764,-0.2878 -2.3178,-0.6068 z m 309.4011,0.032 c 0.9625,-0.3852 2.1125,-0.3379 2.5556,0.1053 0.4431,0.4431 -0.3445,0.7583 -1.75,0.7004 -1.5533,-0.064 -1.8692,-0.38 -0.8056,-0.8056 z m -346.7344,-1.3656 c 1.6585,-0.3189 4.0585,-0.3068 5.3333,0.027 1.2747,0.3337 -0.083,0.5946 -3.0156,0.5798 -2.9333,-0.015 -3.9764,-0.2878 -2.3177,-0.6068 z m 365.4011,0.032 c 0.9625,-0.3852 2.1125,-0.3379 2.5556,0.1053 0.443,0.4431 -0.3446,0.7583 -1.75,0.7004 -1.5534,-0.064 -1.8692,-0.38 -0.8056,-0.8056 z m -400.75,-1.3416 c 1.2833,-0.3355 3.3833,-0.3355 4.6666,0 1.2834,0.3353 0.2334,0.6097 -2.3333,0.6097 -2.5667,0 -3.6167,-0.2744 -2.3333,-0.6097 z m 212,-0.073 c 6.4166,-0.2444 16.9166,-0.2444 23.3333,0 6.4167,0.2444 1.1667,0.4444 -11.6667,0.4444 -12.8333,0 -18.0833,-0.2 -11.6666,-0.4444 z m 62.0446,0.013 c 3.8747,-0.2701 9.8747,-0.2673 13.3334,0 3.4588,0.2737 0.2886,0.4948 -7.0447,0.4913 -7.3333,0 -10.1632,-0.2274 -6.2887,-0.4976 z M 2369,1964.4544 c 0.9167,-0.3698 2.4167,-0.3698 3.3333,0 0.9167,0.3699 0.1667,0.6726 -1.6666,0.6726 -1.8334,0 -2.5834,-0.3027 -1.6667,-0.6726 z m -452.6413,-1.3742 c 1.2973,-0.338 3.0973,-0.3159 4,0.049 0.9028,0.3652 -0.1587,0.6417 -2.3587,0.6147 -2.2,-0.027 -2.9385,-0.326 -1.6413,-0.6642 z m 175.9746,-0.031 c 2.0167,-0.3055 5.3167,-0.3055 7.3334,0 2.0166,0.3056 0.3666,0.5555 -3.6667,0.5555 -4.0333,0 -5.6833,-0.2499 -3.6667,-0.5555 z m 193.3334,0.036 c 1.2833,-0.3355 3.3833,-0.3355 4.6666,0 1.2834,0.3353 0.2334,0.6097 -2.3333,0.6097 -2.5667,0 -3.6167,-0.2744 -2.3333,-0.6097 z m -401.3334,-1.3333 c 1.2834,-0.3355 3.3834,-0.3355 4.6667,0 1.2833,0.3353 0.2333,0.6097 -2.3333,0.6097 -2.5667,0 -3.6167,-0.2744 -2.3334,-0.6097 z m 162,-0.021 c 1.65,-0.3178 4.35,-0.3178 6,0 1.65,0.3178 0.3,0.5778 -3,0.5778 -3.3,0 -4.65,-0.26 -3,-0.5778 z m 271.3334,0.021 c 1.2833,-0.3355 3.3833,-0.3355 4.6666,0 1.2834,0.3353 0.2334,0.6097 -2.3333,0.6097 -2.5667,0 -3.6167,-0.2744 -2.3333,-0.6097 z m -309.9844,-1.3574 c 1.6585,-0.3189 4.0585,-0.3068 5.3333,0.027 1.2747,0.3337 -0.083,0.5947 -3.0156,0.5799 -2.9333,-0.015 -3.9764,-0.2879 -2.3177,-0.6068 z m 332.0677,0.032 c 0.9625,-0.3852 2.1125,-0.3378 2.5556,0.1054 0.4431,0.443 -0.3445,0.7582 -1.75,0.7004 -1.5533,-0.064 -1.8692,-0.38 -0.8056,-0.8056 z M 1971,1959.0852 c 1.2833,-0.3354 3.3833,-0.3354 4.6667,0 1.2833,0.3354 0.2333,0.6098 -2.3334,0.6098 -2.5666,0 -3.6166,-0.2744 -2.3333,-0.6098 z m 387.3333,0.036 c 0.9167,-0.3698 2.4167,-0.3698 3.3334,0 0.9166,0.3699 0.1666,0.6726 -1.6667,0.6726 -1.8333,0 -2.5833,-0.3027 -1.6667,-0.6726 z m -422,-1.3693 c 1.2834,-0.3355 3.3834,-0.3355 4.6667,0 1.2833,0.3353 0.2333,0.6097 -2.3333,0.6097 -2.5667,0 -3.6167,-0.2744 -2.3334,-0.6097 z M 1903,1956.4186 c 1.2833,-0.3355 3.3833,-0.3355 4.6667,0 1.2833,0.3353 0.2333,0.6097 -2.3334,0.6097 -2.5666,0 -3.6166,-0.2744 -2.3333,-0.6097 z m -31.9747,-1.3383 c 1.2974,-0.338 3.0974,-0.3159 4,0.049 0.9028,0.3652 -0.1586,0.6418 -2.3586,0.6147 -2.2,-0.027 -2.9386,-0.326 -1.6414,-0.6641 z m 535.3914,0.013 c 0.9625,-0.3852 2.1125,-0.3378 2.5556,0.1054 0.443,0.443 -0.3446,0.7582 -1.75,0.7004 -1.5534,-0.064 -1.8692,-0.38 -0.8056,-0.8056 z m 307.0218,-151.8669 c 0.064,-1.5533 0.38,-1.8692 0.8056,-0.8056 0.3852,0.9625 0.3379,2.1125 -0.1053,2.5556 -0.4431,0.4431 -0.7583,-0.3445 -0.7004,-1.75 z M 1983,1664.348 c 4.2167,-0.2645 11.1167,-0.2645 15.3333,0 4.2167,0.2647 0.7667,0.4811 -7.6666,0.4811 -8.4334,0 -11.8834,-0.2164 -7.6667,-0.4811 z m 108.7019,-1.326 c 3.1361,-0.2816 7.9361,-0.2777 10.6666,0.013 2.7307,0.2865 0.1648,0.5169 -5.7018,0.5121 -5.8667,0 -8.1008,-0.2393 -4.9648,-0.5209 z m 71.3164,-1.3121 c 2.0268,-0.3064 5.0268,-0.2983 6.6666,0.019 1.64,0.3164 -0.019,0.5672 -3.6849,0.5572 -3.6667,-0.013 -5.0084,-0.269 -2.9817,-0.5755 z M 2207,1660.4143 c 1.2833,-0.3355 3.3833,-0.3355 4.6667,0 1.2833,0.3353 0.2333,0.6097 -2.3334,0.6097 -2.5666,0 -3.6166,-0.2744 -2.3333,-0.6097 z m 34,-1.2973 c 0.9167,-0.3699 2.4167,-0.3699 3.3333,0 0.9167,0.3698 0.1667,0.6725 -1.6666,0.6725 -1.8334,0 -2.5834,-0.3027 -1.6667,-0.6725 z m -212,-1.4332 c 3.85,-0.2694 10.15,-0.2694 14,0 3.85,0.2693 0.7,0.4896 -7,0.4896 -7.7,0 -10.85,-0.2203 -7,-0.4896 z m 238.0253,0.059 c 1.2974,-0.338 3.0974,-0.3158 4,0.049 0.9028,0.3652 -0.1586,0.6417 -2.3586,0.6146 -2.2,-0.027 -2.9386,-0.326 -1.6414,-0.6641 z m -146.055,-1.3716 c 2.3669,-0.2945 6.5669,-0.2994 9.3333,-0.013 2.7664,0.2887 0.8297,0.5296 -4.3036,0.5356 -5.1333,0 -7.3967,-0.2303 -5.0297,-0.5248 z m 168.113,0.052 c 0.9626,-0.3852 2.1126,-0.3378 2.5556,0.1054 0.4431,0.443 -0.3445,0.7582 -1.75,0.7004 -1.5533,-0.064 -1.8692,-0.38 -0.8056,-0.8056 z m -107.3984,-1.3793 c 2.0268,-0.3064 5.0268,-0.2983 6.6667,0.019 1.64,0.3164 -0.019,0.5672 -3.6849,0.5572 -3.6667,-0.013 -5.0084,-0.269 -2.9818,-0.5755 z m 127.3984,0.045 c 0.9626,-0.3852 2.1126,-0.3378 2.5556,0.1054 0.4431,0.443 -0.3445,0.7582 -1.75,0.7004 -1.5533,-0.064 -1.8692,-0.38 -0.8056,-0.8056 z m -87.4166,-1.3416 c 1.2833,-0.3354 3.3833,-0.3354 4.6666,0 1.2834,0.3354 0.2334,0.6098 -2.3333,0.6098 -2.5667,0 -3.6167,-0.2744 -2.3333,-0.6098 z m 29.3586,-1.3382 c 1.2974,-0.338 3.0974,-0.3159 4,0.049 0.9028,0.3652 -0.1586,0.6417 -2.3586,0.6147 -2.2,-0.027 -2.9386,-0.326 -1.6414,-0.6642 z m 26.058,-1.3202 c 0.9626,-0.3852 2.1126,-0.3378 2.5556,0.1054 0.4431,0.443 -0.3445,0.7582 -1.75,0.7004 -1.5533,-0.064 -1.8692,-0.38 -0.8056,-0.8056 z m 20,-1.3333 c 0.9626,-0.3852 2.1126,-0.3379 2.5556,0.1053 0.4431,0.4431 -0.3445,0.7583 -1.75,0.7004 -1.5533,-0.064 -1.8692,-0.38 -0.8056,-0.8056 z m 20,-1.3333 c 0.9626,-0.3852 2.1126,-0.3379 2.5556,0.1053 0.4431,0.4431 -0.3445,0.7583 -1.75,0.7004 -1.5533,-0.064 -1.8692,-0.38 -0.8056,-0.8056 z m 16,-1.3334 c 0.9626,-0.3852 2.1126,-0.3378 2.5556,0.1054 0.4431,0.443 -0.3445,0.7582 -1.75,0.7004 -1.5533,-0.064 -1.8692,-0.38 -0.8056,-0.8056 z m 16,-1.3333 c 0.9626,-0.3852 2.1126,-0.3379 2.5556,0.1053 0.4431,0.4431 -0.3445,0.7583 -1.75,0.7004 -1.5533,-0.064 -1.8692,-0.38 -0.8056,-0.8056 z m 16,-1.3333 c 0.9626,-0.3852 2.1126,-0.3379 2.5556,0.1053 0.4431,0.4431 -0.3445,0.7583 -1.75,0.7004 -1.5533,-0.064 -1.8692,-0.38 -0.8056,-0.8056 z m 14.6667,-1.3334 c 0.9625,-0.3852 2.1125,-0.3378 2.5556,0.1054 0.4431,0.443 -0.3445,0.7582 -1.75,0.7004 -1.5533,-0.064 -1.8692,-0.38 -0.8056,-0.8056 z m 14.6667,-1.3333 c 0.9625,-0.3852 2.1125,-0.3379 2.5556,0.1053 0.443,0.4431 -0.3446,0.7583 -1.75,0.7004 -1.5534,-0.064 -1.8692,-0.38 -0.8056,-0.8056 z m 106.6666,-5.3333 c 0.9626,-0.3852 2.1126,-0.3379 2.5556,0.1053 0.4431,0.4431 -0.3445,0.7583 -1.75,0.7004 -1.5533,-0.064 -1.8692,-0.38 -0.8056,-0.8056 z m 24.6087,-1.3466 c 1.2973,-0.338 3.0973,-0.3158 4,0.049 0.9028,0.3652 -0.1587,0.6417 -2.3587,0.6146 -2.2,-0.027 -2.9385,-0.326 -1.6413,-0.6641 z m 32.7247,0.013 c 0.9625,-0.3852 2.1125,-0.3379 2.5556,0.1053 0.443,0.4431 -0.3446,0.7583 -1.75,0.7004 -1.5534,-0.064 -1.8692,-0.38 -0.8056,-0.8056 z M 2530.976,1548 c 0,-2.5666 0.2744,-3.6166 0.6097,-2.3333 0.3355,1.2833 0.3355,3.3833 0,4.6667 -0.3353,1.2833 -0.6097,0.2333 -0.6097,-2.3334 z m -0.2041,-19.4444 c 0.064,-1.5533 0.38,-1.8692 0.8056,-0.8056 0.3852,0.9626 0.3378,2.1126 -0.1054,2.5556 -0.443,0.4431 -0.7582,-0.3445 -0.7004,-1.75 z m -1973.68857,-5.4664 c 0.9625,-0.3852 2.11251,-0.3378 2.55556,0.1054 0.44306,0.443 -0.34445,0.7582 -1.75,0.7004 -1.55326,-0.064 -1.8692,-0.38 -0.80556,-0.8056 z M 2491.8299,1448.3333 2490,1446 l 2.3333,1.8299 c 2.221,1.7418 2.9274,2.8368 1.8299,2.8368 -0.2768,0 -1.3268,-1.05 -2.3333,-2.3334 z M 853.33333,1379.4965 c 0,-0.2768 1.05,-1.3268 2.33334,-2.3333 l 2.33333,-1.8299 -1.82992,2.3334 c -1.74183,2.2209 -2.83675,2.9273 -2.83675,1.8298 z M 868,1366.2495 c 0,-0.2295 1.95,-2.1795 4.33333,-4.3334 l 4.33334,-3.9161 -3.91612,4.3333 c -3.65038,4.0394 -4.75055,4.9463 -4.75055,3.9162 z m 45.33333,-45.5828 c 1.72234,-1.8334 3.43151,-3.3334 3.79818,-3.3334 0.36666,0 -0.74251,1.5 -2.46484,3.3334 -1.72234,1.8333 -3.43151,3.3333 -3.79818,3.3333 -0.36666,0 0.74251,-1.5 2.46484,-3.3333 z M 928,1304.8299 c 0,-0.2768 1.05,-1.3268 2.33333,-2.3333 l 2.33334,-1.8299 -1.82992,2.3333 c -1.74183,2.221 -2.83675,2.9273 -2.83675,1.8299 z m 862.4167,-32.4074 c 0.9625,-0.3851 2.1125,-0.3378 2.5556,0.1052 0.443,0.4431 -0.3446,0.7582 -1.75,0.7003 -1.5534,-0.064 -1.8692,-0.3799 -0.8056,-0.8055 z m 14.6666,-1.3333 c 0.9626,-0.3852 2.1126,-0.3378 2.5556,0.1052 0.4431,0.4431 -0.3445,0.7582 -1.75,0.7003 -1.5533,-0.064 -1.8692,-0.3799 -0.8056,-0.8056 z m 182.5834,0.028 c 0.9166,-0.3698 2.4166,-0.3698 3.3333,0 0.9167,0.3699 0.1667,0.6726 -1.6667,0.6726 -1.8333,0 -2.5833,-0.3027 -1.6666,-0.6726 z m -161.9747,-1.3742 c 1.2973,-0.3381 3.0973,-0.3159 4,0.049 0.9028,0.3653 -0.1587,0.6418 -2.3587,0.6147 -2.2,-0.027 -2.9385,-0.326 -1.6413,-0.6641 z m 140.6413,0.041 c 0.9167,-0.3699 2.4167,-0.3699 3.3334,0 0.9166,0.3699 0.1666,0.6725 -1.6667,0.6725 -1.8333,0 -2.5833,-0.3026 -1.6667,-0.6725 z m -114.6666,-1.3333 c 0.9166,-0.3699 2.4166,-0.3699 3.3333,0 0.9167,0.3698 0.1667,0.6725 -1.6667,0.6725 -1.8333,0 -2.5833,-0.3027 -1.6666,-0.6725 z m 83.3333,-0.072 c 2.0167,-0.3056 5.3167,-0.3056 7.3333,0 2.0167,0.3054 0.3667,0.5554 -3.6666,0.5554 -4.0334,0 -5.6834,-0.25 -3.6667,-0.5554 z M 1604.1052,871.22224 c 0.064,-1.55327 0.38,-1.8692 0.8056,-0.80556 0.3852,0.96249 0.3379,2.1125 -0.1053,2.55556 -0.4431,0.44305 -0.7583,-0.34446 -0.7004,-1.75 z m 2.8213,-42.55556 c 0.027,-2.2 0.326,-2.93859 0.6642,-1.6413 0.338,1.2973 0.3158,3.0973 -0.049,4 -0.3652,0.90271 -0.6417,-0.1587 -0.6146,-2.3587 z m 0.104,-78 c 0,-3.3 0.26,-4.65 0.5778,-3 0.3178,1.65 0.3178,4.35 0,6 -0.3178,1.65 -0.5778,0.3 -0.5778,-3 z m -1.3872,-36.00001 c 0,-2.56666 0.2744,-3.61666 0.6098,-2.33333 0.3354,1.28333 0.3354,3.38333 0,4.66667 -0.3354,1.28333 -0.6098,0.23333 -0.6098,-2.33334 z m -580.48,-366.33333 -1.83,-2.33334 2.3334,1.82992 c 1.2833,1.00647 2.3333,2.05647 2.3333,2.33334 0,1.09738 -1.0949,0.39108 -2.8367,-1.82992 z m -12,-13.33334 -1.83,-2.33333 2.3334,1.82992 c 2.221,1.74183 2.9273,2.83675 1.8299,2.83675 -0.2769,0 -1.3269,-1.05 -2.3333,-2.33334 z m 411.3767,-44.66666 -2.54,-3 3,2.53998 c 2.8192,2.38696 3.6069,3.46002 2.54,3.46002 -0.2531,0 -1.6031,-1.35 -3,-3 z m -38.6239,-38.66667 -3.9161,-4.33333 4.3333,3.91612 c 4.0394,3.65037 4.9463,4.75054 3.9162,4.75054 -0.2295,0 -2.1795,-1.95 -4.3334,-4.33333 z m -392.37225,-5 c 0,-1.83333 0.30264,-2.58333 0.67252,-1.66667 0.36988,0.91667 0.36988,2.41667 0,3.33334 -0.36988,0.91666 -0.67252,0.16666 -0.67252,-1.66667 z"
         id="path198" />
      <path
         style="fill:#96715b;stroke-width:1.33333"
         d="m 1425,2896.4503 c 0.9167,-0.3699 2.4167,-0.3699 3.3333,0 0.9167,0.3699 0.1667,0.6725 -1.6666,0.6725 -1.8334,0 -2.5834,-0.3026 -1.6667,-0.6725 z m 105.3333,0 c 0.9167,-0.3699 2.4167,-0.3699 3.3334,0 0.9166,0.3699 0.1666,0.6725 -1.6667,0.6725 -1.8333,0 -2.5833,-0.3026 -1.6667,-0.6725 z m -99.308,-5.3743 c 1.2974,-0.338 3.0974,-0.3158 4,0.049 0.9028,0.3652 -0.1586,0.6417 -2.3586,0.6146 -2.2,-0.027 -2.9386,-0.326 -1.6414,-0.6641 z m 93.3334,0 c 1.2973,-0.338 3.0973,-0.3158 4,0.049 0.9028,0.3652 -0.1587,0.6417 -2.3587,0.6146 -2.2,-0.027 -2.9385,-0.326 -1.6413,-0.6641 z m -135.2754,-1.3201 c 0.9626,-0.3852 2.1126,-0.3379 2.5556,0.1053 0.4431,0.4431 -0.3445,0.7583 -1.75,0.7004 -1.5533,-0.064 -1.8692,-0.38 -0.8056,-0.8056 z m 180,0 c 0.9626,-0.3852 2.1126,-0.3379 2.5556,0.1053 0.4431,0.4431 -0.3445,0.7583 -1.75,0.7004 -1.5533,-0.064 -1.8692,-0.38 -0.8056,-0.8056 z m 984.1783,-512.0892 -4.5949,-5 5,4.5949 c 4.6538,4.2768 5.613,5.4051 4.5949,5.4051 -0.2228,0 -2.4728,-2.25 -5,-5 z M 2133,2357.7836 c 0.9167,-0.3698 2.4167,-0.3698 3.3333,0 0.9167,0.3699 0.1667,0.6726 -1.6666,0.6726 -1.8334,0 -2.5834,-0.3027 -1.6667,-0.6726 z m 109.4167,-0.028 c 0.9625,-0.3852 2.1125,-0.3378 2.5556,0.1054 0.443,0.443 -0.3446,0.7582 -1.75,0.7004 -1.5534,-0.064 -1.8692,-0.38 -0.8056,-0.8056 z m -144,-1.3333 c 0.9625,-0.3852 2.1125,-0.3379 2.5556,0.1053 0.443,0.4431 -0.3446,0.7583 -1.75,0.7004 -1.5534,-0.064 -1.8692,-0.38 -0.8056,-0.8056 z m -28,-1.3333 c 0.9625,-0.3852 2.1125,-0.3379 2.5556,0.1053 0.443,0.4431 -0.3446,0.7583 -1.75,0.7004 -1.5534,-0.064 -1.8692,-0.38 -0.8056,-0.8056 z m -25.3334,-1.3334 c 0.9626,-0.3852 2.1126,-0.3378 2.5556,0.1054 0.4431,0.443 -0.3445,0.7582 -1.75,0.7004 -1.5533,-0.064 -1.8692,-0.38 -0.8056,-0.8056 z m -24,-1.3333 c 0.9626,-0.3852 2.1126,-0.3379 2.5556,0.1053 0.4431,0.4431 -0.3445,0.7583 -1.75,0.7004 -1.5533,-0.064 -1.8692,-0.38 -0.8056,-0.8056 z m 121.3334,0 c 0.9625,-0.3852 2.1125,-0.3379 2.5556,0.1053 0.443,0.4431 -0.3446,0.7583 -1.75,0.7004 -1.5534,-0.064 -1.8692,-0.38 -0.8056,-0.8056 z m 89.25,0.028 c 0.9166,-0.3699 2.4166,-0.3699 3.3333,0 0.9167,0.3699 0.1667,0.6725 -1.6667,0.6725 -1.8333,0 -2.5833,-0.3026 -1.6666,-0.6725 z m -126.5834,-1.3611 c 0.9626,-0.3852 2.1126,-0.3378 2.5556,0.1054 0.4431,0.443 -0.3445,0.7582 -1.75,0.7004 -1.5533,-0.064 -1.8692,-0.38 -0.8056,-0.8056 z m 156,0 c 0.9626,-0.3852 2.1126,-0.3378 2.5556,0.1054 0.4431,0.443 -0.3445,0.7582 -1.75,0.7004 -1.5533,-0.064 -1.8692,-0.38 -0.8056,-0.8056 z m -184,-1.3333 c 0.9626,-0.3852 2.1126,-0.3379 2.5556,0.1053 0.4431,0.4431 -0.3445,0.7583 -1.75,0.7004 -1.5533,-0.064 -1.8692,-0.38 -0.8056,-0.8056 z m -150.6666,-2.6667 c 0.9625,-0.3852 2.1125,-0.3378 2.5556,0.1054 0.443,0.443 -0.3446,0.7582 -1.75,0.7004 -1.5534,-0.064 -1.8692,-0.38 -0.8056,-0.8056 z m -22.6667,-1.3333 c 0.9625,-0.3852 2.1125,-0.3379 2.5556,0.1053 0.4431,0.4431 -0.3445,0.7583 -1.75,0.7004 -1.5533,-0.064 -1.8692,-0.38 -0.8056,-0.8056 z m 98.6667,0 c 0.9625,-0.3852 2.1125,-0.3379 2.5556,0.1053 0.443,0.4431 -0.3446,0.7583 -1.75,0.7004 -1.5534,-0.064 -1.8692,-0.38 -0.8056,-0.8056 z m -48,-2.6667 c 0.9625,-0.3852 2.1125,-0.3378 2.5556,0.1054 0.443,0.443 -0.3446,0.7582 -1.75,0.7004 -1.5534,-0.064 -1.8692,-0.38 -0.8056,-0.8056 z m -69.3334,-4 c 0.9626,-0.3852 2.1126,-0.3378 2.5556,0.1054 0.4431,0.443 -0.3445,0.7582 -1.75,0.7004 -1.5533,-0.064 -1.8692,-0.38 -0.8056,-0.8056 z m 243.25,-369.3416 c 1.2834,-0.3354 3.3834,-0.3354 4.6667,0 1.2833,0.3354 0.2333,0.6098 -2.3333,0.6098 -2.5667,0 -3.6167,-0.2744 -2.3334,-0.6098 z m 139.4167,0.013 c 0.9625,-0.3852 2.1125,-0.3379 2.5556,0.1053 0.4431,0.4431 -0.3445,0.7583 -1.75,0.7004 -1.5533,-0.064 -1.8692,-0.38 -0.8056,-0.8056 z m -194.058,-1.3466 c 1.2973,-0.338 3.0973,-0.3158 4,0.049 0.9028,0.3652 -0.1587,0.6417 -2.3587,0.6146 -2.2,-0.027 -2.9385,-0.326 -1.6413,-0.6641 z m 227.3913,0.013 c 0.9626,-0.3852 2.1126,-0.3379 2.5556,0.1053 0.4431,0.4431 -0.3445,0.7583 -1.75,0.7004 -1.5533,-0.064 -1.8692,-0.38 -0.8056,-0.8056 z m -270.75,-1.3056 c 0.9167,-0.3699 2.4167,-0.3699 3.3334,0 0.9166,0.3698 0.1666,0.6725 -1.6667,0.6725 -1.8333,0 -2.5833,-0.3027 -1.6667,-0.6725 z M 1993,1965.7888 c 0.9167,-0.3698 2.4167,-0.3698 3.3333,0 0.9167,0.3699 0.1667,0.6726 -1.6666,0.6726 -1.8334,0 -2.5834,-0.3027 -1.6667,-0.6726 z m -36,-1.3333 c 0.9167,-0.3699 2.4167,-0.3699 3.3333,0 0.9167,0.3699 0.1667,0.6725 -1.6666,0.6725 -1.8334,0 -2.5834,-0.3026 -1.6667,-0.6725 z m 187.3333,-0.036 c 1.2834,-0.3355 3.3834,-0.3355 4.6667,0 1.2833,0.3353 0.2333,0.6097 -2.3333,0.6097 -2.5667,0 -3.6167,-0.2744 -2.3334,-0.6097 z m 101.3516,-0.037 c 2.0268,-0.3064 5.0268,-0.2983 6.6667,0.019 1.64,0.3164 -0.019,0.5672 -3.6849,0.5572 -3.6667,-0.013 -5.0084,-0.2689 -2.9818,-0.5754 z m -323.3516,-1.2596 c 0.9167,-0.3699 2.4167,-0.3699 3.3334,0 0.9166,0.3698 0.1666,0.6725 -1.6667,0.6725 -1.8333,0 -2.5833,-0.3027 -1.6667,-0.6725 z m 162.6667,0 c 0.9167,-0.3699 2.4167,-0.3699 3.3333,0 0.9167,0.3698 0.1667,0.6725 -1.6666,0.6725 -1.8334,0 -2.5834,-0.3027 -1.6667,-0.6725 z m 208.0833,-0.028 c 0.9626,-0.3852 2.1126,-0.3379 2.5556,0.1053 0.4431,0.4431 -0.3445,0.7583 -1.75,0.7004 -1.5533,-0.064 -1.8692,-0.38 -0.8056,-0.8056 z m -401.3333,-1.3334 c 0.9625,-0.3852 2.1125,-0.3378 2.5556,0.1054 0.4431,0.443 -0.3445,0.7582 -1.75,0.7004 -1.5533,-0.064 -1.8692,-0.38 -0.8056,-0.8056 z m 147.9167,0.028 c 0.9166,-0.3698 2.4166,-0.3698 3.3333,0 0.9167,0.3699 0.1667,0.6726 -1.6667,0.6726 -1.8333,0 -2.5833,-0.3027 -1.6666,-0.6726 z m -37.25,-1.361 c 0.9625,-0.3852 2.1125,-0.3379 2.5556,0.1053 0.443,0.4431 -0.3446,0.7583 -1.75,0.7004 -1.5534,-0.064 -1.8692,-0.38 -0.8056,-0.8056 z m -36,-1.3334 c 0.9625,-0.3852 2.1125,-0.3378 2.5556,0.1054 0.443,0.443 -0.3446,0.7582 -1.75,0.7004 -1.5534,-0.064 -1.8692,-0.38 -0.8056,-0.8056 z m -34.6667,-1.3333 c 0.9625,-0.3852 2.1125,-0.3379 2.5556,0.1053 0.4431,0.4431 -0.3445,0.7583 -1.75,0.7004 -1.5533,-0.064 -1.8692,-0.38 -0.8056,-0.8056 z m -33.3333,-1.3333 c 0.9625,-0.3852 2.1125,-0.3379 2.5556,0.1053 0.443,0.4431 -0.3446,0.7583 -1.75,0.7004 -1.5534,-0.064 -1.8692,-0.38 -0.8056,-0.8056 z M 1865,1955.1226 c 0.9167,-0.3699 2.4167,-0.3699 3.3333,0 0.9167,0.3698 0.1667,0.6725 -1.6666,0.6725 -1.8334,0 -2.5834,-0.3027 -1.6667,-0.6725 z m 802.9283,-280.117 -4.595,-5 5,4.595 c 4.6539,4.2768 5.6131,5.405 4.595,5.405 -0.2228,0 -2.4728,-2.25 -5,-5 z m -702.9044,-10.6329 c 2.3965,-0.2968 5.9965,-0.2907 8,0.013 2.0036,0.3042 0.043,0.547 -4.3572,0.5395 -4.4,-0.013 -6.0392,-0.2564 -3.6428,-0.5531 z m 113.3094,-1.308 c 1.65,-0.3179 4.35,-0.3179 6,0 1.65,0.3177 0.3,0.5777 -3,0.5777 -3.3,0 -4.65,-0.26 -3,-0.5777 z m 75.3334,-1.3115 c 1.2833,-0.3354 3.3833,-0.3354 4.6666,0 1.2834,0.3354 0.2334,0.6098 -2.3333,0.6098 -2.5667,0 -3.6167,-0.2744 -2.3333,-0.6098 z m 48.75,-1.325 c 0.9625,-0.3852 2.1125,-0.3379 2.5556,0.1053 0.443,0.4431 -0.3446,0.7583 -1.75,0.7004 -1.5534,-0.064 -1.8692,-0.38 -0.8056,-0.8056 z m 34.6666,-1.3334 c 0.9626,-0.3852 2.1126,-0.3378 2.5556,0.1054 0.4431,0.443 -0.3445,0.7582 -1.75,0.7004 -1.5533,-0.064 -1.8692,-0.38 -0.8056,-0.8056 z m -184.0594,-1.3888 c 2.3965,-0.2968 5.9965,-0.2906 8,0.013 2.0036,0.3041 0.043,0.5469 -4.3572,0.5394 -4.4,-0.013 -6.0392,-0.2564 -3.6428,-0.553 z m 83.9917,-1.3101 c 1.6585,-0.3189 4.0585,-0.3068 5.3333,0.027 1.2747,0.3337 -0.083,0.5946 -3.0156,0.5798 -2.9333,-0.015 -3.9764,-0.2878 -2.3177,-0.6068 z m 55.3431,-1.3143 c 1.2973,-0.338 3.0973,-0.3158 4,0.049 0.9028,0.3652 -0.1587,0.6417 -2.3587,0.6146 -2.2,-0.027 -2.9385,-0.326 -1.6413,-0.6641 z m 36.7246,-1.3201 c 0.9626,-0.3852 2.1126,-0.3379 2.5556,0.1053 0.4431,0.4431 -0.3445,0.7583 -1.75,0.7004 -1.5533,-0.064 -1.8692,-0.38 -0.8056,-0.8056 z m 28,-1.3333 c 0.9626,-0.3852 2.1126,-0.3379 2.5556,0.1053 0.4431,0.4431 -0.3445,0.7583 -1.75,0.7004 -1.5533,-0.064 -1.8692,-0.38 -0.8056,-0.8056 z m 24,-1.3334 c 0.9626,-0.3852 2.1126,-0.3378 2.5556,0.1054 0.4431,0.443 -0.3445,0.7582 -1.75,0.7004 -1.5533,-0.064 -1.8692,-0.38 -0.8056,-0.8056 z m 240,-16 c 0.9626,-0.3852 2.1126,-0.3378 2.5556,0.1054 0.4431,0.443 -0.3445,0.7582 -1.75,0.7004 -1.5533,-0.064 -1.8692,-0.38 -0.8056,-0.8056 z M 880.66667,1353.3333 c 2.86432,-2.9333 5.50786,-5.3333 5.87453,-5.3333 0.36667,0 -1.67688,2.4 -4.5412,5.3333 -2.86432,2.9334 -5.50787,5.3334 -5.87453,5.3334 -0.36667,0 1.67688,-2.4 4.5412,-5.3334 z m 26.66666,-26.6666 c 1.32732,-1.4667 2.71331,-2.6667 3.07998,-2.6667 0.36666,0 -0.41932,1.2 -1.74664,2.6667 -1.32732,1.4666 -2.71331,2.6666 -3.07998,2.6666 -0.36666,0 0.41932,-1.2 1.74664,-2.6666 z m 913.74997,-56.9108 c 0.9626,-0.3852 2.1126,-0.3378 2.5556,0.1052 0.4431,0.443 -0.3445,0.7582 -1.75,0.7003 -1.5533,-0.064 -1.8692,-0.38 -0.8056,-0.8056 z m 26.6667,-1.3334 c 0.9625,-0.3851 2.1125,-0.3378 2.5556,0.1052 0.4431,0.4431 -0.3445,0.7582 -1.75,0.7003 -1.5533,-0.064 -1.8692,-0.3799 -0.8056,-0.8055 z m 99.2753,-0.013 c 1.2974,-0.3381 3.0974,-0.3158 4,0.049 0.9028,0.3652 -0.1586,0.6418 -2.3586,0.6146 -2.2,-0.027 -2.9386,-0.326 -1.6414,-0.664 z M 1606.7719,833.8889 c 0.064,-1.55326 0.38,-1.8692 0.8056,-0.80556 0.3852,0.9625 0.3378,2.11251 -0.1054,2.55556 -0.443,0.44306 -0.7582,-0.34445 -0.7004,-1.75 z m 0,-90.66666 c 0.064,-1.55327 0.38,-1.86921 0.8056,-0.80556 0.3852,0.96249 0.3378,2.1125 -0.1054,2.55556 -0.443,0.44305 -0.7582,-0.34446 -0.7004,-1.75 z m 5.3333,-4.00001 c 0.064,-1.55326 0.38,-1.8692 0.8056,-0.80556 0.3852,0.9625 0.3379,2.11251 -0.1053,2.55556 -0.4431,0.44306 -0.7583,-0.34445 -0.7004,-1.75 z m -6.5613,-31.22222 c 0,-1.83334 0.3026,-2.58334 0.6725,-1.66667 0.3699,0.91667 0.3699,2.41667 0,3.33333 -0.3699,0.91667 -0.6725,0.16667 -0.6725,-1.66666 z M 1429.1632,295 l -1.8299,-2.33333 2.3334,1.82992 c 1.2833,1.00647 2.3333,2.05647 2.3333,2.33333 0,1.09739 -1.0949,0.39108 -2.8368,-1.82992 z M 986.9266,230 c 0.0272,-2.2 0.326,-2.93858 0.66405,-1.64129 0.33806,1.29729 0.31583,3.09729 -0.0495,4 -0.3652,0.90271 -0.64179,-0.15871 -0.61462,-2.35871 z"
         id="path196" />
      <path
         style="fill:#695c55;stroke-width:1.33333"
         d="m 1431.0253,2896.4094 c 1.2974,-0.338 3.0974,-0.3159 4,0.049 0.9028,0.3652 -0.1586,0.6417 -2.3586,0.6147 -2.2,-0.027 -2.9386,-0.326 -1.6414,-0.6642 z m 93.3334,0 c 1.2973,-0.338 3.0973,-0.3159 4,0.049 0.9028,0.3652 -0.1587,0.6417 -2.3587,0.6147 -2.2,-0.027 -2.9385,-0.326 -1.6413,-0.6642 z m -135.2754,-1.3202 c 0.9626,-0.3852 2.1126,-0.3378 2.5556,0.1054 0.4431,0.443 -0.3445,0.7582 -1.75,0.7004 -1.5533,-0.064 -1.8692,-0.38 -0.8056,-0.8056 z m 180,0 c 0.9626,-0.3852 2.1126,-0.3378 2.5556,0.1054 0.4431,0.443 -0.3445,0.7582 -1.75,0.7004 -1.5533,-0.064 -1.8692,-0.38 -0.8056,-0.8056 z M 1425,2891.117 c 0.9167,-0.3699 2.4167,-0.3699 3.3333,0 0.9167,0.3698 0.1667,0.6725 -1.6666,0.6725 -1.8334,0 -2.5834,-0.3027 -1.6667,-0.6725 z m 105.3333,0 c 0.9167,-0.3699 2.4167,-0.3699 3.3334,0 0.9166,0.3698 0.1666,0.6725 -1.6667,0.6725 -1.8333,0 -2.5833,-0.3027 -1.6667,-0.6725 z m 1011,-275.6204 c 0,-0.2768 1.05,-1.3268 2.3334,-2.3334 l 2.3333,-1.8298 -1.8299,2.3333 c -1.7418,2.2209 -2.8368,2.9273 -2.8368,1.8299 z m 9.3334,-9.3334 c 0,-0.2768 1.05,-1.3268 2.3333,-2.3333 l 2.3333,-1.8299 -1.8298,2.3334 c -1.7419,2.2209 -2.8368,2.9273 -2.8368,1.8298 z m -412.25,-248.4073 c 0.9625,-0.3852 2.1125,-0.3379 2.5556,0.1053 0.443,0.4431 -0.3446,0.7583 -1.75,0.7004 -1.5534,-0.064 -1.8692,-0.38 -0.8056,-0.8056 z m 98.5833,0.028 c 0.9167,-0.3699 2.4167,-0.3699 3.3333,0 0.9167,0.3699 0.1667,0.6725 -1.6666,0.6725 -1.8334,0 -2.5834,-0.3026 -1.6667,-0.6725 z m -162.5833,-2.6944 c 0.9625,-0.3852 2.1125,-0.3379 2.5556,0.1053 0.443,0.4431 -0.3446,0.7583 -1.75,0.7004 -1.5534,-0.064 -1.8692,-0.38 -0.8056,-0.8056 z M 2137,2352.4506 c 0.9167,-0.3699 2.4167,-0.3699 3.3333,0 0.9167,0.3698 0.1667,0.6725 -1.6666,0.6725 -1.8334,0 -2.5834,-0.3027 -1.6667,-0.6725 z m 100,0 c 0.9167,-0.3699 2.4167,-0.3699 3.3333,0 0.9167,0.3698 0.1667,0.6725 -1.6666,0.6725 -1.8334,0 -2.5834,-0.3027 -1.6667,-0.6725 z m 380.3333,-96.8678 c 0,-0.2294 1.95,-2.1794 4.3334,-4.3333 l 4.3333,-3.9161 -3.9161,4.3333 c -3.6504,4.0393 -4.7506,4.9463 -4.7506,3.9161 z M 2657.9372,1997 l -5.2705,-5.6666 5.6666,5.2705 c 5.27,4.9016 6.2794,6.0628 5.2706,6.0628 -0.2178,0 -2.7678,-2.55 -5.6667,-5.6667 z m -521.6039,-27.2524 c 1.2834,-0.3354 3.3834,-0.3354 4.6667,0 1.2833,0.3354 0.2333,0.6098 -2.3333,0.6098 -2.5667,0 -3.6167,-0.2744 -2.3334,-0.6098 z m 121.3516,-0.037 c 2.0268,-0.3064 5.0268,-0.2983 6.6667,0.019 1.64,0.3164 -0.019,0.5672 -3.6849,0.5572 -3.6667,-0.013 -5.0084,-0.269 -2.9818,-0.5755 z m -178.0182,-1.2596 c 0.9166,-0.3699 2.4166,-0.3699 3.3333,0 0.9167,0.3699 0.1667,0.6725 -1.6667,0.6725 -1.8333,0 -2.5833,-0.3026 -1.6666,-0.6725 z m 217.4166,-0.028 c 0.9626,-0.3852 2.1126,-0.3379 2.5556,0.1053 0.4431,0.4431 -0.3445,0.7583 -1.75,0.7004 -1.5533,-0.064 -1.8692,-0.38 -0.8056,-0.8056 z m -261.3333,-1.3333 c 0.9625,-0.3852 2.1125,-0.3379 2.5556,0.1053 0.4431,0.4431 -0.3445,0.7583 -1.75,0.7004 -1.5533,-0.064 -1.8692,-0.38 -0.8056,-0.8056 z m -37.3333,-1.3334 c 0.9625,-0.3852 2.1125,-0.3378 2.5556,0.1054 0.443,0.443 -0.3446,0.7582 -1.75,0.7004 -1.5534,-0.064 -1.8692,-0.38 -0.8056,-0.8056 z m -36,-1.3333 c 0.9625,-0.3852 2.1125,-0.3379 2.5556,0.1053 0.443,0.4431 -0.3446,0.7583 -1.75,0.7004 -1.5534,-0.064 -1.8692,-0.38 -0.8056,-0.8056 z m 173.9166,-0.013 c 1.2834,-0.3355 3.3834,-0.3355 4.6667,0 1.2833,0.3353 0.2333,0.6097 -2.3333,0.6097 -2.5667,0 -3.6167,-0.2744 -2.3334,-0.6097 z m 121.3516,-0.037 c 2.0268,-0.3064 5.0268,-0.2982 6.6667,0.019 1.64,0.3164 -0.019,0.5672 -3.6849,0.5572 -3.6667,-0.013 -5.0084,-0.2689 -2.9818,-0.5755 z m -329.9349,-1.2873 c 0.9625,-0.3852 2.1125,-0.3379 2.5556,0.1053 0.4431,0.4431 -0.3445,0.7583 -1.75,0.7004 -1.5533,-0.064 -1.8692,-0.38 -0.8056,-0.8056 z m 151.9167,0.028 c 0.9166,-0.3699 2.4166,-0.3699 3.3333,0 0.9167,0.3699 0.1667,0.6725 -1.6667,0.6725 -1.8333,0 -2.5833,-0.3026 -1.6666,-0.6725 z m 217.4166,-0.028 c 0.9626,-0.3852 2.1126,-0.3379 2.5556,0.1053 0.4431,0.4431 -0.3445,0.7583 -1.75,0.7004 -1.5533,-0.064 -1.8692,-0.38 -0.8056,-0.8056 z m -401.3333,-1.3333 c 0.9625,-0.3852 2.1125,-0.3379 2.5556,0.1053 0.4431,0.4431 -0.3445,0.7583 -1.75,0.7004 -1.5533,-0.064 -1.8692,-0.38 -0.8056,-0.8056 z m 138.5833,0.028 c 0.9167,-0.3699 2.4167,-0.3699 3.3334,0 0.9166,0.3698 0.1666,0.6725 -1.6667,0.6725 -1.8333,0 -2.5833,-0.3027 -1.6667,-0.6725 z M 1997,1960.446 c 0.9167,-0.3698 2.4167,-0.3698 3.3333,0 0.9167,0.3699 0.1667,0.6726 -1.6666,0.6726 -1.8334,0 -2.5834,-0.3027 -1.6667,-0.6726 z m -34.5833,-1.361 c 0.9625,-0.3852 2.1125,-0.3379 2.5556,0.1053 0.443,0.4431 -0.3446,0.7583 -1.75,0.7004 -1.5534,-0.064 -1.8692,-0.38 -0.8056,-0.8056 z m -34.6667,-1.3334 c 0.9625,-0.3852 2.1125,-0.3378 2.5556,0.1054 0.4431,0.443 -0.3445,0.7582 -1.75,0.7004 -1.5533,-0.064 -1.8692,-0.38 -0.8056,-0.8056 z m -33.3333,-1.3333 c 0.9625,-0.3852 2.1125,-0.3379 2.5556,0.1053 0.443,0.4431 -0.3446,0.7583 -1.75,0.7004 -1.5534,-0.064 -1.8692,-0.38 -0.8056,-0.8056 z M 2687.3333,1872 c 2.8643,-2.9333 5.5079,-5.3333 5.8746,-5.3333 0.3666,0 -1.677,2.4 -4.5412,5.3333 -2.8643,2.9334 -5.5079,5.3334 -5.8746,5.3334 -0.3666,0 1.677,-2.4 4.5412,-5.3334 z M 1955,1664.4143 c 1.2833,-0.3355 3.3833,-0.3355 4.6667,0 1.2833,0.3353 0.2333,0.6097 -2.3334,0.6097 -2.5666,0 -3.6166,-0.2744 -2.3333,-0.6097 z m 110.6667,-1.3693 c 2.0166,-0.3055 5.3166,-0.3055 7.3333,0 2.0167,0.3056 0.3667,0.5554 -3.6667,0.5554 -4.0333,0 -5.6833,-0.2498 -3.6666,-0.5554 z m 80,-1.2974 c 1.2833,-0.3354 3.3833,-0.3354 4.6666,0 1.2834,0.3354 0.2334,0.6098 -2.3333,0.6098 -2.5667,0 -3.6167,-0.2744 -2.3333,-0.6098 z m 52.75,-1.325 c 0.9625,-0.3852 2.1125,-0.3379 2.5556,0.1053 0.443,0.4431 -0.3446,0.7583 -1.75,0.7004 -1.5534,-0.064 -1.8692,-0.38 -0.8056,-0.8056 z m -241.3928,-1.3888 c 2.3965,-0.2968 5.9965,-0.2907 8,0.013 2.0036,0.3041 0.043,0.5469 -4.3572,0.5395 -4.4,-0.013 -6.0392,-0.2564 -3.6428,-0.5531 z m 276.0594,0.056 c 0.9626,-0.3852 2.1126,-0.3379 2.5556,0.1053 0.4431,0.4431 -0.3445,0.7583 -1.75,0.7004 -1.5533,-0.064 -1.8692,-0.38 -0.8056,-0.8056 z M 2067,1657.7122 c 2.0167,-0.3055 5.3167,-0.3055 7.3333,0 2.0167,0.3056 0.3667,0.5554 -3.6666,0.5554 -4.0334,0 -5.6834,-0.2498 -3.6667,-0.5554 z m 192.75,0.044 c 0.9625,-0.3852 2.1125,-0.3379 2.5556,0.1053 0.4431,0.4431 -0.3445,0.7583 -1.75,0.7004 -1.5533,-0.064 -1.8692,-0.38 -0.8056,-0.8056 z m -114.0833,-1.3416 c 1.2833,-0.3355 3.3833,-0.3355 4.6666,0 1.2834,0.3353 0.2334,0.6097 -2.3333,0.6097 -2.5667,0 -3.6167,-0.2744 -2.3333,-0.6097 z m 52.75,-1.3251 c 0.9625,-0.3852 2.1125,-0.3379 2.5556,0.1053 0.443,0.4431 -0.3446,0.7583 -1.75,0.7004 -1.5534,-0.064 -1.8692,-0.38 -0.8056,-0.8056 z m 34.6666,-1.3333 c 0.9626,-0.3852 2.1126,-0.3379 2.5556,0.1053 0.4431,0.4431 -0.3445,0.7583 -1.75,0.7004 -1.5533,-0.064 -1.8692,-0.38 -0.8056,-0.8056 z m 288,-24 c 0.9626,-0.3852 2.1126,-0.3379 2.5556,0.1053 0.4431,0.4431 -0.3445,0.7583 -1.75,0.7004 -1.5533,-0.064 -1.8692,-0.38 -0.8056,-0.8056 z m 15.0219,-105.2003 c 0.064,-1.5533 0.38,-1.8692 0.8056,-0.8056 0.3852,0.9625 0.3379,2.1125 -0.1053,2.5556 -0.4431,0.4431 -0.7583,-0.3445 -0.7004,-1.75 z M 865.33333,1360.8299 c 0,-0.2768 1.05,-1.3268 2.33334,-2.3334 L 870,1356.6667 868.17008,1359 c -1.74183,2.2209 -2.83675,2.9273 -2.83675,1.8299 z m 30,-22.1632 c 5.094,-5.1334 9.56182,-9.3334 9.92848,-9.3334 0.36667,0 -3.50114,4.2 -8.59514,9.3334 -5.094,5.1333 -9.56182,9.3333 -9.92848,9.3333 -0.36667,0 3.50114,-4.2 8.59514,-9.3333 z m 16,-24 c 1.32732,-1.4667 2.71331,-2.6667 3.07998,-2.6667 0.36666,0 -0.41932,1.2 -1.74664,2.6667 -1.32732,1.4666 -2.71331,2.6666 -3.07998,2.6666 -0.36666,0 0.41932,-1.2 1.74664,-2.6666 z m 909.74997,-50.2442 c 0.9626,-0.3851 2.1126,-0.3378 2.5556,0.1052 0.4431,0.4431 -0.3445,0.7582 -1.75,0.7003 -1.5533,-0.064 -1.8692,-0.3799 -0.8056,-0.8055 z m 26.6667,-1.3333 c 0.9625,-0.3852 2.1125,-0.3378 2.5556,0.1052 0.4431,0.4431 -0.3445,0.7582 -1.75,0.7003 -1.5533,-0.064 -1.8692,-0.3799 -0.8056,-0.8056 z m 99.2753,-0.013 c 1.2974,-0.3381 3.0974,-0.3159 4,0.049 0.9028,0.3653 -0.1586,0.6419 -2.3586,0.6147 -2.2,-0.027 -2.9386,-0.326 -1.6414,-0.6641 z m -340.2534,-425.187 c 0.064,-1.55326 0.38,-1.8692 0.8056,-0.80556 0.3852,0.9625 0.3378,2.11251 -0.1054,2.55556 -0.443,0.44306 -0.7582,-0.34445 -0.7004,-1.75 z m 5.3333,-4 c 0.064,-1.55326 0.38,-1.8692 0.8056,-0.80556 0.3852,0.9625 0.3379,2.11251 -0.1053,2.55556 -0.4431,0.44306 -0.7583,-0.34445 -0.7004,-1.75 z m 0.1053,-89.88889 c 0,-1.83333 0.3027,-2.58334 0.6726,-1.66667 0.3698,0.91667 0.3698,2.41667 0,3.33334 -0.3699,0.91666 -0.6726,0.16666 -0.6726,-1.66667 z m -5.4386,-4.77778 c 0.064,-1.55326 0.38,-1.8692 0.8056,-0.80556 0.3852,0.9625 0.3378,2.11251 -0.1054,2.55556 -0.443,0.44306 -0.7582,-0.34445 -0.7004,-1.75 z m -180.8986,-455.55556 -2.54,-3 3,2.53999 c 2.8192,2.38696 3.607,3.46001 2.54,3.46001 -0.253,0 -1.603,-1.35 -3,-3 z m -33.3333,-33.33333 -2.54,-3 3,2.53998 c 2.8192,2.38696 3.6069,3.46002 2.54,3.46002 -0.2531,0 -1.6031,-1.35 -3,-3 z M 992.25993,230 c 0.0272,-2.2 0.326,-2.93858 0.66406,-1.64129 0.33805,1.29729 0.31582,3.09729 -0.0495,4 -0.36521,0.90271 -0.6418,-0.15871 -0.61462,-2.35871 z"
         id="path194" />
      <path
         style="fill:#5e4638;stroke-width:1.33333"
         d="m 1437,2896.4503 c 0.9167,-0.3699 2.4167,-0.3699 3.3333,0 0.9167,0.3699 0.1667,0.6725 -1.6666,0.6725 -1.8334,0 -2.5834,-0.3026 -1.6667,-0.6725 z m 81.3333,0 c 0.9167,-0.3699 2.4167,-0.3699 3.3334,0 0.9166,0.3699 0.1666,0.6725 -1.6667,0.6725 -1.8333,0 -2.5833,-0.3026 -1.6667,-0.6725 z m 46.75,-1.3611 c 0.9626,-0.3852 2.1126,-0.3378 2.5556,0.1054 0.4431,0.443 -0.3445,0.7582 -1.75,0.7004 -1.5533,-0.064 -1.8692,-0.38 -0.8056,-0.8056 z m -150.065,-4.046 c 2.0268,-0.3064 5.0268,-0.2982 6.6666,0.019 1.64,0.3164 -0.019,0.5672 -3.6849,0.5572 -3.6667,-0.013 -5.0084,-0.2689 -2.9817,-0.5755 z m 122.6666,0 c 2.0268,-0.3064 5.0268,-0.2982 6.6667,0.019 1.64,0.3164 -0.019,0.5672 -3.6849,0.5572 -3.6667,-0.013 -5.0084,-0.2689 -2.9818,-0.5755 z m -155.3516,-1.2596 c 0.9167,-0.3698 2.4167,-0.3698 3.3334,0 0.9166,0.3699 0.1666,0.6726 -1.6667,0.6726 -1.8333,0 -2.5833,-0.3027 -1.6667,-0.6726 z m 192,0 c 0.9167,-0.3698 2.4167,-0.3698 3.3334,0 0.9166,0.3699 0.1666,0.6726 -1.6667,0.6726 -1.8333,0 -2.5833,-0.3027 -1.6667,-0.6726 z m -275.9166,-1.361 c 0.9625,-0.3852 2.1125,-0.3379 2.5555,0.1053 0.4431,0.4431 -0.3444,0.7583 -1.75,0.7004 -1.5532,-0.064 -1.8692,-0.38 -0.8055,-0.8056 z m 61.25,0.028 c 0.9166,-0.3699 2.4166,-0.3699 3.3333,0 0.9167,0.3698 0.1667,0.6725 -1.6667,0.6725 -1.8333,0 -2.5833,-0.3027 -1.6666,-0.6725 z m 237.3333,0 c 0.9167,-0.3699 2.4167,-0.3699 3.3333,0 0.9167,0.3698 0.1667,0.6725 -1.6666,0.6725 -1.8334,0 -2.5834,-0.3027 -1.6667,-0.6725 z m -258.5833,-1.3611 c 0.9625,-0.3852 2.1125,-0.3379 2.5556,0.1053 0.443,0.4431 -0.3446,0.7583 -1.75,0.7004 -1.5534,-0.064 -1.8692,-0.38 -0.8056,-0.8056 z m 281.25,0.028 c 0.9166,-0.3699 2.4166,-0.3699 3.3333,0 0.9167,0.3699 0.1667,0.6725 -1.6667,0.6725 -1.8333,0 -2.5833,-0.3026 -1.6666,-0.6725 z m -297.25,-1.3611 c 0.9625,-0.3852 2.1125,-0.3378 2.5555,0.1054 0.4431,0.443 -0.3444,0.7582 -1.75,0.7004 -1.5532,-0.064 -1.8692,-0.38 -0.8055,-0.8056 z m 314.6666,0 c 0.9626,-0.3852 2.1126,-0.3378 2.5556,0.1054 0.4431,0.443 -0.3445,0.7582 -1.75,0.7004 -1.5533,-0.064 -1.8692,-0.38 -0.8056,-0.8056 z m -329.3333,-1.3333 c 0.9625,-0.3852 2.1125,-0.3379 2.5556,0.1053 0.443,0.4431 -0.3445,0.7583 -1.75,0.7004 -1.5533,-0.064 -1.8692,-0.38 -0.8056,-0.8056 z m 344,0 c 0.9625,-0.3852 2.1125,-0.3379 2.5556,0.1053 0.4431,0.4431 -0.3445,0.7583 -1.75,0.7004 -1.5533,-0.064 -1.8692,-0.38 -0.8056,-0.8056 z m -360,-1.3333 c 0.9625,-0.3852 2.1125,-0.3379 2.5556,0.1053 0.443,0.4431 -0.3445,0.7583 -1.75,0.7004 -1.5533,-0.064 -1.8692,-0.38 -0.8056,-0.8056 z m 376,0 c 0.9625,-0.3852 2.1125,-0.3379 2.5556,0.1053 0.4431,0.4431 -0.3445,0.7583 -1.75,0.7004 -1.5533,-0.064 -1.8692,-0.38 -0.8056,-0.8056 z m 14.6667,-1.3334 c 0.9625,-0.3852 2.1125,-0.3378 2.5556,0.1054 0.443,0.443 -0.3446,0.7582 -1.75,0.7004 -1.5534,-0.064 -1.8692,-0.38 -0.8056,-0.8056 z m 864.9166,-272.423 c 1.3274,-1.4667 2.7134,-2.6667 3.08,-2.6667 0.3667,0 -0.4193,1.2 -1.7466,2.6667 -1.3274,1.4666 -2.7134,2.6666 -3.08,2.6666 -0.3667,0 0.4193,-1.2 1.7466,-2.6666 z m -4,-2.6667 c 1.3274,-1.4667 2.7134,-2.6667 3.08,-2.6667 0.3667,0 -0.4193,1.2 -1.7466,2.6667 -1.3274,1.4667 -2.7134,2.6667 -3.08,2.6667 -0.3667,0 0.4193,-1.2 1.7466,-2.6667 z m 49.0299,-120 c 0,-3.3 0.26,-4.65 0.5777,-3 0.3179,1.65 0.3179,4.35 0,6 -0.3177,1.65 -0.5777,0.3 -0.5777,-3 z m -1.5913,-22.1111 c 0.064,-1.5533 0.38,-1.8692 0.8056,-0.8056 0.3852,0.9626 0.3378,2.1126 -0.1054,2.5556 -0.443,0.4431 -0.7582,-0.3445 -0.7004,-1.75 z m -447.0896,-106.832 c 1.6585,-0.3189 4.0585,-0.3068 5.3333,0.027 1.2747,0.3337 -0.083,0.5947 -3.0156,0.5799 -2.9333,-0.015 -3.9764,-0.2879 -2.3177,-0.6068 z m 83.336,-0.013 c 2.0268,-0.3064 5.0268,-0.2983 6.6666,0.019 1.64,0.3164 -0.019,0.5672 -3.6849,0.5572 -3.6667,-0.013 -5.0084,-0.269 -2.9817,-0.5755 z m -120.6694,-1.3196 c 1.6586,-0.3189 4.0586,-0.3068 5.3334,0.027 1.2746,0.3337 -0.083,0.5946 -3.0156,0.5798 -2.9334,-0.015 -3.9764,-0.2878 -2.3178,-0.6068 z m 151.9844,0.06 c 0.9167,-0.3699 2.4167,-0.3699 3.3334,0 0.9166,0.3699 0.1666,0.6725 -1.6667,0.6725 -1.8333,0 -2.5833,-0.3026 -1.6667,-0.6725 z m -179.308,-1.3743 c 1.2974,-0.338 3.0974,-0.3158 4,0.049 0.9028,0.3652 -0.1586,0.6417 -2.3586,0.6146 -2.2,-0.027 -2.9386,-0.326 -1.6414,-0.6641 z m 199.308,0.041 c 0.9167,-0.3699 2.4167,-0.3699 3.3334,0 0.9166,0.3698 0.1666,0.6725 -1.6667,0.6725 -1.8333,0 -2.5833,-0.3027 -1.6667,-0.6725 z m -225.9746,-1.3743 c 1.2973,-0.338 3.0973,-0.3159 4,0.049 0.9028,0.3652 -0.1587,0.6418 -2.3587,0.6147 -2.2,-0.027 -2.9385,-0.326 -1.6413,-0.6641 z m -24.692,-1.2924 c 0.9166,-0.3699 2.4166,-0.3699 3.3333,0 0.9167,0.3699 0.1667,0.6725 -1.6667,0.6725 -1.8333,0 -2.5833,-0.3026 -1.6666,-0.6725 z m 101.3489,-0.06 c 1.6585,-0.3189 4.0585,-0.3068 5.3333,0.027 1.2747,0.3337 -0.083,0.5946 -3.0156,0.5798 -2.9333,-0.015 -3.9764,-0.2878 -2.3177,-0.6068 z m 114.0097,0.019 c 1.2974,-0.338 3.0974,-0.3159 4,0.049 0.9028,0.3652 -0.1586,0.6417 -2.3586,0.6147 -2.2,-0.027 -2.9386,-0.326 -1.6414,-0.6642 z m -240,-1.3334 c 1.2974,-0.338 3.0974,-0.3158 4,0.049 0.9028,0.3652 -0.1586,0.6417 -2.3586,0.6146 -2.2,-0.027 -2.9386,-0.326 -1.6414,-0.6641 z m 93.3334,0 c 1.2973,-0.338 3.0973,-0.3158 4,0.049 0.9028,0.3652 -0.1587,0.6417 -2.3587,0.6146 -2.2,-0.027 -2.9385,-0.326 -1.6413,-0.6641 z m 169.9746,0.041 c 0.9167,-0.3699 2.4167,-0.3699 3.3334,0 0.9166,0.3698 0.1666,0.6725 -1.6667,0.6725 -1.8333,0 -2.5833,-0.3027 -1.6667,-0.6725 z m 57.4167,-0.028 c 0.9625,-0.3852 2.1125,-0.3379 2.5556,0.1053 0.4431,0.4431 -0.3445,0.7583 -1.75,0.7004 -1.5533,-0.064 -1.8692,-0.38 -0.8056,-0.8056 z m -344.7247,-1.3466 c 1.2974,-0.338 3.0974,-0.3158 4,0.049 0.9028,0.3652 -0.1586,0.6417 -2.3586,0.6146 -2.2,-0.027 -2.9386,-0.326 -1.6414,-0.6641 z m 89.3334,0 c 1.2973,-0.338 3.0973,-0.3158 4,0.049 0.9028,0.3652 -0.1587,0.6417 -2.3587,0.6146 -2.2,-0.027 -2.9385,-0.326 -1.6413,-0.6641 z m 216.7246,0.013 c 0.9626,-0.3852 2.1126,-0.3379 2.5556,0.1053 0.4431,0.4431 -0.3445,0.7583 -1.75,0.7004 -1.5533,-0.064 -1.8692,-0.38 -0.8056,-0.8056 z m -329.4166,-1.3056 c 0.9166,-0.3699 2.4166,-0.3699 3.3333,0 0.9167,0.3698 0.1667,0.6725 -1.6667,0.6725 -1.8333,0 -2.5833,-0.3027 -1.6666,-0.6725 z m 87.3586,-0.041 c 1.2974,-0.338 3.0974,-0.3158 4,0.049 0.9028,0.3652 -0.1586,0.6417 -2.3586,0.6146 -2.2,-0.027 -2.9386,-0.326 -1.6414,-0.6641 z M 1933,2347.1172 c 0.9167,-0.3698 2.4167,-0.3698 3.3333,0 0.9167,0.3699 0.1667,0.6726 -1.6666,0.6726 -1.8334,0 -2.5834,-0.3027 -1.6667,-0.6726 z m 86.0253,-0.041 c 1.2974,-0.338 3.0974,-0.3159 4,0.049 0.9028,0.3652 -0.1586,0.6418 -2.3586,0.6147 -2.2,-0.027 -2.9386,-0.326 -1.6414,-0.6641 z m 342.058,0.013 c 0.9626,-0.3852 2.1126,-0.3378 2.5556,0.1054 0.4431,0.443 -0.3445,0.7582 -1.75,0.7004 -1.5533,-0.064 -1.8692,-0.38 -0.8056,-0.8056 z m -450.75,-1.3056 c 0.9167,-0.3698 2.4167,-0.3698 3.3334,0 0.9166,0.3699 0.1666,0.6726 -1.6667,0.6726 -1.8333,0 -2.5833,-0.3027 -1.6667,-0.6726 z m 84,0 c 0.9167,-0.3698 2.4167,-0.3698 3.3334,0 0.9166,0.3699 0.1666,0.6726 -1.6667,0.6726 -1.8333,0 -2.5833,-0.3027 -1.6667,-0.6726 z m 334.75,-0.028 c 0.9626,-0.3852 2.1126,-0.3378 2.5556,0.1054 0.4431,0.443 -0.3445,0.7582 -1.75,0.7004 -1.5533,-0.064 -1.8692,-0.38 -0.8056,-0.8056 z m -441.4166,-1.3056 c 0.9166,-0.3698 2.4166,-0.3698 3.3333,0 0.9167,0.3699 0.1667,0.6726 -1.6667,0.6726 -1.8333,0 -2.5833,-0.3027 -1.6666,-0.6726 z m 82.6666,0 c 0.9167,-0.3698 2.4167,-0.3698 3.3334,0 0.9166,0.3699 0.1666,0.6726 -1.6667,0.6726 -1.8333,0 -2.5833,-0.3027 -1.6667,-0.6726 z m -24,-1.3333 c 0.9167,-0.3699 2.4167,-0.3699 3.3334,0 0.9166,0.3699 0.1666,0.6725 -1.6667,0.6725 -1.8333,0 -2.5833,-0.3026 -1.6667,-0.6725 z m -22.6666,-1.3333 c 0.9166,-0.3699 2.4166,-0.3699 3.3333,0 0.9167,0.3698 0.1667,0.6725 -1.6667,0.6725 -1.8333,0 -2.5833,-0.3027 -1.6666,-0.6725 z M 1901,2340.45 c 0.9167,-0.3698 2.4167,-0.3698 3.3333,0 0.9167,0.3699 0.1667,0.6726 -1.6666,0.6726 -1.8334,0 -2.5834,-0.3027 -1.6667,-0.6726 z m 544.0833,-1.361 c 0.9626,-0.3852 2.1126,-0.3379 2.5556,0.1053 0.4431,0.4431 -0.3445,0.7583 -1.75,0.7004 -1.5533,-0.064 -1.8692,-0.38 -0.8056,-0.8056 z m 239.0219,-274.5336 c 0.064,-1.5534 0.38,-1.8692 0.8056,-0.8056 0.3852,0.9625 0.3379,2.1125 -0.1053,2.5556 -0.4431,0.443 -0.7583,-0.3446 -0.7004,-1.75 z M 2149,1969.6838 c 3.85,-0.2694 10.15,-0.2694 14,0 3.85,0.2693 0.7,0.4896 -7,0.4896 -7.7,0 -10.85,-0.2203 -7,-0.4896 z m 86.7113,0 c 3.8747,-0.2702 9.8747,-0.2674 13.3334,0 3.4588,0.2737 0.2886,0.4948 -7.0447,0.4913 -7.3333,0 -10.1632,-0.2275 -6.2887,-0.4976 z m -148.693,-1.3056 c 2.0268,-0.3064 5.0268,-0.2983 6.6666,0.019 1.64,0.3164 -0.019,0.5672 -3.6849,0.5572 -3.6667,-0.013 -5.0084,-0.2689 -2.9817,-0.5754 z m 202.6484,0.037 c 1.2833,-0.3355 3.3833,-0.3355 4.6666,0 1.2834,0.3353 0.2334,0.6097 -2.3333,0.6097 -2.5667,0 -3.6167,-0.2744 -2.3333,-0.6097 z M 2041,1967.0603 c 1.65,-0.3179 4.35,-0.3179 6,0 1.65,0.3177 0.3,0.5777 -3,0.5777 -3.3,0 -4.65,-0.26 -3,-0.5777 z m 280,0.057 c 0.9167,-0.3698 2.4167,-0.3698 3.3333,0 0.9167,0.3699 0.1667,0.6726 -1.6666,0.6726 -1.8334,0 -2.5834,-0.3027 -1.6667,-0.6726 z m -317.3177,-1.3933 c 1.6585,-0.3189 4.0585,-0.3068 5.3333,0.027 1.2747,0.3337 -0.083,0.5946 -3.0156,0.5798 -2.9333,-0.015 -3.9764,-0.2878 -2.3177,-0.6068 z m 337.3177,0.06 c 0.9167,-0.3699 2.4167,-0.3699 3.3333,0 0.9167,0.3699 0.1667,0.6725 -1.6666,0.6725 -1.8334,0 -2.5834,-0.3026 -1.6667,-0.6725 z m -374,-1.3693 c 1.2833,-0.3355 3.3833,-0.3355 4.6667,0 1.2833,0.3353 0.2333,0.6097 -2.3334,0.6097 -2.5666,0 -3.6166,-0.2744 -2.3333,-0.6097 z m 155.3333,-0.045 c 2.3834,-0.2957 6.2834,-0.2957 8.6667,0 2.3833,0.2958 0.4333,0.5378 -4.3333,0.5378 -4.7667,0 -6.7167,-0.242 -4.3334,-0.5378 z m 146,0.045 c 1.2834,-0.3355 3.3834,-0.3355 4.6667,0 1.2833,0.3353 0.2333,0.6097 -2.3333,0.6097 -2.5667,0 -3.6167,-0.2744 -2.3334,-0.6097 z m 91.3334,0.036 c 0.9166,-0.3699 2.4166,-0.3699 3.3333,0 0.9167,0.3698 0.1667,0.6725 -1.6667,0.6725 -1.8333,0 -2.5833,-0.3027 -1.6666,-0.6725 z m -427.3334,-1.3694 c 1.2834,-0.3354 3.3834,-0.3354 4.6667,0 1.2833,0.3354 0.2333,0.6098 -2.3333,0.6098 -2.5667,0 -3.6167,-0.2744 -2.3334,-0.6098 z m 137.3516,-0.037 c 2.0268,-0.3064 5.0268,-0.2983 6.6667,0.019 1.64,0.3164 -0.019,0.5672 -3.6849,0.5572 -3.6667,-0.013 -5.0084,-0.269 -2.9818,-0.5755 z m 231.9818,0.037 c 1.2833,-0.3354 3.3833,-0.3354 4.6666,0 1.2834,0.3354 0.2334,0.6098 -2.3333,0.6098 -2.5667,0 -3.6167,-0.2744 -2.3333,-0.6098 z m -401.308,-1.3382 c 1.2973,-0.338 3.0973,-0.3159 4,0.049 0.9028,0.3652 -0.1587,0.6417 -2.3587,0.6147 -2.2,-0.027 -2.9385,-0.326 -1.6413,-0.6642 z m 126.6413,0 c 1.2833,-0.3355 3.3833,-0.3355 4.6667,0 1.2833,0.3353 0.2333,0.6097 -2.3334,0.6097 -2.5666,0 -3.6166,-0.2744 -2.3333,-0.6097 z m 302,0.036 c 0.9167,-0.3699 2.4167,-0.3699 3.3333,0 0.9167,0.3698 0.1667,0.6725 -1.6666,0.6725 -1.8334,0 -2.5834,-0.3027 -1.6667,-0.6725 z m -460.6667,-1.3694 c 1.2834,-0.3354 3.3834,-0.3354 4.6667,0 1.2833,0.3354 0.2333,0.6098 -2.3333,0.6098 -2.5667,0 -3.6167,-0.2744 -2.3334,-0.6098 z m 121.3334,0 c 1.2833,-0.3354 3.3833,-0.3354 4.6666,0 1.2834,0.3354 0.2334,0.6098 -2.3333,0.6098 -2.5667,0 -3.6167,-0.2744 -2.3333,-0.6098 z m 359.4166,0.013 c 0.9626,-0.3852 2.1126,-0.3379 2.5556,0.1053 0.4431,0.4431 -0.3445,0.7583 -1.75,0.7004 -1.5533,-0.064 -1.8692,-0.38 -0.8056,-0.8056 z m 58.6667,0 c 0.9625,-0.3852 2.1125,-0.3379 2.5556,0.1053 0.4431,0.4431 -0.3445,0.7583 -1.75,0.7004 -1.5533,-0.064 -1.8692,-0.38 -0.8056,-0.8056 z m -453.4011,-1.3656 c 1.6586,-0.319 4.0586,-0.3068 5.3334,0.027 1.2746,0.3338 -0.083,0.5947 -3.0156,0.5799 -2.9334,-0.015 -3.9764,-0.2879 -2.3178,-0.6068 z m 413.3178,0.06 c 0.9166,-0.3699 2.4166,-0.3699 3.3333,0 0.9167,0.3698 0.1667,0.6725 -1.6667,0.6725 -1.8333,0 -2.5833,-0.3027 -1.6666,-0.6725 z m 54.75,-0.028 c 0.9625,-0.3852 2.1125,-0.3379 2.5556,0.1053 0.443,0.4431 -0.3446,0.7583 -1.75,0.7004 -1.5534,-0.064 -1.8692,-0.38 -0.8056,-0.8056 z m -502.7344,-1.3656 c 1.6585,-0.319 4.0585,-0.3068 5.3333,0.027 1.2747,0.3338 -0.083,0.5947 -3.0156,0.5799 -2.9333,-0.015 -3.9764,-0.2879 -2.3177,-0.6068 z m 465.401,0.032 c 0.9626,-0.3852 2.1126,-0.3379 2.5556,0.1053 0.4431,0.4431 -0.3445,0.7583 -1.75,0.7004 -1.5533,-0.064 -1.8692,-0.38 -0.8056,-0.8056 z M 1887,1956.4146 c 1.2833,-0.3355 3.3833,-0.3355 4.6667,0 1.2833,0.3353 0.2333,0.6097 -2.3334,0.6097 -2.5666,0 -3.6166,-0.2744 -2.3333,-0.6097 z m 526.0833,-1.3251 c 0.9626,-0.3852 2.1126,-0.3379 2.5556,0.1053 0.4431,0.4431 -0.3445,0.7583 -1.75,0.7004 -1.5533,-0.064 -1.8692,-0.38 -0.8056,-0.8056 z m 14.6667,-1.3333 c 0.9625,-0.3852 2.1125,-0.3379 2.5556,0.1053 0.4431,0.4431 -0.3445,0.7583 -1.75,0.7004 -1.5533,-0.064 -1.8692,-0.38 -0.8056,-0.8056 z m 45.3333,0 c 0.9626,-0.3852 2.1126,-0.3379 2.5556,0.1053 0.4431,0.4431 -0.3445,0.7583 -1.75,0.7004 -1.5533,-0.064 -1.8692,-0.38 -0.8056,-0.8056 z m -20,-2.6667 c 0.9626,-0.3852 2.1126,-0.3379 2.5556,0.1053 0.4431,0.4431 -0.3445,0.7583 -1.75,0.7004 -1.5533,-0.064 -1.8692,-0.38 -0.8056,-0.8056 z M 2714.8772,1792 c 0,-1.8333 0.3027,-2.5833 0.6725,-1.6666 0.3699,0.9166 0.3699,2.4166 0,3.3333 -0.3698,0.9167 -0.6725,0.1667 -0.6725,-1.6667 z m -672.5439,-128.9829 c 3.85,-0.2693 10.15,-0.2693 14,0 3.85,0.2693 0.7,0.4896 -7,0.4896 -7.7,0 -10.85,-0.2203 -7,-0.4896 z m 87.9703,-1.3127 c 2.3669,-0.2945 6.5669,-0.2994 9.3333,-0.013 2.7664,0.2887 0.8298,0.5296 -4.3036,0.5356 -5.1333,0 -7.3966,-0.2303 -5.0297,-0.5248 z m 58.048,-1.3278 c 2.0268,-0.3064 5.0268,-0.2983 6.6667,0.019 1.64,0.3164 -0.019,0.5672 -3.685,0.5572 -3.6666,-0.013 -5.0084,-0.2689 -2.9817,-0.5754 z m -214.0183,-1.3595 c 3.85,-0.2693 10.15,-0.2693 14,0 3.85,0.2693 0.7,0.4896 -7,0.4896 -7.7,0 -10.85,-0.2203 -7,-0.4896 z m 251.3334,0.064 c 1.2833,-0.3355 3.3833,-0.3355 4.6666,0 1.2834,0.3353 0.2334,0.6097 -2.3333,0.6097 -2.5667,0 -3.6167,-0.2744 -2.3333,-0.6097 z m -143.2982,-1.3923 c 3.1362,-0.2816 7.9362,-0.2777 10.6667,0.013 2.7307,0.2865 0.1648,0.5169 -5.7019,0.5121 -5.8666,0 -8.1008,-0.2393 -4.9648,-0.5209 z m 171.9648,0.095 c 0.9167,-0.3699 2.4167,-0.3699 3.3334,0 0.9166,0.3699 0.1666,0.6725 -1.6667,0.6725 -1.8333,0 -2.5833,-0.3026 -1.6667,-0.6725 z m -98.6428,-1.4165 c 2.3966,-0.2968 5.9966,-0.2907 8,0.013 2.0036,0.3041 0.043,0.5469 -4.3572,0.5395 -4.4,-0.013 -6.0392,-0.2564 -3.6428,-0.5531 z m 124.0595,0.056 c 0.9625,-0.3852 2.1125,-0.3379 2.5556,0.1053 0.4431,0.4431 -0.3445,0.7583 -1.75,0.7004 -1.5533,-0.064 -1.8692,-0.38 -0.8056,-0.8056 z m -76.75,-1.3416 c 1.2833,-0.3355 3.3833,-0.3355 4.6667,0 1.2833,0.3353 0.2333,0.6097 -2.3334,0.6097 -2.5666,0 -3.6166,-0.2744 -2.3333,-0.6097 z m 96.75,0.013 c 0.9625,-0.3852 2.1125,-0.3379 2.5556,0.1053 0.4431,0.4431 -0.3445,0.7583 -1.75,0.7004 -1.5533,-0.064 -1.8692,-0.38 -0.8056,-0.8056 z m -62.058,-1.3465 c 1.2973,-0.338 3.0973,-0.3159 4,0.049 0.9028,0.3652 -0.1587,0.6417 -2.3587,0.6147 -2.2,-0.027 -2.9385,-0.326 -1.6413,-0.6642 z m 82.058,0.013 c 0.9625,-0.3852 2.1125,-0.3379 2.5556,0.1053 0.4431,0.4431 -0.3445,0.7583 -1.75,0.7004 -1.5533,-0.064 -1.8692,-0.38 -0.8056,-0.8056 z m -56.0833,-1.3056 c 0.9166,-0.3699 2.4166,-0.3699 3.3333,0 0.9167,0.3699 0.1667,0.6725 -1.6667,0.6725 -1.8333,0 -2.5833,-0.3026 -1.6666,-0.6725 z m 72.0833,-0.028 c 0.9625,-0.3852 2.1125,-0.3379 2.5556,0.1053 0.4431,0.4431 -0.3445,0.7583 -1.75,0.7004 -1.5533,-0.064 -1.8692,-0.38 -0.8056,-0.8056 z m -49.4167,-1.3056 c 0.9167,-0.3699 2.4167,-0.3699 3.3334,0 0.9166,0.3699 0.1666,0.6725 -1.6667,0.6725 -1.8333,0 -2.5833,-0.3026 -1.6667,-0.6725 z m 65.4167,-0.028 c 0.9625,-0.3852 2.1125,-0.3379 2.5556,0.1053 0.4431,0.4431 -0.3445,0.7583 -1.75,0.7004 -1.5533,-0.064 -1.8692,-0.38 -0.8056,-0.8056 z m -45.4167,-1.3056 c 0.9167,-0.3699 2.4167,-0.3699 3.3334,0 0.9166,0.3699 0.1666,0.6725 -1.6667,0.6725 -1.8333,0 -2.5833,-0.3026 -1.6667,-0.6725 z m 18.75,-1.3611 c 0.9626,-0.3852 2.1126,-0.3378 2.5556,0.1054 0.4431,0.443 -0.3445,0.7582 -1.75,0.7004 -1.5533,-0.064 -1.8692,-0.38 -0.8056,-0.8056 z m 56,0 c 0.9626,-0.3852 2.1126,-0.3378 2.5556,0.1054 0.4431,0.443 -0.3445,0.7582 -1.75,0.7004 -1.5533,-0.064 -1.8692,-0.38 -0.8056,-0.8056 z m -40,-1.3333 c 0.9626,-0.3852 2.1126,-0.3379 2.5556,0.1053 0.4431,0.4431 -0.3445,0.7583 -1.75,0.7004 -1.5533,-0.064 -1.8692,-0.38 -0.8056,-0.8056 z m 54.6667,0 c 0.9625,-0.3852 2.1125,-0.3379 2.5556,0.1053 0.4431,0.4431 -0.3445,0.7583 -1.75,0.7004 -1.5533,-0.064 -1.8692,-0.38 -0.8056,-0.8056 z m -38.6667,-1.3333 c 0.9626,-0.3852 2.1126,-0.3379 2.5556,0.1053 0.4431,0.4431 -0.3445,0.7583 -1.75,0.7004 -1.5533,-0.064 -1.8692,-0.38 -0.8056,-0.8056 z m 53.3334,0 c 0.9625,-0.3852 2.1125,-0.3379 2.5556,0.1053 0.443,0.4431 -0.3446,0.7583 -1.75,0.7004 -1.5534,-0.064 -1.8692,-0.38 -0.8056,-0.8056 z m -38.6667,-1.3334 c 0.9625,-0.3852 2.1125,-0.3378 2.5556,0.1054 0.4431,0.443 -0.3445,0.7582 -1.75,0.7004 -1.5533,-0.064 -1.8692,-0.38 -0.8056,-0.8056 z m 53.3333,0 c 0.9626,-0.3852 2.1126,-0.3378 2.5556,0.1054 0.4431,0.443 -0.3445,0.7582 -1.75,0.7004 -1.5533,-0.064 -1.8692,-0.38 -0.8056,-0.8056 z m 52,-6.6666 c 0.9626,-0.3852 2.1126,-0.3379 2.5556,0.1053 0.4431,0.4431 -0.3445,0.7583 -1.75,0.7004 -1.5533,-0.064 -1.8692,-0.38 -0.8056,-0.8056 z m 16,-1.3334 c 0.9626,-0.3852 2.1126,-0.3378 2.5556,0.1054 0.4431,0.443 -0.3445,0.7582 -1.75,0.7004 -1.5533,-0.064 -1.8692,-0.38 -0.8056,-0.8056 z m 19.2754,-1.3465 c 1.2973,-0.338 3.0973,-0.3159 4,0.049 0.9028,0.3652 -0.1587,0.6418 -2.3587,0.6147 -2.2,-0.027 -2.9385,-0.326 -1.6413,-0.6641 z m 55.3913,0.013 c 0.9625,-0.3852 2.1125,-0.3378 2.5556,0.1054 0.4431,0.443 -0.3445,0.7582 -1.75,0.7004 -1.5533,-0.064 -1.8692,-0.38 -0.8056,-0.8056 z m -42.6667,-5.3333 c 0.9626,-0.3852 2.1126,-0.3379 2.5556,0.1053 0.4431,0.4431 -0.3445,0.7583 -1.75,0.7004 -1.5533,-0.064 -1.8692,-0.38 -0.8056,-0.8056 z m 34.6667,0 c 0.9625,-0.3852 2.1125,-0.3379 2.5556,0.1053 0.4431,0.4431 -0.3445,0.7583 -1.75,0.7004 -1.5533,-0.064 -1.8692,-0.38 -0.8056,-0.8056 z m -50.4167,-25.0944 c 1.7223,-1.8333 3.4315,-3.3333 3.7982,-3.3333 0.3666,0 -0.7426,1.5 -2.4648,3.3333 -1.7223,1.8333 -3.4315,3.3333 -3.7982,3.3333 -0.3666,0 0.7426,-1.5 2.4648,-3.3333 z m 26.7719,-56.1111 c 0.064,-1.5533 0.38,-1.8692 0.8056,-0.8056 0.3852,0.9626 0.3379,2.1126 -0.1053,2.5556 -0.4431,0.4431 -0.7583,-0.3445 -0.7004,-1.75 z M 566.33333,1523.117 c 0.91667,-0.3699 2.41667,-0.3699 3.33334,0 0.91666,0.3698 0.16666,0.6725 -1.66667,0.6725 -1.83333,0 -2.58333,-0.3027 -1.66667,-0.6725 z M 585,1523.0596 c 1.65,-0.3178 4.35,-0.3178 6,0 1.65,0.3178 0.3,0.5778 -3,0.5778 -3.3,0 -4.65,-0.26 -3,-0.5778 z m 261.66667,-138.2297 c 0,-0.2768 1.05,-1.3268 2.33333,-2.3334 l 2.33333,-1.8298 -1.82992,2.3333 c -1.74182,2.2209 -2.83674,2.9273 -2.83674,1.8299 z m 16.66666,-15.4966 c 1.32732,-1.4666 2.71331,-2.6666 3.07998,-2.6666 0.36666,0 -0.41932,1.2 -1.74664,2.6666 -1.32732,1.4667 -2.71331,2.6667 -3.07998,2.6667 -0.36666,0 0.41932,-1.2 1.74664,-2.6667 z m -2,-4.5034 c 0,-0.2768 1.05,-1.3268 2.33334,-2.3334 L 866,1360.6667 864.17008,1363 c -1.74183,2.2209 -2.83675,2.9273 -2.83675,1.8299 z m 57.33334,-50.6666 c 0,-0.2769 1.05,-1.3269 2.33333,-2.3334 l 2.33333,-1.8299 -1.82992,2.3333 c -1.74182,2.221 -2.83674,2.9274 -2.83674,1.83 z M 932,1299.4966 c 0,-0.2769 1.05,-1.3269 2.33333,-2.3333 l 2.33334,-1.83 -1.82992,2.3334 c -1.74183,2.221 -2.83675,2.9273 -2.83675,1.8299 z m 1091.75,-25.7407 c 0.9625,-0.3852 2.1125,-0.3378 2.5556,0.1052 0.4431,0.443 -0.3445,0.7582 -1.75,0.7003 -1.5533,-0.064 -1.8692,-0.38 -0.8056,-0.8056 z M 1813,1269.7836 c 0.9167,-0.3698 2.4167,-0.3698 3.3333,0 0.9167,0.3699 0.1667,0.6726 -1.6666,0.6726 -1.8334,0 -2.5834,-0.3027 -1.6667,-0.6726 z m 164,0 c 0.9167,-0.3698 2.4167,-0.3698 3.3333,0 0.9167,0.3699 0.1667,0.6726 -1.6666,0.6726 -1.8334,0 -2.5834,-0.3027 -1.6667,-0.6726 z m -137.9747,-1.3742 c 1.2974,-0.3381 3.0974,-0.3159 4,0.049 0.9028,0.3653 -0.1586,0.6419 -2.3586,0.6147 -2.2,-0.027 -2.9386,-0.326 -1.6414,-0.6641 z m 116.6414,0.041 c 0.9166,-0.3699 2.4166,-0.3699 3.3333,0 0.9167,0.3699 0.1667,0.6725 -1.6667,0.6725 -1.8333,0 -2.5833,-0.3026 -1.6666,-0.6725 z m -67.3334,-1.4414 c 5.6834,-0.2499 14.9834,-0.2499 20.6667,0 5.6833,0.25 1.0333,0.4544 -10.3333,0.4544 -11.3667,0 -16.0167,-0.2044 -10.3334,-0.4544 z m 100.75,-1.253 c 0.9626,-0.3852 2.1126,-0.3378 2.5556,0.1052 0.4431,0.443 -0.3445,0.7581 -1.75,0.7002 -1.5533,-0.064 -1.8692,-0.3799 -0.8056,-0.8055 z m -164,-1.3334 c 0.9626,-0.3851 2.1126,-0.3378 2.5556,0.1052 0.4431,0.4431 -0.3445,0.7582 -1.75,0.7003 -1.5533,-0.064 -1.8692,-0.3799 -0.8056,-0.8055 z m 144,0 c 0.9626,-0.3851 2.1126,-0.3378 2.5556,0.1052 0.4431,0.4431 -0.3445,0.7582 -1.75,0.7003 -1.5533,-0.064 -1.8692,-0.3799 -0.8056,-0.8055 z m -28.7246,-1.3465 c 1.2973,-0.338 3.0973,-0.3158 4,0.05 0.9028,0.3652 -0.1587,0.6418 -2.3587,0.6146 -2.2,-0.027 -2.9385,-0.326 -1.6413,-0.664 z M 1605.4385,863.22224 c 0.064,-1.55327 0.38,-1.8692 0.8056,-0.80556 0.3852,0.96249 0.3379,2.1125 -0.1053,2.55556 -0.4431,0.44305 -0.7583,-0.34446 -0.7004,-1.75 z m 1.488,-19.8889 c 0.027,-2.2 0.326,-2.93858 0.6642,-1.64129 0.338,1.29729 0.3158,3.09729 -0.049,4 -0.3652,0.90271 -0.6417,-0.15871 -0.6146,-2.35871 z m 5.1787,-13.44444 c 0.064,-1.55326 0.38,-1.8692 0.8056,-0.80556 0.3852,0.9625 0.3379,2.11251 -0.1053,2.55556 -0.4431,0.44306 -0.7583,-0.34445 -0.7004,-1.75 z m -3.5791,-39.88889 c 0,-10.26667 0.2114,-14.29041 0.4651,-8.94167 0.2537,5.34875 0.252,13.74875 0,18.66667 -0.2559,4.91792 -0.4635,0.54167 -0.4613,-9.725 z m 3.5791,-41.44444 c 0.064,-1.55327 0.38,-1.8692 0.8056,-0.80556 0.3852,0.96249 0.3379,2.11251 -0.1053,2.55556 -0.4431,0.44305 -0.7583,-0.34445 -0.7004,-1.75 z m -5.1023,-15.8889 c 0.015,-2.93333 0.2879,-3.97633 0.6068,-2.31778 0.319,1.65854 0.3068,4.05854 -0.027,5.33333 -0.3338,1.27479 -0.5947,-0.0823 -0.5799,-3.01555 z m 3.769,-18.77777 c 0.064,-1.55327 0.38,-1.8692 0.8056,-0.80556 0.3852,0.96249 0.3378,2.11251 -0.1054,2.55556 -0.443,0.44305 -0.7582,-0.34445 -0.7004,-1.75 z m -453.228,-28.55556 c 0,-1.83333 0.3026,-2.58333 0.6725,-1.66667 0.3699,0.91667 0.3699,2.41667 0,3.33334 -0.3699,0.91666 -0.6725,0.16666 -0.6725,-1.66667 z m 0,-29.33333 c 0,-1.83334 0.3026,-2.58334 0.6725,-1.66667 0.3699,0.91667 0.3699,2.41667 0,3.33333 -0.3699,0.91667 -0.6725,0.16667 -0.6725,-1.66666 z m 284.9526,-346.33334 -1.8298,-2.33333 2.3333,1.82992 c 1.2833,1.00646 2.3333,2.05646 2.3333,2.33333 0,1.09739 -1.0949,0.39108 -2.8368,-1.82992 z m -35.1882,-38 L 1394,258 l 13.6667,13.30832 c 12.6936,12.36083 14.2728,14.02502 13.3082,14.02502 -0.197,0 -6.347,-6.15 -13.6666,-13.66667 z m 13.8549,7.33333 -1.8299,-2.33333 2.3334,1.82992 c 2.2209,1.74183 2.9273,2.83675 1.8298,2.83675 -0.2768,0 -1.3268,-1.05 -2.3333,-2.33334 z m -24,-24 -1.8299,-2.33333 2.3334,1.82992 c 2.2209,1.74183 2.9273,2.83675 1.8298,2.83675 -0.2768,0 -1.3268,-1.05 -2.3333,-2.33334 z m -409.05793,-6.44444 c 0.064,-1.55326 0.37992,-1.8692 0.80554,-0.80556 0.38516,0.9625 0.3378,2.1125 -0.1052,2.55556 -0.44305,0.44306 -0.75818,-0.34445 -0.70029,-1.75 z M 1374.4965,240.33334 1372.6667,238 1375,239.82992 c 2.2209,1.74183 2.9273,2.83675 1.8299,2.83675 -0.2768,0 -1.3268,-1.05 -2.3334,-2.33333 z M 992.21052,236 c 0,-1.83333 0.30264,-2.58333 0.67252,-1.66666 0.36988,0.91666 0.36988,2.41666 0,3.33333 -0.36988,0.91667 -0.67252,0.16667 -0.67252,-1.66667 z m 370.28598,-6.33333 -1.8298,-2.33333 2.3333,1.82992 c 2.2209,1.74182 2.9273,2.83674 1.8299,2.83674 -0.2768,0 -1.3268,-1.05 -2.3334,-2.33333 z M 992.39955,220 c 0,-4.03333 0.24996,-5.68333 0.55545,-3.66666 0.30551,2.01666 0.30551,5.31666 0,7.33333 -0.30549,2.01667 -0.55545,0.36667 -0.55545,-3.66667 z m 1.03905,-18.1111 c 0.064,-1.55327 0.37992,-1.8692 0.80555,-0.80556 0.38516,0.96249 0.3378,2.11249 -0.1052,2.55556 -0.44306,0.44305 -0.75819,-0.34446 -0.7003,-1.75 z M 1221.1633,123 l -1.83,-2.33333 2.3334,1.82992 c 1.2833,1.00646 2.3333,2.05646 2.3333,2.33334 0,1.09738 -1.0949,0.39107 -2.8367,-1.82993 z M 1032,107.49659 c 0,-0.27687 1.05,-1.32687 2.3333,-2.33333 l 2.3334,-1.82993 -1.83,2.33334 c -1.7418,2.221 -2.8367,2.9273 -2.8367,1.82992 z m 58.3572,-29.79623 c 2.3965,-0.29675 5.9965,-0.290626 8,0.0136 2.0035,0.304232 0.043,0.547026 -4.3572,0.539542 -4.4,-0.0075 -6.0393,-0.256401 -3.6428,-0.553149 z"
         id="path192" />
      <path
         style="fill:#050403;stroke-width:1.33333"
         d="m 1424.6667,2896.5012 c -24.0131,-0.6434 -83.5595,-4.2016 -110,-6.5729 -84.4624,-7.5752 -158.1595,-18.0139 -273.3334,-38.7159 -22.3666,-4.0202 -43.06663,-7.573 -45.99997,-7.895 -16.46757,-1.8075 -120.85985,-23.484 -160.66666,-33.3616 C 746.49215,2788.0766 687.72184,2766.219 556,2706.3154 c -64.02763,-29.118 -172.34737,-79.4932 -173.61115,-80.7395 -0.51946,-0.5124 -0.49721,-1.6552 0.0495,-2.5397 0.70396,-1.1391 20.23459,7.354 66.94448,29.1112 224.82508,104.7224 282.80671,127.7036 388.27725,153.895 28.79875,7.1516 104.97972,23.3144 134.33996,28.5019 8.43334,1.4901 35.73326,6.314 60.66666,10.7196 151.2573,26.7271 234.9503,37.7 338,44.3149 37.0116,2.3758 179.9837,2.3704 218.6666,-0.013 217.2362,-13.358 377.9691,-47.7084 664.6667,-142.0463 107.3609,-35.327 123.7224,-41.1814 150.6667,-53.9109 112.8066,-53.2939 160.0588,-93.0011 179.2929,-150.6647 11.8305,-35.4676 11.2533,-81.0497 -1.486,-117.3484 -17.7455,-50.5632 -49.6215,-74.3653 -111.8069,-83.4876 -15.0902,-2.2137 -36.7566,-4.2728 -40,-3.8014 -1.1,0.1598 -5.6,0.8785 -10,1.5969 -10.5423,1.7215 -70.5271,8.7672 -96.6667,11.3544 -101.8331,10.0789 -142.2029,9.7928 -364,-2.5799 -74.1872,-4.1385 -76,-4.3049 -76,-6.9793 v -2.0845 l 13,0.869 c 28.2171,1.8863 181.7136,10.1655 215.4465,11.6207 46.1684,1.9916 145.3607,0.8819 175.5535,-1.9641 45.5781,-4.2962 66.3336,-6.5259 100.3344,-10.7787 l 34.9989,-4.3776 25.5032,-6.7867 c 92.8974,-24.7209 136.0419,-45.5754 171.8302,-83.0568 39.4714,-41.3386 64.6737,-104.9454 64.6413,-163.1446 -0.032,-58.4015 -26.4153,-92.1927 -94.0033,-120.4 -27.1103,-11.3143 -43.1368,-16.5928 -47.7918,-15.7407 -6.1004,1.1168 -95.426,10.9047 -128.8462,14.1184 -130.3855,12.538 -227.1335,13.0687 -494,2.7091 -50.4927,-1.9602 -56.6667,-2.505 -56.6667,-5.0004 v -2.0743 l 17.6667,0.8747 c 94.8673,4.6965 244.7673,8.8465 319,8.8317 101.5654,-0.02 158.3917,-3.4172 280,-16.7368 51.0653,-5.5932 58.0637,-6.9168 72.7142,-13.7531 6.2072,-2.8964 17.2858,-7.3574 24.6191,-9.9136 36.3653,-12.6756 65.1839,-25.7381 83.9176,-38.0374 19.9709,-13.1115 37.9717,-33.6348 45.2836,-51.6292 10.7891,-26.5523 10.2203,-67.2504 -1.3915,-99.56 -17.9225,-49.8696 -50.214,-81.5198 -95.4322,-93.537 -23.2436,-6.1772 -30.1242,-6.823 -71.7108,-6.7312 -40.1563,0.089 -73.0052,2.406 -92.6667,6.5371 -5.1333,1.0785 -24.0333,3.2164 -42,4.7507 -17.9667,1.5344 -42.2667,3.6342 -54,4.6664 -81.2841,7.1498 -160.7852,10.1397 -321.6667,12.0973 l -75,0.9127 v -2.0387 -2.0385 L 1995,1659.501 c 22.9167,-0.4407 66.5667,-1.1283 97,-1.5282 126.948,-1.6676 194.6345,-5.1409 312.606,-16.0413 l 35.9395,-3.3208 14.0605,-4.0287 c 16.9921,-4.8686 37.9957,-14.9253 48.316,-23.1341 11.8611,-9.4344 20.0867,-22.9615 26.0179,-42.7863 1.8948,-6.3332 2.3934,-12.7225 2.3934,-30.6666 v -22.6667 l -2.9242,-10.6667 c -5.805,-21.1742 -14.5698,-36.3669 -29.2359,-50.6765 -9.1595,-8.9368 -23.1785,-19.6388 -26.332,-20.1018 -1.0909,-0.1601 -17.9349,-9.0628 -37.4311,-19.7838 -101.5302,-55.8323 -165.9592,-84.5879 -239.0513,-106.6927 -97.0895,-29.3571 -220.9884,-43.7688 -339.0255,-39.4297 -104.4884,3.841 -187.3945,16.8706 -342,53.749 -22.7333,5.4227 -43.2957,9.9631 -45.6942,10.0899 l -4.361,0.2306 1.8943,-4.3566 c 1.0419,-2.3962 7.0928,-15.4149 13.4467,-28.9305 53.486,-113.7745 86.8638,-212.8896 109.3652,-324.75949 15.9774,-79.43455 20.7718,-139.72097 17.9732,-226 l -1.449,-44.66667 -7.3281,-34 c -36.3761,-168.77291 -68.7823,-249.6352 -133.0053,-331.88487 -52.4866,-67.21875 -130.8462,-137.85148 -219.2379,-197.61924 -27.5151,-18.6049 -42.2576,-26.86891 -68.2705,-38.26954 -39.6092,-17.359452 -60.4878,-23.160818 -84,-23.340376 -9.8378,-0.07513 -16.3784,0.60156 -22,2.276098 -36.2827,10.807742 -65.8668,52.471718 -76.52511,107.771968 -6.91836,35.89569 -4.2725,72.10312 9.03361,123.62001 l 5.1564,19.96392 4.5009,5.16199 c 43.5232,49.91614 59.0935,71.81282 79.4258,111.69729 25.6024,50.22223 49.3797,118.10439 58.3833,166.67892 5.9291,31.98746 7.4612,71.81922 3.1943,83.04206 -0.6874,1.80802 -1.552,6.65057 -1.9214,10.76121 -0.9323,10.3762 -11.8991,87.61058 -16.6805,117.4739 -17.1241,106.95192 -37.1194,186.82522 -62.6465,250.24732 -15.9307,39.5798 -41.1526,86.9495 -66.9569,125.7527 -54.50824,81.9667 -136.90568,168.3342 -216.26888,226.6892 -51.91033,38.169 -106.54363,69.3296 -143.57533,81.8895 -37.04554,12.5644 -64.76675,14.6465 -114.59568,8.6073 L 520,1518.254 v -2.6048 c 0,-2.0313 0.66071,-2.4424 3,-1.8668 11.72835,2.886 43.52813,5.1292 63,4.4443 26.33511,-0.9263 43.39353,-4.5123 70.39567,-14.7985 39.54536,-15.0643 102.9933,-54.0595 154.93766,-95.2249 58.02092,-45.9808 122.1946,-112.0208 166.50204,-171.3442 70.19193,-93.9803 109.49833,-183.8283 136.74863,-312.5846 11.4651,-54.17218 16.6072,-84.81746 31.7034,-188.94116 l 6.3793,-44 -0.1659,-27.33333 -0.1659,-27.33334 -3.4583,-18 c -10.0542,-52.33121 -36.1716,-126.44854 -60.9939,-173.09176 -18.8214,-35.36689 -33.0688,-55.12595 -74.8547,-103.81233 l -7.0699,-8.23743 -4.9925,-19.76257 c -10.29071,-40.73547 -13.74116,-66.94243 -12.58489,-95.58535 1.25205,-31.01608 7.5344,-55.76797 21.05969,-82.9732 16.4237,-33.03542 37.3223,-52.578912 63.3402,-59.233165 30.1846,-7.719915 65.793,1.032027 131.1809,32.242045 10.6121,5.06524 20.5121,10.34064 22,11.72312 1.4878,1.38249 12.8077,9.20963 25.1553,17.39365 67.8014,44.93919 142.0955,108.71351 190.3099,163.36272 29.5084,33.44668 57.4893,71.85046 74.7842,102.64094 34.7403,61.84907 59.2367,136.00219 87.2122,264 8.4978,38.88059 8.0153,33.79505 9.2977,98 1.9584,98.04172 -6.3065,167.56795 -32.2243,271.08036 -22.8276,91.1703 -49.2802,164.522 -94.0326,260.7477 -7.2888,15.672 -12.9671,28.7798 -12.6186,29.1283 0.3486,0.3486 20.9259,-4.1954 45.7275,-10.0976 177.7385,-42.2975 275.0181,-55.2999 397.0939,-53.0756 156.8936,2.8587 277.0273,28.7244 404,86.9842 23.446,10.7578 76.7028,37.5077 92.3396,46.3804 5.9957,3.4021 11.6116,6.1856 12.4797,6.1856 2.8785,0 37.1168,18.4253 50.2543,27.0444 23.9034,15.6822 37.6469,29.8378 47.5101,48.9349 10.7733,20.8591 15.6205,48.2716 12.8653,72.757 -4.3734,38.8674 -18.0396,59.4325 -50.7824,76.4181 l -11.3333,5.8793 8.6667,-0.8149 c 96.909,-9.1113 151.2152,1.8009 188.03,37.7829 17.4414,17.0467 30.034,37.5526 39.1578,63.7648 6.9668,20.0152 9.3092,33.8796 9.388,55.5668 0.124,34.2383 -8.1346,56.8323 -28.7245,78.5798 -21.5545,22.7662 -51.3256,39.3793 -104.3172,58.2116 -16.9216,6.0136 -34.2121,13.3238 -34.1772,14.4496 0.013,0.4174 8.2629,3.6862 18.3333,7.2638 22.0859,7.8464 52.8468,22.3216 65.9586,31.0383 19.3002,12.8308 35.6486,31.1036 43.5368,48.6619 8.5594,19.0522 12.02,44.0916 9.6072,69.5125 -6.4394,67.8408 -38.2668,131.4232 -84.2754,168.3584 -32.443,26.0449 -71.1802,43.3353 -138.4328,61.7897 l -23.2486,6.3795 14.582,1.6143 c 65.5762,7.259 100.2125,27.3069 121.1814,70.1406 26.9684,55.089 23.1926,126.8184 -9.2758,176.2154 -9.9418,15.1249 -35.342,40.5413 -54.1022,54.136 -27.5468,19.9621 -68.5252,42.6016 -121.8881,67.3398 -26.1975,12.1447 -205.2872,71.1204 -302,99.4511 -187.7797,55.0073 -329.6435,80.6107 -503.3333,90.8404 -33.7482,1.9876 -129.1418,3.4525 -164,2.5185 z"
         id="path190" />
    </g>
  </g>
</svg>
